M48
;DRILL file {KiCad 4.0.7+dfsg1-1} date Thu Apr 26 21:13:48 2018
;FORMAT={-:-/ absolute / metric / decimal}
FMAT,2
METRIC,TZ
T1C1.000
T2C1.100
%
G90
G05
M71
T1
X132.843Y-98.307
X136.272Y-166.611
X149.607Y-126.755
X153.036Y-195.059
X166.244Y-98.307
X169.673Y-166.611
X183.008Y-126.755
X186.437Y-195.059
X199.645Y-98.307
X203.074Y-166.611
X216.409Y-126.755
X219.838Y-195.059
X233.046Y-98.307
X236.475Y-166.611
X249.81Y-126.755
X253.239Y-195.059
X266.447Y-98.307
X269.876Y-166.611
X283.211Y-126.755
X286.64Y-195.059
T2
X128.906Y-202.044
X128.906Y-204.584
X129.033Y-88.782
X129.033Y-91.322
X156.846Y-202.044
X156.846Y-204.584
X156.973Y-88.782
X156.973Y-91.322
X162.307Y-202.044
X162.307Y-204.584
X162.434Y-88.782
X162.434Y-91.322
X190.247Y-202.044
X190.247Y-204.584
X190.374Y-88.782
X190.374Y-91.322
X195.708Y-202.044
X195.708Y-204.584
X195.835Y-88.782
X195.835Y-91.322
X223.648Y-202.044
X223.648Y-204.584
X223.775Y-88.782
X223.775Y-91.322
X229.109Y-202.044
X229.109Y-204.584
X229.236Y-88.782
X229.236Y-91.322
X257.049Y-202.044
X257.049Y-204.584
X257.176Y-88.782
X257.176Y-91.322
X262.51Y-202.044
X262.51Y-204.584
X262.637Y-88.782
X262.637Y-91.322
X290.45Y-202.044
X290.45Y-204.584
X290.577Y-88.782
X290.577Y-91.322
T0
M30
