%FSLAX45Y45*%
G04 Gerber Fmt 4.5, Leading zero omitted, Abs format (unit mm)*
G04 Created by KiCad (PCBNEW 4.0.7+dfsg1-1) date Thu Apr 26 21:13:50 2018*
%MOMM*%
%LPD*%
G01*
G04 APERTURE LIST*
%ADD10C,0.127000*%
%ADD11C,0.100000*%
%ADD12C,0.200000*%
%ADD13C,0.300000*%
G04 APERTURE END LIST*
D10*
D11*
X12623900Y-15099000D02*
X12623800Y-14236700D01*
X29324300Y-14236700D02*
X29324400Y-15099000D01*
D12*
X29823000Y-8700000D02*
X12127000Y-8699000D01*
X29823000Y-20636000D02*
X29823000Y-8700000D01*
X12127000Y-20636000D02*
X29823000Y-20636000D01*
X12127000Y-8699000D02*
X12127000Y-20638000D01*
D11*
X26809800Y-15099000D02*
X25984300Y-15099000D01*
X23469700Y-15099000D02*
X22644200Y-15099000D01*
X20129600Y-15099000D02*
X19304100Y-15099000D01*
X16789500Y-15099000D02*
X15964000Y-15099000D01*
X25984300Y-20636200D02*
X29324400Y-20636200D01*
X22644200Y-20636200D02*
X25984300Y-20636200D01*
X19304100Y-20636200D02*
X22644200Y-20636200D01*
X15964000Y-20636200D02*
X19304100Y-20636200D01*
X29324400Y-15099000D02*
X28079800Y-15099000D01*
X25984300Y-15099000D02*
X24739700Y-15099000D01*
X22644200Y-15099000D02*
X21399600Y-15099000D01*
X19304100Y-15099000D02*
X18059500Y-15099000D01*
X27228899Y-14237567D02*
G75*
G02X27343199Y-14351867I0J-114300D01*
G01*
X23888799Y-14237567D02*
G75*
G02X24003099Y-14351867I0J-114300D01*
G01*
X20548699Y-14237567D02*
G75*
G02X20662999Y-14351867I0J-114300D01*
G01*
X17208599Y-14237567D02*
G75*
G02X17322899Y-14351867I0J-114300D01*
G01*
X27178100Y-14946600D02*
G75*
G03X27355900Y-14768800I0J177800D01*
G01*
X23838000Y-14946600D02*
G75*
G03X24015800Y-14768800I0J177800D01*
G01*
X20497900Y-14946600D02*
G75*
G03X20675700Y-14768800I0J177800D01*
G01*
X17157800Y-14946600D02*
G75*
G03X17335600Y-14768800I0J177800D01*
G01*
X26809800Y-15099000D02*
G75*
G03X26962200Y-14946600I0J152400D01*
G01*
X23469700Y-15099000D02*
G75*
G03X23622100Y-14946600I0J152400D01*
G01*
X20129600Y-15099000D02*
G75*
G03X20282000Y-14946600I0J152400D01*
G01*
X16789500Y-15099000D02*
G75*
G03X16941900Y-14946600I0J152400D01*
G01*
X27355900Y-14768800D02*
X27965500Y-14768800D01*
X24015800Y-14768800D02*
X24625400Y-14768800D01*
X20675700Y-14768800D02*
X21285300Y-14768800D01*
X17335600Y-14768800D02*
X17945200Y-14768800D01*
X26962200Y-14946600D02*
X27178100Y-14946600D01*
X23622100Y-14946600D02*
X23838000Y-14946600D01*
X20282000Y-14946600D02*
X20497900Y-14946600D01*
X16941900Y-14946600D02*
X17157800Y-14946600D01*
X27343199Y-14567767D02*
X27343199Y-14351867D01*
X24003099Y-14567767D02*
X24003099Y-14351867D01*
X20662999Y-14567767D02*
X20662999Y-14351867D01*
X17322899Y-14567767D02*
X17322899Y-14351867D01*
X27952799Y-14567767D02*
X27343199Y-14567767D01*
X24612699Y-14567767D02*
X24003099Y-14567767D01*
X21272599Y-14567767D02*
X20662999Y-14567767D01*
X17932499Y-14567767D02*
X17322899Y-14567767D01*
X28498899Y-14237567D02*
G75*
G03X28346499Y-14389967I0J-152400D01*
G01*
X25158799Y-14237567D02*
G75*
G03X25006399Y-14389967I0J-152400D01*
G01*
X21818699Y-14237567D02*
G75*
G03X21666299Y-14389967I0J-152400D01*
G01*
X18478599Y-14237567D02*
G75*
G03X18326199Y-14389967I0J-152400D01*
G01*
X28346499Y-14389967D02*
X28130599Y-14389967D01*
X25006399Y-14389967D02*
X24790499Y-14389967D01*
X21666299Y-14389967D02*
X21450399Y-14389967D01*
X18326199Y-14389967D02*
X18110299Y-14389967D01*
X27965500Y-14768800D02*
X27965500Y-14984700D01*
X24625400Y-14768800D02*
X24625400Y-14984700D01*
X21285300Y-14768800D02*
X21285300Y-14984700D01*
X17945200Y-14768800D02*
X17945200Y-14984700D01*
X28130599Y-14389967D02*
G75*
G03X27952799Y-14567767I0J-177800D01*
G01*
X24790499Y-14389967D02*
G75*
G03X24612699Y-14567767I0J-177800D01*
G01*
X21450399Y-14389967D02*
G75*
G03X21272599Y-14567767I0J-177800D01*
G01*
X18110299Y-14389967D02*
G75*
G03X17932499Y-14567767I0J-177800D01*
G01*
X28079800Y-15099000D02*
G75*
G02X27965500Y-14984700I0J114300D01*
G01*
X24739700Y-15099000D02*
G75*
G02X24625400Y-14984700I0J114300D01*
G01*
X21399600Y-15099000D02*
G75*
G02X21285300Y-14984700I0J114300D01*
G01*
X18059500Y-15099000D02*
G75*
G02X17945200Y-14984700I0J114300D01*
G01*
X29324399Y-8700367D02*
X25984299Y-8700367D01*
X25984299Y-8700367D02*
X22644199Y-8700367D01*
X22644199Y-8700367D02*
X19304099Y-8700367D01*
X19304099Y-8700367D02*
X15963999Y-8700367D01*
X28498899Y-14237567D02*
X29324399Y-14237567D01*
X25158799Y-14237567D02*
X25984299Y-14237567D01*
X21818699Y-14237567D02*
X22644199Y-14237567D01*
X18478599Y-14237567D02*
X19304099Y-14237567D01*
X25984299Y-14237567D02*
X27228899Y-14237567D01*
X22644199Y-14237567D02*
X23888799Y-14237567D01*
X19304099Y-14237567D02*
X20548699Y-14237567D01*
X15963999Y-14237567D02*
X17208599Y-14237567D01*
X12623900Y-20636200D02*
X15964000Y-20636200D01*
X15964000Y-15099000D02*
X14719400Y-15099000D01*
X13449400Y-15099000D02*
X12623900Y-15099000D01*
X14719400Y-15099000D02*
G75*
G02X14605100Y-14984700I0J114300D01*
G01*
X13995500Y-14768800D02*
X14605100Y-14768800D01*
X13817700Y-14946600D02*
G75*
G03X13995500Y-14768800I0J177800D01*
G01*
X14605100Y-14768800D02*
X14605100Y-14984700D01*
X13601800Y-14946600D02*
X13817700Y-14946600D01*
X13449400Y-15099000D02*
G75*
G03X13601800Y-14946600I0J152400D01*
G01*
X14986099Y-14389967D02*
X14770199Y-14389967D01*
X15138499Y-14237567D02*
G75*
G03X14986099Y-14389967I0J-152400D01*
G01*
X14770199Y-14389967D02*
G75*
G03X14592399Y-14567767I0J-177800D01*
G01*
X13868499Y-14237567D02*
G75*
G02X13982799Y-14351867I0J-114300D01*
G01*
X13982799Y-14567767D02*
X13982799Y-14351867D01*
X15138499Y-14237567D02*
X15963999Y-14237567D01*
X12623899Y-14237567D02*
X13868499Y-14237567D01*
X14592399Y-14567767D02*
X13982799Y-14567767D01*
X15963999Y-8700367D02*
X12623899Y-8700367D01*
D12*
X13234299Y-9780667D02*
X13334299Y-9880667D01*
X13334299Y-9780667D02*
X13234299Y-9880667D01*
X13577200Y-16611100D02*
X13677200Y-16711100D01*
X13677200Y-16611100D02*
X13577200Y-16711100D01*
X14910699Y-12625467D02*
X15010699Y-12725467D01*
X15010699Y-12625467D02*
X14910699Y-12725467D01*
X15253600Y-19455900D02*
X15353600Y-19555900D01*
X15353600Y-19455900D02*
X15253600Y-19555900D01*
X16574399Y-9780667D02*
X16674399Y-9880667D01*
X16674399Y-9780667D02*
X16574399Y-9880667D01*
X16917300Y-16611100D02*
X17017300Y-16711100D01*
X17017300Y-16611100D02*
X16917300Y-16711100D01*
X18250799Y-12625467D02*
X18350799Y-12725467D01*
X18350799Y-12625467D02*
X18250799Y-12725467D01*
X18593700Y-19455900D02*
X18693700Y-19555900D01*
X18693700Y-19455900D02*
X18593700Y-19555900D01*
X19914499Y-9780667D02*
X20014499Y-9880667D01*
X20014499Y-9780667D02*
X19914499Y-9880667D01*
X20257400Y-16611100D02*
X20357400Y-16711100D01*
X20357400Y-16611100D02*
X20257400Y-16711100D01*
X21590899Y-12625467D02*
X21690899Y-12725467D01*
X21690899Y-12625467D02*
X21590899Y-12725467D01*
X21933800Y-19455900D02*
X22033800Y-19555900D01*
X22033800Y-19455900D02*
X21933800Y-19555900D01*
X23254599Y-9780667D02*
X23354599Y-9880667D01*
X23354599Y-9780667D02*
X23254599Y-9880667D01*
X23597500Y-16611100D02*
X23697500Y-16711100D01*
X23697500Y-16611100D02*
X23597500Y-16711100D01*
X24930999Y-12625467D02*
X25030999Y-12725467D01*
X25030999Y-12625467D02*
X24930999Y-12725467D01*
X25273900Y-19455900D02*
X25373900Y-19555900D01*
X25373900Y-19455900D02*
X25273900Y-19555900D01*
X26594699Y-9780667D02*
X26694699Y-9880667D01*
X26694699Y-9780667D02*
X26594699Y-9880667D01*
X26937600Y-16611100D02*
X27037600Y-16711100D01*
X27037600Y-16611100D02*
X26937600Y-16711100D01*
X28271099Y-12625467D02*
X28371099Y-12725467D01*
X28371099Y-12625467D02*
X28271099Y-12725467D01*
X28614000Y-19455900D02*
X28714000Y-19555900D01*
X28714000Y-19455900D02*
X28614000Y-19555900D01*
X12945600Y-20204400D02*
G75*
G03X12945600Y-20204400I-55000J0D01*
G01*
X12945600Y-20458400D02*
G75*
G03X12945600Y-20458400I-55000J0D01*
G01*
X12958299Y-8878167D02*
G75*
G03X12958299Y-8878167I-55000J0D01*
G01*
X12958299Y-9132167D02*
G75*
G03X12958299Y-9132167I-55000J0D01*
G01*
X15739600Y-20204400D02*
G75*
G03X15739600Y-20204400I-55000J0D01*
G01*
X15739600Y-20458400D02*
G75*
G03X15739600Y-20458400I-55000J0D01*
G01*
X15752299Y-8878167D02*
G75*
G03X15752299Y-8878167I-55000J0D01*
G01*
X15752299Y-9132167D02*
G75*
G03X15752299Y-9132167I-55000J0D01*
G01*
X16285700Y-20204400D02*
G75*
G03X16285700Y-20204400I-55000J0D01*
G01*
X16285700Y-20458400D02*
G75*
G03X16285700Y-20458400I-55000J0D01*
G01*
X16298399Y-8878167D02*
G75*
G03X16298399Y-8878167I-55000J0D01*
G01*
X16298399Y-9132167D02*
G75*
G03X16298399Y-9132167I-55000J0D01*
G01*
X19079700Y-20204400D02*
G75*
G03X19079700Y-20204400I-55000J0D01*
G01*
X19079700Y-20458400D02*
G75*
G03X19079700Y-20458400I-55000J0D01*
G01*
X19092399Y-8878167D02*
G75*
G03X19092399Y-8878167I-55000J0D01*
G01*
X19092399Y-9132167D02*
G75*
G03X19092399Y-9132167I-55000J0D01*
G01*
X19625800Y-20204400D02*
G75*
G03X19625800Y-20204400I-55000J0D01*
G01*
X19625800Y-20458400D02*
G75*
G03X19625800Y-20458400I-55000J0D01*
G01*
X19638499Y-8878167D02*
G75*
G03X19638499Y-8878167I-55000J0D01*
G01*
X19638499Y-9132167D02*
G75*
G03X19638499Y-9132167I-55000J0D01*
G01*
X22419800Y-20204400D02*
G75*
G03X22419800Y-20204400I-55000J0D01*
G01*
X22419800Y-20458400D02*
G75*
G03X22419800Y-20458400I-55000J0D01*
G01*
X22432499Y-8878167D02*
G75*
G03X22432499Y-8878167I-55000J0D01*
G01*
X22432499Y-9132167D02*
G75*
G03X22432499Y-9132167I-55000J0D01*
G01*
X22965900Y-20204400D02*
G75*
G03X22965900Y-20204400I-55000J0D01*
G01*
X22965900Y-20458400D02*
G75*
G03X22965900Y-20458400I-55000J0D01*
G01*
X22978599Y-8878167D02*
G75*
G03X22978599Y-8878167I-55000J0D01*
G01*
X22978599Y-9132167D02*
G75*
G03X22978599Y-9132167I-55000J0D01*
G01*
X25759900Y-20204400D02*
G75*
G03X25759900Y-20204400I-55000J0D01*
G01*
X25759900Y-20458400D02*
G75*
G03X25759900Y-20458400I-55000J0D01*
G01*
X25772599Y-8878167D02*
G75*
G03X25772599Y-8878167I-55000J0D01*
G01*
X25772599Y-9132167D02*
G75*
G03X25772599Y-9132167I-55000J0D01*
G01*
X26306000Y-20204400D02*
G75*
G03X26306000Y-20204400I-55000J0D01*
G01*
X26306000Y-20458400D02*
G75*
G03X26306000Y-20458400I-55000J0D01*
G01*
X26318699Y-8878167D02*
G75*
G03X26318699Y-8878167I-55000J0D01*
G01*
X26318699Y-9132167D02*
G75*
G03X26318699Y-9132167I-55000J0D01*
G01*
X29100000Y-20204400D02*
G75*
G03X29100000Y-20204400I-55000J0D01*
G01*
X29100000Y-20458400D02*
G75*
G03X29100000Y-20458400I-55000J0D01*
G01*
X29112699Y-8878167D02*
G75*
G03X29112699Y-8878167I-55000J0D01*
G01*
X29112699Y-9132167D02*
G75*
G03X29112699Y-9132167I-55000J0D01*
G01*
D13*
X12388428Y-21113714D02*
X12388428Y-20813714D01*
X12459857Y-20813714D01*
X12502714Y-20828000D01*
X12531286Y-20856572D01*
X12545571Y-20885143D01*
X12559857Y-20942286D01*
X12559857Y-20985143D01*
X12545571Y-21042286D01*
X12531286Y-21070857D01*
X12502714Y-21099429D01*
X12459857Y-21113714D01*
X12388428Y-21113714D01*
X12688428Y-21113714D02*
X12688428Y-20913714D01*
X12688428Y-20970857D02*
X12702714Y-20942286D01*
X12717000Y-20928000D01*
X12745571Y-20913714D01*
X12774143Y-20913714D01*
X12874143Y-21113714D02*
X12874143Y-20913714D01*
X12874143Y-20813714D02*
X12859857Y-20828000D01*
X12874143Y-20842286D01*
X12888428Y-20828000D01*
X12874143Y-20813714D01*
X12874143Y-20842286D01*
X13059857Y-21113714D02*
X13031286Y-21099429D01*
X13017000Y-21070857D01*
X13017000Y-20813714D01*
X13217000Y-21113714D02*
X13188428Y-21099429D01*
X13174143Y-21070857D01*
X13174143Y-20813714D01*
X13559857Y-21113714D02*
X13559857Y-20813714D01*
X13659857Y-21028000D01*
X13759857Y-20813714D01*
X13759857Y-21113714D01*
X14031286Y-21113714D02*
X14031286Y-20956572D01*
X14017000Y-20928000D01*
X13988428Y-20913714D01*
X13931286Y-20913714D01*
X13902714Y-20928000D01*
X14031286Y-21099429D02*
X14002714Y-21113714D01*
X13931286Y-21113714D01*
X13902714Y-21099429D01*
X13888428Y-21070857D01*
X13888428Y-21042286D01*
X13902714Y-21013714D01*
X13931286Y-20999429D01*
X14002714Y-20999429D01*
X14031286Y-20985143D01*
X14174143Y-20913714D02*
X14174143Y-21213714D01*
X14174143Y-20928000D02*
X14202714Y-20913714D01*
X14259857Y-20913714D01*
X14288428Y-20928000D01*
X14302714Y-20942286D01*
X14317000Y-20970857D01*
X14317000Y-21056572D01*
X14302714Y-21085143D01*
X14288428Y-21099429D01*
X14259857Y-21113714D01*
X14202714Y-21113714D01*
X14174143Y-21099429D01*
X14445571Y-21085143D02*
X14459857Y-21099429D01*
X14445571Y-21113714D01*
X14431286Y-21099429D01*
X14445571Y-21085143D01*
X14445571Y-21113714D01*
X14445571Y-20928000D02*
X14459857Y-20942286D01*
X14445571Y-20956572D01*
X14431286Y-20942286D01*
X14445571Y-20928000D01*
X14445571Y-20956572D01*
X12017000Y-21558000D02*
X12117000Y-21658000D01*
X12117000Y-21558000D02*
X12017000Y-21658000D01*
X12545571Y-21743714D02*
X12374143Y-21743714D01*
X12459857Y-21743714D02*
X12459857Y-21443714D01*
X12431286Y-21486572D01*
X12402714Y-21515143D01*
X12374143Y-21529429D01*
X12674143Y-21715143D02*
X12688428Y-21729429D01*
X12674143Y-21743714D01*
X12659857Y-21729429D01*
X12674143Y-21715143D01*
X12674143Y-21743714D01*
X12874143Y-21443714D02*
X12902714Y-21443714D01*
X12931286Y-21458000D01*
X12945571Y-21472286D01*
X12959857Y-21500857D01*
X12974143Y-21558000D01*
X12974143Y-21629429D01*
X12959857Y-21686572D01*
X12945571Y-21715143D01*
X12931286Y-21729429D01*
X12902714Y-21743714D01*
X12874143Y-21743714D01*
X12845571Y-21729429D01*
X12831286Y-21715143D01*
X12817000Y-21686572D01*
X12802714Y-21629429D01*
X12802714Y-21558000D01*
X12817000Y-21500857D01*
X12831286Y-21472286D01*
X12845571Y-21458000D01*
X12874143Y-21443714D01*
X13159857Y-21443714D02*
X13188428Y-21443714D01*
X13217000Y-21458000D01*
X13231286Y-21472286D01*
X13245571Y-21500857D01*
X13259857Y-21558000D01*
X13259857Y-21629429D01*
X13245571Y-21686572D01*
X13231286Y-21715143D01*
X13217000Y-21729429D01*
X13188428Y-21743714D01*
X13159857Y-21743714D01*
X13131286Y-21729429D01*
X13117000Y-21715143D01*
X13102714Y-21686572D01*
X13088428Y-21629429D01*
X13088428Y-21558000D01*
X13102714Y-21500857D01*
X13117000Y-21472286D01*
X13131286Y-21458000D01*
X13159857Y-21443714D01*
X13388428Y-21743714D02*
X13388428Y-21543714D01*
X13388428Y-21572286D02*
X13402714Y-21558000D01*
X13431286Y-21543714D01*
X13474143Y-21543714D01*
X13502714Y-21558000D01*
X13517000Y-21586572D01*
X13517000Y-21743714D01*
X13517000Y-21586572D02*
X13531286Y-21558000D01*
X13559857Y-21543714D01*
X13602714Y-21543714D01*
X13631286Y-21558000D01*
X13645571Y-21586572D01*
X13645571Y-21743714D01*
X13788428Y-21743714D02*
X13788428Y-21543714D01*
X13788428Y-21572286D02*
X13802714Y-21558000D01*
X13831286Y-21543714D01*
X13874143Y-21543714D01*
X13902714Y-21558000D01*
X13917000Y-21586572D01*
X13917000Y-21743714D01*
X13917000Y-21586572D02*
X13931286Y-21558000D01*
X13959857Y-21543714D01*
X14002714Y-21543714D01*
X14031286Y-21558000D01*
X14045571Y-21586572D01*
X14045571Y-21743714D01*
X14631286Y-21429429D02*
X14374143Y-21815143D01*
X15017000Y-21443714D02*
X15045571Y-21443714D01*
X15074143Y-21458000D01*
X15088428Y-21472286D01*
X15102714Y-21500857D01*
X15117000Y-21558000D01*
X15117000Y-21629429D01*
X15102714Y-21686572D01*
X15088428Y-21715143D01*
X15074143Y-21729429D01*
X15045571Y-21743714D01*
X15017000Y-21743714D01*
X14988428Y-21729429D01*
X14974143Y-21715143D01*
X14959857Y-21686572D01*
X14945571Y-21629429D01*
X14945571Y-21558000D01*
X14959857Y-21500857D01*
X14974143Y-21472286D01*
X14988428Y-21458000D01*
X15017000Y-21443714D01*
X15245571Y-21715143D02*
X15259857Y-21729429D01*
X15245571Y-21743714D01*
X15231286Y-21729429D01*
X15245571Y-21715143D01*
X15245571Y-21743714D01*
X15445571Y-21443714D02*
X15474143Y-21443714D01*
X15502714Y-21458000D01*
X15517000Y-21472286D01*
X15531285Y-21500857D01*
X15545571Y-21558000D01*
X15545571Y-21629429D01*
X15531285Y-21686572D01*
X15517000Y-21715143D01*
X15502714Y-21729429D01*
X15474143Y-21743714D01*
X15445571Y-21743714D01*
X15417000Y-21729429D01*
X15402714Y-21715143D01*
X15388428Y-21686572D01*
X15374143Y-21629429D01*
X15374143Y-21558000D01*
X15388428Y-21500857D01*
X15402714Y-21472286D01*
X15417000Y-21458000D01*
X15445571Y-21443714D01*
X15645571Y-21443714D02*
X15831285Y-21443714D01*
X15731285Y-21558000D01*
X15774143Y-21558000D01*
X15802714Y-21572286D01*
X15817000Y-21586572D01*
X15831285Y-21615143D01*
X15831285Y-21686572D01*
X15817000Y-21715143D01*
X15802714Y-21729429D01*
X15774143Y-21743714D01*
X15688428Y-21743714D01*
X15659857Y-21729429D01*
X15645571Y-21715143D01*
X15974143Y-21743714D02*
X16031285Y-21743714D01*
X16059857Y-21729429D01*
X16074143Y-21715143D01*
X16102714Y-21672286D01*
X16117000Y-21615143D01*
X16117000Y-21500857D01*
X16102714Y-21472286D01*
X16088428Y-21458000D01*
X16059857Y-21443714D01*
X16002714Y-21443714D01*
X15974143Y-21458000D01*
X15959857Y-21472286D01*
X15945571Y-21500857D01*
X15945571Y-21572286D01*
X15959857Y-21600857D01*
X15974143Y-21615143D01*
X16002714Y-21629429D01*
X16059857Y-21629429D01*
X16088428Y-21615143D01*
X16102714Y-21600857D01*
X16117000Y-21572286D01*
X16231286Y-21443714D02*
X16231286Y-21500857D01*
X16345571Y-21443714D02*
X16345571Y-21500857D01*
X16788428Y-21858000D02*
X16774143Y-21843714D01*
X16745571Y-21800857D01*
X16731285Y-21772286D01*
X16717000Y-21729429D01*
X16702714Y-21658000D01*
X16702714Y-21600857D01*
X16717000Y-21529429D01*
X16731285Y-21486572D01*
X16745571Y-21458000D01*
X16774143Y-21415143D01*
X16788428Y-21400857D01*
X16888428Y-21472286D02*
X16902714Y-21458000D01*
X16931286Y-21443714D01*
X17002714Y-21443714D01*
X17031286Y-21458000D01*
X17045571Y-21472286D01*
X17059857Y-21500857D01*
X17059857Y-21529429D01*
X17045571Y-21572286D01*
X16874143Y-21743714D01*
X17059857Y-21743714D01*
X17245571Y-21443714D02*
X17274143Y-21443714D01*
X17302714Y-21458000D01*
X17317000Y-21472286D01*
X17331286Y-21500857D01*
X17345571Y-21558000D01*
X17345571Y-21629429D01*
X17331286Y-21686572D01*
X17317000Y-21715143D01*
X17302714Y-21729429D01*
X17274143Y-21743714D01*
X17245571Y-21743714D01*
X17217000Y-21729429D01*
X17202714Y-21715143D01*
X17188428Y-21686572D01*
X17174143Y-21629429D01*
X17174143Y-21558000D01*
X17188428Y-21500857D01*
X17202714Y-21472286D01*
X17217000Y-21458000D01*
X17245571Y-21443714D01*
X17702714Y-21743714D02*
X17702714Y-21443714D01*
X17831286Y-21743714D02*
X17831286Y-21586572D01*
X17817000Y-21558000D01*
X17788428Y-21543714D01*
X17745571Y-21543714D01*
X17717000Y-21558000D01*
X17702714Y-21572286D01*
X18017000Y-21743714D02*
X17988428Y-21729429D01*
X17974143Y-21715143D01*
X17959857Y-21686572D01*
X17959857Y-21600857D01*
X17974143Y-21572286D01*
X17988428Y-21558000D01*
X18017000Y-21543714D01*
X18059857Y-21543714D01*
X18088428Y-21558000D01*
X18102714Y-21572286D01*
X18117000Y-21600857D01*
X18117000Y-21686572D01*
X18102714Y-21715143D01*
X18088428Y-21729429D01*
X18059857Y-21743714D01*
X18017000Y-21743714D01*
X18288428Y-21743714D02*
X18259857Y-21729429D01*
X18245571Y-21700857D01*
X18245571Y-21443714D01*
X18517000Y-21729429D02*
X18488429Y-21743714D01*
X18431286Y-21743714D01*
X18402714Y-21729429D01*
X18388429Y-21700857D01*
X18388429Y-21586572D01*
X18402714Y-21558000D01*
X18431286Y-21543714D01*
X18488429Y-21543714D01*
X18517000Y-21558000D01*
X18531286Y-21586572D01*
X18531286Y-21615143D01*
X18388429Y-21643714D01*
X18645571Y-21729429D02*
X18674143Y-21743714D01*
X18731286Y-21743714D01*
X18759857Y-21729429D01*
X18774143Y-21700857D01*
X18774143Y-21686572D01*
X18759857Y-21658000D01*
X18731286Y-21643714D01*
X18688429Y-21643714D01*
X18659857Y-21629429D01*
X18645571Y-21600857D01*
X18645571Y-21586572D01*
X18659857Y-21558000D01*
X18688429Y-21543714D01*
X18731286Y-21543714D01*
X18759857Y-21558000D01*
X18874143Y-21858000D02*
X18888429Y-21843714D01*
X18917000Y-21800857D01*
X18931286Y-21772286D01*
X18945571Y-21729429D01*
X18959857Y-21658000D01*
X18959857Y-21600857D01*
X18945571Y-21529429D01*
X18931286Y-21486572D01*
X18917000Y-21458000D01*
X18888429Y-21415143D01*
X18874143Y-21400857D01*
X12117000Y-22004000D02*
G75*
G03X12117000Y-22004000I-55000J0D01*
G01*
X12545571Y-22139714D02*
X12374143Y-22139714D01*
X12459857Y-22139714D02*
X12459857Y-21839714D01*
X12431286Y-21882572D01*
X12402714Y-21911143D01*
X12374143Y-21925429D01*
X12674143Y-22111143D02*
X12688428Y-22125429D01*
X12674143Y-22139714D01*
X12659857Y-22125429D01*
X12674143Y-22111143D01*
X12674143Y-22139714D01*
X12974143Y-22139714D02*
X12802714Y-22139714D01*
X12888428Y-22139714D02*
X12888428Y-21839714D01*
X12859857Y-21882572D01*
X12831286Y-21911143D01*
X12802714Y-21925429D01*
X13159857Y-21839714D02*
X13188428Y-21839714D01*
X13217000Y-21854000D01*
X13231286Y-21868286D01*
X13245571Y-21896857D01*
X13259857Y-21954000D01*
X13259857Y-22025429D01*
X13245571Y-22082572D01*
X13231286Y-22111143D01*
X13217000Y-22125429D01*
X13188428Y-22139714D01*
X13159857Y-22139714D01*
X13131286Y-22125429D01*
X13117000Y-22111143D01*
X13102714Y-22082572D01*
X13088428Y-22025429D01*
X13088428Y-21954000D01*
X13102714Y-21896857D01*
X13117000Y-21868286D01*
X13131286Y-21854000D01*
X13159857Y-21839714D01*
X13388428Y-22139714D02*
X13388428Y-21939714D01*
X13388428Y-21968286D02*
X13402714Y-21954000D01*
X13431286Y-21939714D01*
X13474143Y-21939714D01*
X13502714Y-21954000D01*
X13517000Y-21982572D01*
X13517000Y-22139714D01*
X13517000Y-21982572D02*
X13531286Y-21954000D01*
X13559857Y-21939714D01*
X13602714Y-21939714D01*
X13631286Y-21954000D01*
X13645571Y-21982572D01*
X13645571Y-22139714D01*
X13788428Y-22139714D02*
X13788428Y-21939714D01*
X13788428Y-21968286D02*
X13802714Y-21954000D01*
X13831286Y-21939714D01*
X13874143Y-21939714D01*
X13902714Y-21954000D01*
X13917000Y-21982572D01*
X13917000Y-22139714D01*
X13917000Y-21982572D02*
X13931286Y-21954000D01*
X13959857Y-21939714D01*
X14002714Y-21939714D01*
X14031286Y-21954000D01*
X14045571Y-21982572D01*
X14045571Y-22139714D01*
X14631286Y-21825429D02*
X14374143Y-22211143D01*
X15017000Y-21839714D02*
X15045571Y-21839714D01*
X15074143Y-21854000D01*
X15088428Y-21868286D01*
X15102714Y-21896857D01*
X15117000Y-21954000D01*
X15117000Y-22025429D01*
X15102714Y-22082572D01*
X15088428Y-22111143D01*
X15074143Y-22125429D01*
X15045571Y-22139714D01*
X15017000Y-22139714D01*
X14988428Y-22125429D01*
X14974143Y-22111143D01*
X14959857Y-22082572D01*
X14945571Y-22025429D01*
X14945571Y-21954000D01*
X14959857Y-21896857D01*
X14974143Y-21868286D01*
X14988428Y-21854000D01*
X15017000Y-21839714D01*
X15245571Y-22111143D02*
X15259857Y-22125429D01*
X15245571Y-22139714D01*
X15231286Y-22125429D01*
X15245571Y-22111143D01*
X15245571Y-22139714D01*
X15445571Y-21839714D02*
X15474143Y-21839714D01*
X15502714Y-21854000D01*
X15517000Y-21868286D01*
X15531285Y-21896857D01*
X15545571Y-21954000D01*
X15545571Y-22025429D01*
X15531285Y-22082572D01*
X15517000Y-22111143D01*
X15502714Y-22125429D01*
X15474143Y-22139714D01*
X15445571Y-22139714D01*
X15417000Y-22125429D01*
X15402714Y-22111143D01*
X15388428Y-22082572D01*
X15374143Y-22025429D01*
X15374143Y-21954000D01*
X15388428Y-21896857D01*
X15402714Y-21868286D01*
X15417000Y-21854000D01*
X15445571Y-21839714D01*
X15802714Y-21939714D02*
X15802714Y-22139714D01*
X15731285Y-21825429D02*
X15659857Y-22039714D01*
X15845571Y-22039714D01*
X15931285Y-21839714D02*
X16117000Y-21839714D01*
X16017000Y-21954000D01*
X16059857Y-21954000D01*
X16088428Y-21968286D01*
X16102714Y-21982572D01*
X16117000Y-22011143D01*
X16117000Y-22082572D01*
X16102714Y-22111143D01*
X16088428Y-22125429D01*
X16059857Y-22139714D01*
X15974143Y-22139714D01*
X15945571Y-22125429D01*
X15931285Y-22111143D01*
X16231286Y-21839714D02*
X16231286Y-21896857D01*
X16345571Y-21839714D02*
X16345571Y-21896857D01*
X16788428Y-22254000D02*
X16774143Y-22239714D01*
X16745571Y-22196857D01*
X16731285Y-22168286D01*
X16717000Y-22125429D01*
X16702714Y-22054000D01*
X16702714Y-21996857D01*
X16717000Y-21925429D01*
X16731285Y-21882572D01*
X16745571Y-21854000D01*
X16774143Y-21811143D01*
X16788428Y-21796857D01*
X17031286Y-21939714D02*
X17031286Y-22139714D01*
X16959857Y-21825429D02*
X16888428Y-22039714D01*
X17074143Y-22039714D01*
X17245571Y-21839714D02*
X17274143Y-21839714D01*
X17302714Y-21854000D01*
X17317000Y-21868286D01*
X17331286Y-21896857D01*
X17345571Y-21954000D01*
X17345571Y-22025429D01*
X17331286Y-22082572D01*
X17317000Y-22111143D01*
X17302714Y-22125429D01*
X17274143Y-22139714D01*
X17245571Y-22139714D01*
X17217000Y-22125429D01*
X17202714Y-22111143D01*
X17188428Y-22082572D01*
X17174143Y-22025429D01*
X17174143Y-21954000D01*
X17188428Y-21896857D01*
X17202714Y-21868286D01*
X17217000Y-21854000D01*
X17245571Y-21839714D01*
X17702714Y-22139714D02*
X17702714Y-21839714D01*
X17831286Y-22139714D02*
X17831286Y-21982572D01*
X17817000Y-21954000D01*
X17788428Y-21939714D01*
X17745571Y-21939714D01*
X17717000Y-21954000D01*
X17702714Y-21968286D01*
X18017000Y-22139714D02*
X17988428Y-22125429D01*
X17974143Y-22111143D01*
X17959857Y-22082572D01*
X17959857Y-21996857D01*
X17974143Y-21968286D01*
X17988428Y-21954000D01*
X18017000Y-21939714D01*
X18059857Y-21939714D01*
X18088428Y-21954000D01*
X18102714Y-21968286D01*
X18117000Y-21996857D01*
X18117000Y-22082572D01*
X18102714Y-22111143D01*
X18088428Y-22125429D01*
X18059857Y-22139714D01*
X18017000Y-22139714D01*
X18288428Y-22139714D02*
X18259857Y-22125429D01*
X18245571Y-22096857D01*
X18245571Y-21839714D01*
X18517000Y-22125429D02*
X18488429Y-22139714D01*
X18431286Y-22139714D01*
X18402714Y-22125429D01*
X18388429Y-22096857D01*
X18388429Y-21982572D01*
X18402714Y-21954000D01*
X18431286Y-21939714D01*
X18488429Y-21939714D01*
X18517000Y-21954000D01*
X18531286Y-21982572D01*
X18531286Y-22011143D01*
X18388429Y-22039714D01*
X18645571Y-22125429D02*
X18674143Y-22139714D01*
X18731286Y-22139714D01*
X18759857Y-22125429D01*
X18774143Y-22096857D01*
X18774143Y-22082572D01*
X18759857Y-22054000D01*
X18731286Y-22039714D01*
X18688429Y-22039714D01*
X18659857Y-22025429D01*
X18645571Y-21996857D01*
X18645571Y-21982572D01*
X18659857Y-21954000D01*
X18688429Y-21939714D01*
X18731286Y-21939714D01*
X18759857Y-21954000D01*
X18874143Y-22254000D02*
X18888429Y-22239714D01*
X18917000Y-22196857D01*
X18931286Y-22168286D01*
X18945571Y-22125429D01*
X18959857Y-22054000D01*
X18959857Y-21996857D01*
X18945571Y-21925429D01*
X18931286Y-21882572D01*
X18917000Y-21854000D01*
X18888429Y-21811143D01*
X18874143Y-21796857D01*
M02*
