G04 #@! TF.FileFunction,Other,ECO1*
%FSLAX46Y46*%
G04 Gerber Fmt 4.6, Leading zero omitted, Abs format (unit mm)*
G04 Created by KiCad (PCBNEW 4.0.7+dfsg1-1) date Thu Apr 26 21:15:47 2018*
%MOMM*%
%LPD*%
G01*
G04 APERTURE LIST*
%ADD10C,0.100000*%
%ADD11C,0.300000*%
%ADD12C,0.200000*%
G04 APERTURE END LIST*
D10*
D11*
X292442571Y-225098571D02*
X293942571Y-224598571D01*
X292442571Y-224098571D01*
X293371143Y-223598571D02*
X293371143Y-222455714D01*
X293871143Y-221098571D02*
X293942571Y-221241428D01*
X293942571Y-221527142D01*
X293871143Y-221670000D01*
X293799714Y-221741428D01*
X293656857Y-221812857D01*
X293228286Y-221812857D01*
X293085429Y-221741428D01*
X293014000Y-221670000D01*
X292942571Y-221527142D01*
X292942571Y-221241428D01*
X293014000Y-221098571D01*
X292942571Y-219812857D02*
X293942571Y-219812857D01*
X292942571Y-220455714D02*
X293728286Y-220455714D01*
X293871143Y-220384286D01*
X293942571Y-220241428D01*
X293942571Y-220027143D01*
X293871143Y-219884286D01*
X293799714Y-219812857D01*
X292942571Y-219312857D02*
X292942571Y-218741428D01*
X292442571Y-219098571D02*
X293728286Y-219098571D01*
X293871143Y-219027143D01*
X293942571Y-218884285D01*
X293942571Y-218741428D01*
X259041571Y-225098571D02*
X260541571Y-224598571D01*
X259041571Y-224098571D01*
X259970143Y-223598571D02*
X259970143Y-222455714D01*
X260470143Y-221098571D02*
X260541571Y-221241428D01*
X260541571Y-221527142D01*
X260470143Y-221670000D01*
X260398714Y-221741428D01*
X260255857Y-221812857D01*
X259827286Y-221812857D01*
X259684429Y-221741428D01*
X259613000Y-221670000D01*
X259541571Y-221527142D01*
X259541571Y-221241428D01*
X259613000Y-221098571D01*
X259541571Y-219812857D02*
X260541571Y-219812857D01*
X259541571Y-220455714D02*
X260327286Y-220455714D01*
X260470143Y-220384286D01*
X260541571Y-220241428D01*
X260541571Y-220027143D01*
X260470143Y-219884286D01*
X260398714Y-219812857D01*
X259541571Y-219312857D02*
X259541571Y-218741428D01*
X259041571Y-219098571D02*
X260327286Y-219098571D01*
X260470143Y-219027143D01*
X260541571Y-218884285D01*
X260541571Y-218741428D01*
X225640571Y-225098571D02*
X227140571Y-224598571D01*
X225640571Y-224098571D01*
X226569143Y-223598571D02*
X226569143Y-222455714D01*
X227069143Y-221098571D02*
X227140571Y-221241428D01*
X227140571Y-221527142D01*
X227069143Y-221670000D01*
X226997714Y-221741428D01*
X226854857Y-221812857D01*
X226426286Y-221812857D01*
X226283429Y-221741428D01*
X226212000Y-221670000D01*
X226140571Y-221527142D01*
X226140571Y-221241428D01*
X226212000Y-221098571D01*
X226140571Y-219812857D02*
X227140571Y-219812857D01*
X226140571Y-220455714D02*
X226926286Y-220455714D01*
X227069143Y-220384286D01*
X227140571Y-220241428D01*
X227140571Y-220027143D01*
X227069143Y-219884286D01*
X226997714Y-219812857D01*
X226140571Y-219312857D02*
X226140571Y-218741428D01*
X225640571Y-219098571D02*
X226926286Y-219098571D01*
X227069143Y-219027143D01*
X227140571Y-218884285D01*
X227140571Y-218741428D01*
X192239571Y-225098571D02*
X193739571Y-224598571D01*
X192239571Y-224098571D01*
X193168143Y-223598571D02*
X193168143Y-222455714D01*
X193668143Y-221098571D02*
X193739571Y-221241428D01*
X193739571Y-221527142D01*
X193668143Y-221670000D01*
X193596714Y-221741428D01*
X193453857Y-221812857D01*
X193025286Y-221812857D01*
X192882429Y-221741428D01*
X192811000Y-221670000D01*
X192739571Y-221527142D01*
X192739571Y-221241428D01*
X192811000Y-221098571D01*
X192739571Y-219812857D02*
X193739571Y-219812857D01*
X192739571Y-220455714D02*
X193525286Y-220455714D01*
X193668143Y-220384286D01*
X193739571Y-220241428D01*
X193739571Y-220027143D01*
X193668143Y-219884286D01*
X193596714Y-219812857D01*
X192739571Y-219312857D02*
X192739571Y-218741428D01*
X192239571Y-219098571D02*
X193525286Y-219098571D01*
X193668143Y-219027143D01*
X193739571Y-218884285D01*
X193739571Y-218741428D01*
X158838571Y-225098571D02*
X160338571Y-224598571D01*
X158838571Y-224098571D01*
X159767143Y-223598571D02*
X159767143Y-222455714D01*
X160267143Y-221098571D02*
X160338571Y-221241428D01*
X160338571Y-221527142D01*
X160267143Y-221670000D01*
X160195714Y-221741428D01*
X160052857Y-221812857D01*
X159624286Y-221812857D01*
X159481429Y-221741428D01*
X159410000Y-221670000D01*
X159338571Y-221527142D01*
X159338571Y-221241428D01*
X159410000Y-221098571D01*
X159338571Y-219812857D02*
X160338571Y-219812857D01*
X159338571Y-220455714D02*
X160124286Y-220455714D01*
X160267143Y-220384286D01*
X160338571Y-220241428D01*
X160338571Y-220027143D01*
X160267143Y-219884286D01*
X160195714Y-219812857D01*
X159338571Y-219312857D02*
X159338571Y-218741428D01*
X158838571Y-219098571D02*
X160124286Y-219098571D01*
X160267143Y-219027143D01*
X160338571Y-218884285D01*
X160338571Y-218741428D01*
X125437571Y-225098571D02*
X126937571Y-224598571D01*
X125437571Y-224098571D01*
X126366143Y-223598571D02*
X126366143Y-222455714D01*
X126866143Y-221098571D02*
X126937571Y-221241428D01*
X126937571Y-221527142D01*
X126866143Y-221670000D01*
X126794714Y-221741428D01*
X126651857Y-221812857D01*
X126223286Y-221812857D01*
X126080429Y-221741428D01*
X126009000Y-221670000D01*
X125937571Y-221527142D01*
X125937571Y-221241428D01*
X126009000Y-221098571D01*
X125937571Y-219812857D02*
X126937571Y-219812857D01*
X125937571Y-220455714D02*
X126723286Y-220455714D01*
X126866143Y-220384286D01*
X126937571Y-220241428D01*
X126937571Y-220027143D01*
X126866143Y-219884286D01*
X126794714Y-219812857D01*
X125937571Y-219312857D02*
X125937571Y-218741428D01*
X125437571Y-219098571D02*
X126723286Y-219098571D01*
X126866143Y-219027143D01*
X126937571Y-218884285D01*
X126937571Y-218741428D01*
D12*
X126239000Y-74800000D02*
X126239000Y-216300000D01*
X293244000Y-74800000D02*
X293244000Y-216300000D01*
X259843000Y-74800000D02*
X259843000Y-216300000D01*
X226442000Y-74800000D02*
X226442000Y-216300000D01*
X193041000Y-74800000D02*
X193041000Y-216300000D01*
X159640000Y-74800000D02*
X159640000Y-216300000D01*
M02*
