G04 #@! TF.FileFunction,Paste,Top*
%FSLAX46Y46*%
G04 Gerber Fmt 4.6, Leading zero omitted, Abs format (unit mm)*
G04 Created by KiCad (PCBNEW 4.0.7+dfsg1-1) date Thu Apr 26 21:15:47 2018*
%MOMM*%
%LPD*%
G01*
G04 APERTURE LIST*
%ADD10C,0.100000*%
%ADD11R,0.800000X0.750000*%
%ADD12R,4.500000X2.000000*%
%ADD13R,0.800000X0.900000*%
%ADD14R,1.300000X1.550000*%
%ADD15R,1.250000X1.000000*%
%ADD16R,0.550000X1.750000*%
%ADD17R,0.800000X0.800000*%
%ADD18R,0.900000X0.500000*%
%ADD19R,1.000000X0.720000*%
%ADD20R,0.500000X0.900000*%
G04 APERTURE END LIST*
D10*
D11*
X281953000Y-185026000D03*
X283453000Y-185026000D03*
X248552000Y-185026000D03*
X250052000Y-185026000D03*
X215151000Y-185026000D03*
X216651000Y-185026000D03*
X181750000Y-185026000D03*
X183250000Y-185026000D03*
X286017000Y-185026000D03*
X287517000Y-185026000D03*
X252616000Y-185026000D03*
X254116000Y-185026000D03*
X219215000Y-185026000D03*
X220715000Y-185026000D03*
X185814000Y-185026000D03*
X187314000Y-185026000D03*
D12*
X279088000Y-189217000D03*
X287588000Y-189217000D03*
X245687000Y-189217000D03*
X254187000Y-189217000D03*
X212286000Y-189217000D03*
X220786000Y-189217000D03*
X178885000Y-189217000D03*
X187385000Y-189217000D03*
D13*
X279594000Y-170405000D03*
X281494000Y-170405000D03*
X280544000Y-168405000D03*
X246193000Y-170405000D03*
X248093000Y-170405000D03*
X247143000Y-168405000D03*
X212792000Y-170405000D03*
X214692000Y-170405000D03*
X213742000Y-168405000D03*
X179391000Y-170405000D03*
X181291000Y-170405000D03*
X180341000Y-168405000D03*
D14*
X268570000Y-169575000D03*
X264070000Y-169575000D03*
X264070000Y-161615000D03*
X268570000Y-161615000D03*
X235169000Y-169575000D03*
X230669000Y-169575000D03*
X230669000Y-161615000D03*
X235169000Y-161615000D03*
X201768000Y-169575000D03*
X197268000Y-169575000D03*
X197268000Y-161615000D03*
X201768000Y-161615000D03*
X168367000Y-169575000D03*
X163867000Y-169575000D03*
X163867000Y-161615000D03*
X168367000Y-161615000D03*
X268570000Y-181005000D03*
X264070000Y-181005000D03*
X264070000Y-173045000D03*
X268570000Y-173045000D03*
X235169000Y-181005000D03*
X230669000Y-181005000D03*
X230669000Y-173045000D03*
X235169000Y-173045000D03*
X201768000Y-181005000D03*
X197268000Y-181005000D03*
X197268000Y-173045000D03*
X201768000Y-173045000D03*
X168367000Y-181005000D03*
X163867000Y-181005000D03*
X163867000Y-173045000D03*
X168367000Y-173045000D03*
X281524000Y-181005000D03*
X277024000Y-181005000D03*
X277024000Y-173045000D03*
X281524000Y-173045000D03*
X248123000Y-181005000D03*
X243623000Y-181005000D03*
X243623000Y-173045000D03*
X248123000Y-173045000D03*
X214722000Y-181005000D03*
X210222000Y-181005000D03*
X210222000Y-173045000D03*
X214722000Y-173045000D03*
X181321000Y-181005000D03*
X176821000Y-181005000D03*
X176821000Y-173045000D03*
X181321000Y-173045000D03*
D13*
X281494000Y-164341000D03*
X279594000Y-164341000D03*
X280544000Y-166341000D03*
X248093000Y-164341000D03*
X246193000Y-164341000D03*
X247143000Y-166341000D03*
X214692000Y-164341000D03*
X212792000Y-164341000D03*
X213742000Y-166341000D03*
X181291000Y-164341000D03*
X179391000Y-164341000D03*
X180341000Y-166341000D03*
D15*
X291085000Y-175263000D03*
X291085000Y-177263000D03*
X257684000Y-175263000D03*
X257684000Y-177263000D03*
X224283000Y-175263000D03*
X224283000Y-177263000D03*
X190882000Y-175263000D03*
X190882000Y-177263000D03*
D13*
X284674000Y-159356000D03*
X286574000Y-159356000D03*
X285624000Y-157356000D03*
X251273000Y-159356000D03*
X253173000Y-159356000D03*
X252223000Y-157356000D03*
X217872000Y-159356000D03*
X219772000Y-159356000D03*
X218822000Y-157356000D03*
X184471000Y-159356000D03*
X186371000Y-159356000D03*
X185421000Y-157356000D03*
D16*
X284989000Y-179218000D03*
X286259000Y-179218000D03*
X287529000Y-179218000D03*
X288799000Y-179218000D03*
X288799000Y-171818000D03*
X287529000Y-171818000D03*
X286259000Y-171818000D03*
X284989000Y-171818000D03*
X251588000Y-179218000D03*
X252858000Y-179218000D03*
X254128000Y-179218000D03*
X255398000Y-179218000D03*
X255398000Y-171818000D03*
X254128000Y-171818000D03*
X252858000Y-171818000D03*
X251588000Y-171818000D03*
X218187000Y-179218000D03*
X219457000Y-179218000D03*
X220727000Y-179218000D03*
X221997000Y-179218000D03*
X221997000Y-171818000D03*
X220727000Y-171818000D03*
X219457000Y-171818000D03*
X218187000Y-171818000D03*
X184786000Y-179218000D03*
X186056000Y-179218000D03*
X187326000Y-179218000D03*
X188596000Y-179218000D03*
X188596000Y-171818000D03*
X187326000Y-171818000D03*
X186056000Y-171818000D03*
X184786000Y-171818000D03*
D17*
X291339000Y-154635000D03*
X291339000Y-156235000D03*
X257938000Y-154635000D03*
X257938000Y-156235000D03*
X224537000Y-154635000D03*
X224537000Y-156235000D03*
X191136000Y-154635000D03*
X191136000Y-156235000D03*
D18*
X278766000Y-153923000D03*
X278766000Y-155423000D03*
X245365000Y-153923000D03*
X245365000Y-155423000D03*
X211964000Y-153923000D03*
X211964000Y-155423000D03*
X178563000Y-153923000D03*
X178563000Y-155423000D03*
D19*
X276256000Y-150228000D03*
X273656000Y-150228000D03*
X242855000Y-150228000D03*
X240255000Y-150228000D03*
X209454000Y-150228000D03*
X206854000Y-150228000D03*
X176053000Y-150228000D03*
X173453000Y-150228000D03*
X278923000Y-148577000D03*
X276323000Y-148577000D03*
X245522000Y-148577000D03*
X242922000Y-148577000D03*
X212121000Y-148577000D03*
X209521000Y-148577000D03*
X178720000Y-148577000D03*
X176120000Y-148577000D03*
D20*
X276468000Y-154673000D03*
X274968000Y-154673000D03*
X243067000Y-154673000D03*
X241567000Y-154673000D03*
X209666000Y-154673000D03*
X208166000Y-154673000D03*
X176265000Y-154673000D03*
X174765000Y-154673000D03*
D11*
X267069990Y-108339668D03*
X265569990Y-108339668D03*
X233668990Y-108339668D03*
X232168990Y-108339668D03*
X200267990Y-108339668D03*
X198767990Y-108339668D03*
X166866990Y-108339668D03*
X165366990Y-108339668D03*
D12*
X273998990Y-104148668D03*
X265498990Y-104148668D03*
X240597990Y-104148668D03*
X232097990Y-104148668D03*
X207196990Y-104148668D03*
X198696990Y-104148668D03*
X173795990Y-104148668D03*
X165295990Y-104148668D03*
D11*
X271133990Y-108339668D03*
X269633990Y-108339668D03*
X237732990Y-108339668D03*
X236232990Y-108339668D03*
X204331990Y-108339668D03*
X202831990Y-108339668D03*
X170930990Y-108339668D03*
X169430990Y-108339668D03*
D13*
X268412990Y-134009668D03*
X266512990Y-134009668D03*
X267462990Y-136009668D03*
X235011990Y-134009668D03*
X233111990Y-134009668D03*
X234061990Y-136009668D03*
X201610990Y-134009668D03*
X199710990Y-134009668D03*
X200660990Y-136009668D03*
X168209990Y-134009668D03*
X166309990Y-134009668D03*
X167259990Y-136009668D03*
X271592990Y-129024668D03*
X273492990Y-129024668D03*
X272542990Y-127024668D03*
X238191990Y-129024668D03*
X240091990Y-129024668D03*
X239141990Y-127024668D03*
X204790990Y-129024668D03*
X206690990Y-129024668D03*
X205740990Y-127024668D03*
X171389990Y-129024668D03*
X173289990Y-129024668D03*
X172339990Y-127024668D03*
D17*
X261747990Y-138730668D03*
X261747990Y-137130668D03*
X228346990Y-138730668D03*
X228346990Y-137130668D03*
X194945990Y-138730668D03*
X194945990Y-137130668D03*
X161544990Y-138730668D03*
X161544990Y-137130668D03*
D16*
X268097990Y-114147668D03*
X266827990Y-114147668D03*
X265557990Y-114147668D03*
X264287990Y-114147668D03*
X264287990Y-121547668D03*
X265557990Y-121547668D03*
X266827990Y-121547668D03*
X268097990Y-121547668D03*
X234696990Y-114147668D03*
X233426990Y-114147668D03*
X232156990Y-114147668D03*
X230886990Y-114147668D03*
X230886990Y-121547668D03*
X232156990Y-121547668D03*
X233426990Y-121547668D03*
X234696990Y-121547668D03*
X201295990Y-114147668D03*
X200025990Y-114147668D03*
X198755990Y-114147668D03*
X197485990Y-114147668D03*
X197485990Y-121547668D03*
X198755990Y-121547668D03*
X200025990Y-121547668D03*
X201295990Y-121547668D03*
X167894990Y-114147668D03*
X166624990Y-114147668D03*
X165354990Y-114147668D03*
X164084990Y-114147668D03*
X164084990Y-121547668D03*
X165354990Y-121547668D03*
X166624990Y-121547668D03*
X167894990Y-121547668D03*
D15*
X262001990Y-118102668D03*
X262001990Y-116102668D03*
X228600990Y-118102668D03*
X228600990Y-116102668D03*
X195199990Y-118102668D03*
X195199990Y-116102668D03*
X161798990Y-118102668D03*
X161798990Y-116102668D03*
D13*
X273492990Y-122960668D03*
X271592990Y-122960668D03*
X272542990Y-124960668D03*
X240091990Y-122960668D03*
X238191990Y-122960668D03*
X239141990Y-124960668D03*
X206690990Y-122960668D03*
X204790990Y-122960668D03*
X205740990Y-124960668D03*
X173289990Y-122960668D03*
X171389990Y-122960668D03*
X172339990Y-124960668D03*
D14*
X271562990Y-112360668D03*
X276062990Y-112360668D03*
X276062990Y-120320668D03*
X271562990Y-120320668D03*
X238161990Y-112360668D03*
X242661990Y-112360668D03*
X242661990Y-120320668D03*
X238161990Y-120320668D03*
X204760990Y-112360668D03*
X209260990Y-112360668D03*
X209260990Y-120320668D03*
X204760990Y-120320668D03*
X171359990Y-112360668D03*
X175859990Y-112360668D03*
X175859990Y-120320668D03*
X171359990Y-120320668D03*
X284516990Y-112360668D03*
X289016990Y-112360668D03*
X289016990Y-120320668D03*
X284516990Y-120320668D03*
X251115990Y-112360668D03*
X255615990Y-112360668D03*
X255615990Y-120320668D03*
X251115990Y-120320668D03*
X217714990Y-112360668D03*
X222214990Y-112360668D03*
X222214990Y-120320668D03*
X217714990Y-120320668D03*
X184313990Y-112360668D03*
X188813990Y-112360668D03*
X188813990Y-120320668D03*
X184313990Y-120320668D03*
X284516990Y-123790668D03*
X289016990Y-123790668D03*
X289016990Y-131750668D03*
X284516990Y-131750668D03*
X251115990Y-123790668D03*
X255615990Y-123790668D03*
X255615990Y-131750668D03*
X251115990Y-131750668D03*
X217714990Y-123790668D03*
X222214990Y-123790668D03*
X222214990Y-131750668D03*
X217714990Y-131750668D03*
X184313990Y-123790668D03*
X188813990Y-123790668D03*
X188813990Y-131750668D03*
X184313990Y-131750668D03*
D18*
X274320990Y-139442668D03*
X274320990Y-137942668D03*
X240919990Y-139442668D03*
X240919990Y-137942668D03*
X207518990Y-139442668D03*
X207518990Y-137942668D03*
X174117990Y-139442668D03*
X174117990Y-137942668D03*
D19*
X276830990Y-143137668D03*
X279430990Y-143137668D03*
X243429990Y-143137668D03*
X246029990Y-143137668D03*
X210028990Y-143137668D03*
X212628990Y-143137668D03*
X176627990Y-143137668D03*
X179227990Y-143137668D03*
D20*
X276618990Y-138692668D03*
X278118990Y-138692668D03*
X243217990Y-138692668D03*
X244717990Y-138692668D03*
X209816990Y-138692668D03*
X211316990Y-138692668D03*
X176415990Y-138692668D03*
X177915990Y-138692668D03*
D19*
X274163990Y-144788668D03*
X276763990Y-144788668D03*
X240762990Y-144788668D03*
X243362990Y-144788668D03*
X207361990Y-144788668D03*
X209961990Y-144788668D03*
X173960990Y-144788668D03*
X176560990Y-144788668D03*
D18*
X145162000Y-153923000D03*
X145162000Y-155423000D03*
D20*
X142864000Y-154673000D03*
X141364000Y-154673000D03*
D19*
X142652000Y-150228000D03*
X140052000Y-150228000D03*
X145319000Y-148577000D03*
X142719000Y-148577000D03*
D11*
X152413000Y-185026000D03*
X153913000Y-185026000D03*
D12*
X145484000Y-189217000D03*
X153984000Y-189217000D03*
D11*
X148349000Y-185026000D03*
X149849000Y-185026000D03*
D13*
X151070000Y-159356000D03*
X152970000Y-159356000D03*
X152020000Y-157356000D03*
D17*
X157735000Y-154635000D03*
X157735000Y-156235000D03*
D16*
X151385000Y-179218000D03*
X152655000Y-179218000D03*
X153925000Y-179218000D03*
X155195000Y-179218000D03*
X155195000Y-171818000D03*
X153925000Y-171818000D03*
X152655000Y-171818000D03*
X151385000Y-171818000D03*
D15*
X157481000Y-175263000D03*
X157481000Y-177263000D03*
D13*
X145990000Y-170405000D03*
X147890000Y-170405000D03*
X146940000Y-168405000D03*
D14*
X147920000Y-181005000D03*
X143420000Y-181005000D03*
X143420000Y-173045000D03*
X147920000Y-173045000D03*
X134966000Y-181005000D03*
X130466000Y-181005000D03*
X130466000Y-173045000D03*
X134966000Y-173045000D03*
X134966000Y-169575000D03*
X130466000Y-169575000D03*
X130466000Y-161615000D03*
X134966000Y-161615000D03*
D13*
X147890000Y-164341000D03*
X145990000Y-164341000D03*
X146940000Y-166341000D03*
D16*
X134493990Y-114147668D03*
X133223990Y-114147668D03*
X131953990Y-114147668D03*
X130683990Y-114147668D03*
X130683990Y-121547668D03*
X131953990Y-121547668D03*
X133223990Y-121547668D03*
X134493990Y-121547668D03*
D14*
X137958990Y-112360668D03*
X142458990Y-112360668D03*
X142458990Y-120320668D03*
X137958990Y-120320668D03*
X150912990Y-112360668D03*
X155412990Y-112360668D03*
X155412990Y-120320668D03*
X150912990Y-120320668D03*
X150912990Y-123790668D03*
X155412990Y-123790668D03*
X155412990Y-131750668D03*
X150912990Y-131750668D03*
D13*
X139888990Y-122960668D03*
X137988990Y-122960668D03*
X138938990Y-124960668D03*
X137988990Y-129024668D03*
X139888990Y-129024668D03*
X138938990Y-127024668D03*
D19*
X140559990Y-144788668D03*
X143159990Y-144788668D03*
X143226990Y-143137668D03*
X145826990Y-143137668D03*
D12*
X140394990Y-104148668D03*
X131894990Y-104148668D03*
D11*
X137529990Y-108339668D03*
X136029990Y-108339668D03*
X133465990Y-108339668D03*
X131965990Y-108339668D03*
D17*
X128143990Y-138730668D03*
X128143990Y-137130668D03*
D20*
X143014990Y-138692668D03*
X144514990Y-138692668D03*
D18*
X140716990Y-139442668D03*
X140716990Y-137942668D03*
D15*
X128397990Y-118102668D03*
X128397990Y-116102668D03*
D13*
X134808990Y-134009668D03*
X132908990Y-134009668D03*
X133858990Y-136009668D03*
M02*
