%TF.GenerationSoftware,KiCad,Pcbnew,8.0.7+dfsg-2*%
%TF.CreationDate,2024-12-30T00:21:48+01:00*%
%TF.ProjectId,strobe-torch,7374726f-6265-42d7-946f-7263682e6b69,1.1*%
%TF.SameCoordinates,Original*%
%TF.FileFunction,Drillmap*%
%TF.FilePolarity,Positive*%
%FSLAX45Y45*%
G04 Gerber Fmt 4.5, Leading zero omitted, Abs format (unit mm)*
G04 Created by KiCad (PCBNEW 8.0.7+dfsg-2) date 2024-12-30 00:21:48*
%MOMM*%
%LPD*%
G01*
G04 APERTURE LIST*
%ADD10C,0.100000*%
%ADD11C,0.200000*%
G04 APERTURE END LIST*
D10*
X14008100Y-6946900D02*
X14224000Y-6946900D01*
X14008100Y-6946900D02*
G75*
G02*
X13855700Y-7099300I-152400J0D01*
G01*
X14401800Y-6769100D02*
G75*
G02*
X14224000Y-6946900I-177800J0D01*
G01*
X15125700Y-7099300D02*
G75*
G02*
X15011400Y-6985000I0J114300D01*
G01*
X15011400Y-6769100D02*
X15011400Y-6985000D01*
X13855700Y-7099300D02*
X13030200Y-7099300D01*
X16370300Y-7099300D02*
X15125700Y-7099300D01*
X16370300Y-12700000D02*
X16370300Y-7099300D01*
X13030200Y-7099300D02*
X13030200Y-12700000D01*
X14401800Y-6769100D02*
X15011400Y-6769100D01*
X13030200Y-12700000D02*
X16370300Y-12700000D01*
D11*
X13285977Y-13016484D02*
X13285977Y-12816484D01*
X13285977Y-12816484D02*
X13333596Y-12816484D01*
X13333596Y-12816484D02*
X13362167Y-12826008D01*
X13362167Y-12826008D02*
X13381215Y-12845055D01*
X13381215Y-12845055D02*
X13390739Y-12864103D01*
X13390739Y-12864103D02*
X13400262Y-12902198D01*
X13400262Y-12902198D02*
X13400262Y-12930769D01*
X13400262Y-12930769D02*
X13390739Y-12968865D01*
X13390739Y-12968865D02*
X13381215Y-12987912D01*
X13381215Y-12987912D02*
X13362167Y-13006960D01*
X13362167Y-13006960D02*
X13333596Y-13016484D01*
X13333596Y-13016484D02*
X13285977Y-13016484D01*
X13485977Y-13016484D02*
X13485977Y-12883150D01*
X13485977Y-12921246D02*
X13495501Y-12902198D01*
X13495501Y-12902198D02*
X13505024Y-12892674D01*
X13505024Y-12892674D02*
X13524072Y-12883150D01*
X13524072Y-12883150D02*
X13543120Y-12883150D01*
X13609786Y-13016484D02*
X13609786Y-12883150D01*
X13609786Y-12816484D02*
X13600262Y-12826008D01*
X13600262Y-12826008D02*
X13609786Y-12835531D01*
X13609786Y-12835531D02*
X13619310Y-12826008D01*
X13619310Y-12826008D02*
X13609786Y-12816484D01*
X13609786Y-12816484D02*
X13609786Y-12835531D01*
X13733596Y-13016484D02*
X13714548Y-13006960D01*
X13714548Y-13006960D02*
X13705024Y-12987912D01*
X13705024Y-12987912D02*
X13705024Y-12816484D01*
X13838358Y-13016484D02*
X13819310Y-13006960D01*
X13819310Y-13006960D02*
X13809786Y-12987912D01*
X13809786Y-12987912D02*
X13809786Y-12816484D01*
X14066929Y-13016484D02*
X14066929Y-12816484D01*
X14066929Y-12816484D02*
X14133596Y-12959341D01*
X14133596Y-12959341D02*
X14200262Y-12816484D01*
X14200262Y-12816484D02*
X14200262Y-13016484D01*
X14381215Y-13016484D02*
X14381215Y-12911722D01*
X14381215Y-12911722D02*
X14371691Y-12892674D01*
X14371691Y-12892674D02*
X14352643Y-12883150D01*
X14352643Y-12883150D02*
X14314548Y-12883150D01*
X14314548Y-12883150D02*
X14295501Y-12892674D01*
X14381215Y-13006960D02*
X14362167Y-13016484D01*
X14362167Y-13016484D02*
X14314548Y-13016484D01*
X14314548Y-13016484D02*
X14295501Y-13006960D01*
X14295501Y-13006960D02*
X14285977Y-12987912D01*
X14285977Y-12987912D02*
X14285977Y-12968865D01*
X14285977Y-12968865D02*
X14295501Y-12949817D01*
X14295501Y-12949817D02*
X14314548Y-12940293D01*
X14314548Y-12940293D02*
X14362167Y-12940293D01*
X14362167Y-12940293D02*
X14381215Y-12930769D01*
X14476453Y-12883150D02*
X14476453Y-13083150D01*
X14476453Y-12892674D02*
X14495501Y-12883150D01*
X14495501Y-12883150D02*
X14533596Y-12883150D01*
X14533596Y-12883150D02*
X14552643Y-12892674D01*
X14552643Y-12892674D02*
X14562167Y-12902198D01*
X14562167Y-12902198D02*
X14571691Y-12921246D01*
X14571691Y-12921246D02*
X14571691Y-12978388D01*
X14571691Y-12978388D02*
X14562167Y-12997436D01*
X14562167Y-12997436D02*
X14552643Y-13006960D01*
X14552643Y-13006960D02*
X14533596Y-13016484D01*
X14533596Y-13016484D02*
X14495501Y-13016484D01*
X14495501Y-13016484D02*
X14476453Y-13006960D01*
X14657405Y-12997436D02*
X14666929Y-13006960D01*
X14666929Y-13006960D02*
X14657405Y-13016484D01*
X14657405Y-13016484D02*
X14647882Y-13006960D01*
X14647882Y-13006960D02*
X14657405Y-12997436D01*
X14657405Y-12997436D02*
X14657405Y-13016484D01*
X14657405Y-12892674D02*
X14666929Y-12902198D01*
X14666929Y-12902198D02*
X14657405Y-12911722D01*
X14657405Y-12911722D02*
X14647882Y-12902198D01*
X14647882Y-12902198D02*
X14657405Y-12892674D01*
X14657405Y-12892674D02*
X14657405Y-12911722D01*
M02*
