%FSLAX45Y45*%
G04 Gerber Fmt 4.5, Leading zero omitted, Abs format (unit mm)*
G04 Created by KiCad (PCBNEW 4.0.7+dfsg1-1) date Wed Apr 18 03:16:02 2018*
%MOMM*%
%LPD*%
G01*
G04 APERTURE LIST*
%ADD10C,0.127000*%
%ADD11C,0.100000*%
%ADD12C,0.200000*%
%ADD13C,0.300000*%
G04 APERTURE END LIST*
D10*
D11*
X14008100Y-6946900D02*
X14224000Y-6946900D01*
X13855700Y-7099300D02*
G75*
G03X14008100Y-6946900I0J152400D01*
G01*
X14224000Y-6946900D02*
G75*
G03X14401800Y-6769100I0J177800D01*
G01*
X15125700Y-7099300D02*
G75*
G02X15011400Y-6985000I0J114300D01*
G01*
X15011400Y-6769100D02*
X15011400Y-6985000D01*
X13855700Y-7099300D02*
X13030200Y-7099300D01*
X16370300Y-7099300D02*
X15125700Y-7099300D01*
X16370300Y-12636500D02*
X16370300Y-7099300D01*
X13030200Y-7099300D02*
X13030200Y-12636500D01*
X14401800Y-6769100D02*
X15011400Y-6769100D01*
X13030200Y-12636500D02*
X16370300Y-12636500D01*
D12*
X13983500Y-8611400D02*
X14083500Y-8711400D01*
X14083500Y-8611400D02*
X13983500Y-8711400D01*
X15659900Y-11456200D02*
X15759900Y-11556200D01*
X15759900Y-11456200D02*
X15659900Y-11556200D01*
X13351900Y-12204700D02*
G75*
G03X13351900Y-12204700I-55000J0D01*
G01*
X13351900Y-12458700D02*
G75*
G03X13351900Y-12458700I-55000J0D01*
G01*
X16145900Y-12204700D02*
G75*
G03X16145900Y-12204700I-55000J0D01*
G01*
X16145900Y-12458700D02*
G75*
G03X16145900Y-12458700I-55000J0D01*
G01*
D13*
X13296628Y-13107214D02*
X13296628Y-12807214D01*
X13368057Y-12807214D01*
X13410914Y-12821500D01*
X13439486Y-12850071D01*
X13453771Y-12878643D01*
X13468057Y-12935786D01*
X13468057Y-12978643D01*
X13453771Y-13035786D01*
X13439486Y-13064357D01*
X13410914Y-13092929D01*
X13368057Y-13107214D01*
X13296628Y-13107214D01*
X13596628Y-13107214D02*
X13596628Y-12907214D01*
X13596628Y-12964357D02*
X13610914Y-12935786D01*
X13625200Y-12921500D01*
X13653771Y-12907214D01*
X13682343Y-12907214D01*
X13782343Y-13107214D02*
X13782343Y-12907214D01*
X13782343Y-12807214D02*
X13768057Y-12821500D01*
X13782343Y-12835786D01*
X13796628Y-12821500D01*
X13782343Y-12807214D01*
X13782343Y-12835786D01*
X13968057Y-13107214D02*
X13939486Y-13092929D01*
X13925200Y-13064357D01*
X13925200Y-12807214D01*
X14125200Y-13107214D02*
X14096628Y-13092929D01*
X14082343Y-13064357D01*
X14082343Y-12807214D01*
X14468057Y-13107214D02*
X14468057Y-12807214D01*
X14568057Y-13021500D01*
X14668057Y-12807214D01*
X14668057Y-13107214D01*
X14939486Y-13107214D02*
X14939486Y-12950071D01*
X14925200Y-12921500D01*
X14896628Y-12907214D01*
X14839486Y-12907214D01*
X14810914Y-12921500D01*
X14939486Y-13092929D02*
X14910914Y-13107214D01*
X14839486Y-13107214D01*
X14810914Y-13092929D01*
X14796628Y-13064357D01*
X14796628Y-13035786D01*
X14810914Y-13007214D01*
X14839486Y-12992929D01*
X14910914Y-12992929D01*
X14939486Y-12978643D01*
X15082343Y-12907214D02*
X15082343Y-13207214D01*
X15082343Y-12921500D02*
X15110914Y-12907214D01*
X15168057Y-12907214D01*
X15196628Y-12921500D01*
X15210914Y-12935786D01*
X15225200Y-12964357D01*
X15225200Y-13050071D01*
X15210914Y-13078643D01*
X15196628Y-13092929D01*
X15168057Y-13107214D01*
X15110914Y-13107214D01*
X15082343Y-13092929D01*
X15353771Y-13078643D02*
X15368057Y-13092929D01*
X15353771Y-13107214D01*
X15339486Y-13092929D01*
X15353771Y-13078643D01*
X15353771Y-13107214D01*
X15353771Y-12921500D02*
X15368057Y-12935786D01*
X15353771Y-12950071D01*
X15339486Y-12935786D01*
X15353771Y-12921500D01*
X15353771Y-12950071D01*
X12925200Y-13551500D02*
X13025200Y-13651500D01*
X13025200Y-13551500D02*
X12925200Y-13651500D01*
X13453771Y-13737214D02*
X13282343Y-13737214D01*
X13368057Y-13737214D02*
X13368057Y-13437214D01*
X13339486Y-13480071D01*
X13310914Y-13508643D01*
X13282343Y-13522929D01*
X13582343Y-13708643D02*
X13596628Y-13722929D01*
X13582343Y-13737214D01*
X13568057Y-13722929D01*
X13582343Y-13708643D01*
X13582343Y-13737214D01*
X13782343Y-13437214D02*
X13810914Y-13437214D01*
X13839486Y-13451500D01*
X13853771Y-13465786D01*
X13868057Y-13494357D01*
X13882343Y-13551500D01*
X13882343Y-13622929D01*
X13868057Y-13680071D01*
X13853771Y-13708643D01*
X13839486Y-13722929D01*
X13810914Y-13737214D01*
X13782343Y-13737214D01*
X13753771Y-13722929D01*
X13739486Y-13708643D01*
X13725200Y-13680071D01*
X13710914Y-13622929D01*
X13710914Y-13551500D01*
X13725200Y-13494357D01*
X13739486Y-13465786D01*
X13753771Y-13451500D01*
X13782343Y-13437214D01*
X14068057Y-13437214D02*
X14096628Y-13437214D01*
X14125200Y-13451500D01*
X14139486Y-13465786D01*
X14153771Y-13494357D01*
X14168057Y-13551500D01*
X14168057Y-13622929D01*
X14153771Y-13680071D01*
X14139486Y-13708643D01*
X14125200Y-13722929D01*
X14096628Y-13737214D01*
X14068057Y-13737214D01*
X14039486Y-13722929D01*
X14025200Y-13708643D01*
X14010914Y-13680071D01*
X13996628Y-13622929D01*
X13996628Y-13551500D01*
X14010914Y-13494357D01*
X14025200Y-13465786D01*
X14039486Y-13451500D01*
X14068057Y-13437214D01*
X14296628Y-13737214D02*
X14296628Y-13537214D01*
X14296628Y-13565786D02*
X14310914Y-13551500D01*
X14339486Y-13537214D01*
X14382343Y-13537214D01*
X14410914Y-13551500D01*
X14425200Y-13580071D01*
X14425200Y-13737214D01*
X14425200Y-13580071D02*
X14439486Y-13551500D01*
X14468057Y-13537214D01*
X14510914Y-13537214D01*
X14539486Y-13551500D01*
X14553771Y-13580071D01*
X14553771Y-13737214D01*
X14696628Y-13737214D02*
X14696628Y-13537214D01*
X14696628Y-13565786D02*
X14710914Y-13551500D01*
X14739486Y-13537214D01*
X14782343Y-13537214D01*
X14810914Y-13551500D01*
X14825200Y-13580071D01*
X14825200Y-13737214D01*
X14825200Y-13580071D02*
X14839486Y-13551500D01*
X14868057Y-13537214D01*
X14910914Y-13537214D01*
X14939486Y-13551500D01*
X14953771Y-13580071D01*
X14953771Y-13737214D01*
X15539486Y-13422929D02*
X15282343Y-13808643D01*
X15925200Y-13437214D02*
X15953771Y-13437214D01*
X15982343Y-13451500D01*
X15996628Y-13465786D01*
X16010914Y-13494357D01*
X16025200Y-13551500D01*
X16025200Y-13622929D01*
X16010914Y-13680071D01*
X15996628Y-13708643D01*
X15982343Y-13722929D01*
X15953771Y-13737214D01*
X15925200Y-13737214D01*
X15896628Y-13722929D01*
X15882343Y-13708643D01*
X15868057Y-13680071D01*
X15853771Y-13622929D01*
X15853771Y-13551500D01*
X15868057Y-13494357D01*
X15882343Y-13465786D01*
X15896628Y-13451500D01*
X15925200Y-13437214D01*
X16153771Y-13708643D02*
X16168057Y-13722929D01*
X16153771Y-13737214D01*
X16139486Y-13722929D01*
X16153771Y-13708643D01*
X16153771Y-13737214D01*
X16353771Y-13437214D02*
X16382343Y-13437214D01*
X16410914Y-13451500D01*
X16425200Y-13465786D01*
X16439485Y-13494357D01*
X16453771Y-13551500D01*
X16453771Y-13622929D01*
X16439485Y-13680071D01*
X16425200Y-13708643D01*
X16410914Y-13722929D01*
X16382343Y-13737214D01*
X16353771Y-13737214D01*
X16325200Y-13722929D01*
X16310914Y-13708643D01*
X16296628Y-13680071D01*
X16282343Y-13622929D01*
X16282343Y-13551500D01*
X16296628Y-13494357D01*
X16310914Y-13465786D01*
X16325200Y-13451500D01*
X16353771Y-13437214D01*
X16553771Y-13437214D02*
X16739485Y-13437214D01*
X16639485Y-13551500D01*
X16682343Y-13551500D01*
X16710914Y-13565786D01*
X16725200Y-13580071D01*
X16739485Y-13608643D01*
X16739485Y-13680071D01*
X16725200Y-13708643D01*
X16710914Y-13722929D01*
X16682343Y-13737214D01*
X16596628Y-13737214D01*
X16568057Y-13722929D01*
X16553771Y-13708643D01*
X16882343Y-13737214D02*
X16939486Y-13737214D01*
X16968057Y-13722929D01*
X16982343Y-13708643D01*
X17010914Y-13665786D01*
X17025200Y-13608643D01*
X17025200Y-13494357D01*
X17010914Y-13465786D01*
X16996628Y-13451500D01*
X16968057Y-13437214D01*
X16910914Y-13437214D01*
X16882343Y-13451500D01*
X16868057Y-13465786D01*
X16853771Y-13494357D01*
X16853771Y-13565786D01*
X16868057Y-13594357D01*
X16882343Y-13608643D01*
X16910914Y-13622929D01*
X16968057Y-13622929D01*
X16996628Y-13608643D01*
X17010914Y-13594357D01*
X17025200Y-13565786D01*
X17139486Y-13437214D02*
X17139486Y-13494357D01*
X17253771Y-13437214D02*
X17253771Y-13494357D01*
X17696628Y-13851500D02*
X17682343Y-13837214D01*
X17653771Y-13794357D01*
X17639486Y-13765786D01*
X17625200Y-13722929D01*
X17610914Y-13651500D01*
X17610914Y-13594357D01*
X17625200Y-13522929D01*
X17639486Y-13480071D01*
X17653771Y-13451500D01*
X17682343Y-13408643D01*
X17696628Y-13394357D01*
X17796628Y-13465786D02*
X17810914Y-13451500D01*
X17839486Y-13437214D01*
X17910914Y-13437214D01*
X17939486Y-13451500D01*
X17953771Y-13465786D01*
X17968057Y-13494357D01*
X17968057Y-13522929D01*
X17953771Y-13565786D01*
X17782343Y-13737214D01*
X17968057Y-13737214D01*
X18325200Y-13737214D02*
X18325200Y-13437214D01*
X18453771Y-13737214D02*
X18453771Y-13580071D01*
X18439486Y-13551500D01*
X18410914Y-13537214D01*
X18368057Y-13537214D01*
X18339486Y-13551500D01*
X18325200Y-13565786D01*
X18639486Y-13737214D02*
X18610914Y-13722929D01*
X18596628Y-13708643D01*
X18582343Y-13680071D01*
X18582343Y-13594357D01*
X18596628Y-13565786D01*
X18610914Y-13551500D01*
X18639486Y-13537214D01*
X18682343Y-13537214D01*
X18710914Y-13551500D01*
X18725200Y-13565786D01*
X18739486Y-13594357D01*
X18739486Y-13680071D01*
X18725200Y-13708643D01*
X18710914Y-13722929D01*
X18682343Y-13737214D01*
X18639486Y-13737214D01*
X18910914Y-13737214D02*
X18882343Y-13722929D01*
X18868057Y-13694357D01*
X18868057Y-13437214D01*
X19139486Y-13722929D02*
X19110914Y-13737214D01*
X19053771Y-13737214D01*
X19025200Y-13722929D01*
X19010914Y-13694357D01*
X19010914Y-13580071D01*
X19025200Y-13551500D01*
X19053771Y-13537214D01*
X19110914Y-13537214D01*
X19139486Y-13551500D01*
X19153771Y-13580071D01*
X19153771Y-13608643D01*
X19010914Y-13637214D01*
X19268057Y-13722929D02*
X19296629Y-13737214D01*
X19353771Y-13737214D01*
X19382343Y-13722929D01*
X19396629Y-13694357D01*
X19396629Y-13680071D01*
X19382343Y-13651500D01*
X19353771Y-13637214D01*
X19310914Y-13637214D01*
X19282343Y-13622929D01*
X19268057Y-13594357D01*
X19268057Y-13580071D01*
X19282343Y-13551500D01*
X19310914Y-13537214D01*
X19353771Y-13537214D01*
X19382343Y-13551500D01*
X19496628Y-13851500D02*
X19510914Y-13837214D01*
X19539486Y-13794357D01*
X19553771Y-13765786D01*
X19568057Y-13722929D01*
X19582343Y-13651500D01*
X19582343Y-13594357D01*
X19568057Y-13522929D01*
X19553771Y-13480071D01*
X19539486Y-13451500D01*
X19510914Y-13408643D01*
X19496628Y-13394357D01*
X13025200Y-13997500D02*
G75*
G03X13025200Y-13997500I-55000J0D01*
G01*
X13453771Y-14133214D02*
X13282343Y-14133214D01*
X13368057Y-14133214D02*
X13368057Y-13833214D01*
X13339486Y-13876071D01*
X13310914Y-13904643D01*
X13282343Y-13918929D01*
X13582343Y-14104643D02*
X13596628Y-14118929D01*
X13582343Y-14133214D01*
X13568057Y-14118929D01*
X13582343Y-14104643D01*
X13582343Y-14133214D01*
X13882343Y-14133214D02*
X13710914Y-14133214D01*
X13796628Y-14133214D02*
X13796628Y-13833214D01*
X13768057Y-13876071D01*
X13739486Y-13904643D01*
X13710914Y-13918929D01*
X14068057Y-13833214D02*
X14096628Y-13833214D01*
X14125200Y-13847500D01*
X14139486Y-13861786D01*
X14153771Y-13890357D01*
X14168057Y-13947500D01*
X14168057Y-14018929D01*
X14153771Y-14076071D01*
X14139486Y-14104643D01*
X14125200Y-14118929D01*
X14096628Y-14133214D01*
X14068057Y-14133214D01*
X14039486Y-14118929D01*
X14025200Y-14104643D01*
X14010914Y-14076071D01*
X13996628Y-14018929D01*
X13996628Y-13947500D01*
X14010914Y-13890357D01*
X14025200Y-13861786D01*
X14039486Y-13847500D01*
X14068057Y-13833214D01*
X14296628Y-14133214D02*
X14296628Y-13933214D01*
X14296628Y-13961786D02*
X14310914Y-13947500D01*
X14339486Y-13933214D01*
X14382343Y-13933214D01*
X14410914Y-13947500D01*
X14425200Y-13976071D01*
X14425200Y-14133214D01*
X14425200Y-13976071D02*
X14439486Y-13947500D01*
X14468057Y-13933214D01*
X14510914Y-13933214D01*
X14539486Y-13947500D01*
X14553771Y-13976071D01*
X14553771Y-14133214D01*
X14696628Y-14133214D02*
X14696628Y-13933214D01*
X14696628Y-13961786D02*
X14710914Y-13947500D01*
X14739486Y-13933214D01*
X14782343Y-13933214D01*
X14810914Y-13947500D01*
X14825200Y-13976071D01*
X14825200Y-14133214D01*
X14825200Y-13976071D02*
X14839486Y-13947500D01*
X14868057Y-13933214D01*
X14910914Y-13933214D01*
X14939486Y-13947500D01*
X14953771Y-13976071D01*
X14953771Y-14133214D01*
X15539486Y-13818929D02*
X15282343Y-14204643D01*
X15925200Y-13833214D02*
X15953771Y-13833214D01*
X15982343Y-13847500D01*
X15996628Y-13861786D01*
X16010914Y-13890357D01*
X16025200Y-13947500D01*
X16025200Y-14018929D01*
X16010914Y-14076071D01*
X15996628Y-14104643D01*
X15982343Y-14118929D01*
X15953771Y-14133214D01*
X15925200Y-14133214D01*
X15896628Y-14118929D01*
X15882343Y-14104643D01*
X15868057Y-14076071D01*
X15853771Y-14018929D01*
X15853771Y-13947500D01*
X15868057Y-13890357D01*
X15882343Y-13861786D01*
X15896628Y-13847500D01*
X15925200Y-13833214D01*
X16153771Y-14104643D02*
X16168057Y-14118929D01*
X16153771Y-14133214D01*
X16139486Y-14118929D01*
X16153771Y-14104643D01*
X16153771Y-14133214D01*
X16353771Y-13833214D02*
X16382343Y-13833214D01*
X16410914Y-13847500D01*
X16425200Y-13861786D01*
X16439485Y-13890357D01*
X16453771Y-13947500D01*
X16453771Y-14018929D01*
X16439485Y-14076071D01*
X16425200Y-14104643D01*
X16410914Y-14118929D01*
X16382343Y-14133214D01*
X16353771Y-14133214D01*
X16325200Y-14118929D01*
X16310914Y-14104643D01*
X16296628Y-14076071D01*
X16282343Y-14018929D01*
X16282343Y-13947500D01*
X16296628Y-13890357D01*
X16310914Y-13861786D01*
X16325200Y-13847500D01*
X16353771Y-13833214D01*
X16710914Y-13933214D02*
X16710914Y-14133214D01*
X16639485Y-13818929D02*
X16568057Y-14033214D01*
X16753771Y-14033214D01*
X16839486Y-13833214D02*
X17025200Y-13833214D01*
X16925200Y-13947500D01*
X16968057Y-13947500D01*
X16996628Y-13961786D01*
X17010914Y-13976071D01*
X17025200Y-14004643D01*
X17025200Y-14076071D01*
X17010914Y-14104643D01*
X16996628Y-14118929D01*
X16968057Y-14133214D01*
X16882343Y-14133214D01*
X16853771Y-14118929D01*
X16839486Y-14104643D01*
X17139486Y-13833214D02*
X17139486Y-13890357D01*
X17253771Y-13833214D02*
X17253771Y-13890357D01*
X17696628Y-14247500D02*
X17682343Y-14233214D01*
X17653771Y-14190357D01*
X17639486Y-14161786D01*
X17625200Y-14118929D01*
X17610914Y-14047500D01*
X17610914Y-13990357D01*
X17625200Y-13918929D01*
X17639486Y-13876071D01*
X17653771Y-13847500D01*
X17682343Y-13804643D01*
X17696628Y-13790357D01*
X17939486Y-13933214D02*
X17939486Y-14133214D01*
X17868057Y-13818929D02*
X17796628Y-14033214D01*
X17982343Y-14033214D01*
X18325200Y-14133214D02*
X18325200Y-13833214D01*
X18453771Y-14133214D02*
X18453771Y-13976071D01*
X18439486Y-13947500D01*
X18410914Y-13933214D01*
X18368057Y-13933214D01*
X18339486Y-13947500D01*
X18325200Y-13961786D01*
X18639486Y-14133214D02*
X18610914Y-14118929D01*
X18596628Y-14104643D01*
X18582343Y-14076071D01*
X18582343Y-13990357D01*
X18596628Y-13961786D01*
X18610914Y-13947500D01*
X18639486Y-13933214D01*
X18682343Y-13933214D01*
X18710914Y-13947500D01*
X18725200Y-13961786D01*
X18739486Y-13990357D01*
X18739486Y-14076071D01*
X18725200Y-14104643D01*
X18710914Y-14118929D01*
X18682343Y-14133214D01*
X18639486Y-14133214D01*
X18910914Y-14133214D02*
X18882343Y-14118929D01*
X18868057Y-14090357D01*
X18868057Y-13833214D01*
X19139486Y-14118929D02*
X19110914Y-14133214D01*
X19053771Y-14133214D01*
X19025200Y-14118929D01*
X19010914Y-14090357D01*
X19010914Y-13976071D01*
X19025200Y-13947500D01*
X19053771Y-13933214D01*
X19110914Y-13933214D01*
X19139486Y-13947500D01*
X19153771Y-13976071D01*
X19153771Y-14004643D01*
X19010914Y-14033214D01*
X19268057Y-14118929D02*
X19296629Y-14133214D01*
X19353771Y-14133214D01*
X19382343Y-14118929D01*
X19396629Y-14090357D01*
X19396629Y-14076071D01*
X19382343Y-14047500D01*
X19353771Y-14033214D01*
X19310914Y-14033214D01*
X19282343Y-14018929D01*
X19268057Y-13990357D01*
X19268057Y-13976071D01*
X19282343Y-13947500D01*
X19310914Y-13933214D01*
X19353771Y-13933214D01*
X19382343Y-13947500D01*
X19496628Y-14247500D02*
X19510914Y-14233214D01*
X19539486Y-14190357D01*
X19553771Y-14161786D01*
X19568057Y-14118929D01*
X19582343Y-14047500D01*
X19582343Y-13990357D01*
X19568057Y-13918929D01*
X19553771Y-13876071D01*
X19539486Y-13847500D01*
X19510914Y-13804643D01*
X19496628Y-13790357D01*
M02*
