%TF.GenerationSoftware,KiCad,Pcbnew,8.0.7+dfsg-2*%
%TF.CreationDate,2024-12-30T00:21:48+01:00*%
%TF.ProjectId,strobe-torch,7374726f-6265-42d7-946f-7263682e6b69,1.1*%
%TF.SameCoordinates,Original*%
%TF.FileFunction,Drillmap*%
%TF.FilePolarity,Positive*%
%FSLAX45Y45*%
G04 Gerber Fmt 4.5, Leading zero omitted, Abs format (unit mm)*
G04 Created by KiCad (PCBNEW 8.0.7+dfsg-2) date 2024-12-30 00:21:48*
%MOMM*%
%LPD*%
G01*
G04 APERTURE LIST*
%ADD10C,0.100000*%
%ADD11C,0.200000*%
%ADD12C,0.110000*%
G04 APERTURE END LIST*
D10*
X14008100Y-6946900D02*
X14224000Y-6946900D01*
X14008100Y-6946900D02*
G75*
G02*
X13855700Y-7099300I-152400J0D01*
G01*
X14401800Y-6769100D02*
G75*
G02*
X14224000Y-6946900I-177800J0D01*
G01*
X15125700Y-7099300D02*
G75*
G02*
X15011400Y-6985000I0J114300D01*
G01*
X15011400Y-6769100D02*
X15011400Y-6985000D01*
X13855700Y-7099300D02*
X13030200Y-7099300D01*
X16370300Y-7099300D02*
X15125700Y-7099300D01*
X16370300Y-12700000D02*
X16370300Y-7099300D01*
X13030200Y-7099300D02*
X13030200Y-12700000D01*
X14401800Y-6769100D02*
X15011400Y-6769100D01*
X13030200Y-12700000D02*
X16370300Y-12700000D01*
D11*
D10*
X13983500Y-8611400D02*
X14083500Y-8711400D01*
X14083500Y-8611400D02*
X13983500Y-8711400D01*
X15659900Y-11456200D02*
X15759900Y-11556200D01*
X15759900Y-11456200D02*
X15659900Y-11556200D01*
D12*
X13351900Y-12204700D02*
G75*
G02*
X13241900Y-12204700I-55000J0D01*
G01*
X13241900Y-12204700D02*
G75*
G02*
X13351900Y-12204700I55000J0D01*
G01*
X13351900Y-12458700D02*
G75*
G02*
X13241900Y-12458700I-55000J0D01*
G01*
X13241900Y-12458700D02*
G75*
G02*
X13351900Y-12458700I55000J0D01*
G01*
X16145900Y-12204700D02*
G75*
G02*
X16035900Y-12204700I-55000J0D01*
G01*
X16035900Y-12204700D02*
G75*
G02*
X16145900Y-12204700I55000J0D01*
G01*
X16145900Y-12458700D02*
G75*
G02*
X16035900Y-12458700I-55000J0D01*
G01*
X16035900Y-12458700D02*
G75*
G02*
X16145900Y-12458700I55000J0D01*
G01*
D11*
X13285977Y-13016484D02*
X13285977Y-12816484D01*
X13285977Y-12816484D02*
X13333596Y-12816484D01*
X13333596Y-12816484D02*
X13362167Y-12826008D01*
X13362167Y-12826008D02*
X13381215Y-12845055D01*
X13381215Y-12845055D02*
X13390739Y-12864103D01*
X13390739Y-12864103D02*
X13400262Y-12902198D01*
X13400262Y-12902198D02*
X13400262Y-12930769D01*
X13400262Y-12930769D02*
X13390739Y-12968865D01*
X13390739Y-12968865D02*
X13381215Y-12987912D01*
X13381215Y-12987912D02*
X13362167Y-13006960D01*
X13362167Y-13006960D02*
X13333596Y-13016484D01*
X13333596Y-13016484D02*
X13285977Y-13016484D01*
X13485977Y-13016484D02*
X13485977Y-12883150D01*
X13485977Y-12921246D02*
X13495501Y-12902198D01*
X13495501Y-12902198D02*
X13505024Y-12892674D01*
X13505024Y-12892674D02*
X13524072Y-12883150D01*
X13524072Y-12883150D02*
X13543120Y-12883150D01*
X13609786Y-13016484D02*
X13609786Y-12883150D01*
X13609786Y-12816484D02*
X13600262Y-12826008D01*
X13600262Y-12826008D02*
X13609786Y-12835531D01*
X13609786Y-12835531D02*
X13619310Y-12826008D01*
X13619310Y-12826008D02*
X13609786Y-12816484D01*
X13609786Y-12816484D02*
X13609786Y-12835531D01*
X13733596Y-13016484D02*
X13714548Y-13006960D01*
X13714548Y-13006960D02*
X13705024Y-12987912D01*
X13705024Y-12987912D02*
X13705024Y-12816484D01*
X13838358Y-13016484D02*
X13819310Y-13006960D01*
X13819310Y-13006960D02*
X13809786Y-12987912D01*
X13809786Y-12987912D02*
X13809786Y-12816484D01*
X14066929Y-13016484D02*
X14066929Y-12816484D01*
X14066929Y-12816484D02*
X14133596Y-12959341D01*
X14133596Y-12959341D02*
X14200262Y-12816484D01*
X14200262Y-12816484D02*
X14200262Y-13016484D01*
X14381215Y-13016484D02*
X14381215Y-12911722D01*
X14381215Y-12911722D02*
X14371691Y-12892674D01*
X14371691Y-12892674D02*
X14352643Y-12883150D01*
X14352643Y-12883150D02*
X14314548Y-12883150D01*
X14314548Y-12883150D02*
X14295501Y-12892674D01*
X14381215Y-13006960D02*
X14362167Y-13016484D01*
X14362167Y-13016484D02*
X14314548Y-13016484D01*
X14314548Y-13016484D02*
X14295501Y-13006960D01*
X14295501Y-13006960D02*
X14285977Y-12987912D01*
X14285977Y-12987912D02*
X14285977Y-12968865D01*
X14285977Y-12968865D02*
X14295501Y-12949817D01*
X14295501Y-12949817D02*
X14314548Y-12940293D01*
X14314548Y-12940293D02*
X14362167Y-12940293D01*
X14362167Y-12940293D02*
X14381215Y-12930769D01*
X14476453Y-12883150D02*
X14476453Y-13083150D01*
X14476453Y-12892674D02*
X14495501Y-12883150D01*
X14495501Y-12883150D02*
X14533596Y-12883150D01*
X14533596Y-12883150D02*
X14552643Y-12892674D01*
X14552643Y-12892674D02*
X14562167Y-12902198D01*
X14562167Y-12902198D02*
X14571691Y-12921246D01*
X14571691Y-12921246D02*
X14571691Y-12978388D01*
X14571691Y-12978388D02*
X14562167Y-12997436D01*
X14562167Y-12997436D02*
X14552643Y-13006960D01*
X14552643Y-13006960D02*
X14533596Y-13016484D01*
X14533596Y-13016484D02*
X14495501Y-13016484D01*
X14495501Y-13016484D02*
X14476453Y-13006960D01*
X14657405Y-12997436D02*
X14666929Y-13006960D01*
X14666929Y-13006960D02*
X14657405Y-13016484D01*
X14657405Y-13016484D02*
X14647882Y-13006960D01*
X14647882Y-13006960D02*
X14657405Y-12997436D01*
X14657405Y-12997436D02*
X14657405Y-13016484D01*
X14657405Y-12892674D02*
X14666929Y-12902198D01*
X14666929Y-12902198D02*
X14657405Y-12911722D01*
X14657405Y-12911722D02*
X14647882Y-12902198D01*
X14647882Y-12902198D02*
X14657405Y-12892674D01*
X14657405Y-12892674D02*
X14657405Y-12911722D01*
D10*
X12925200Y-13295000D02*
X13025200Y-13395000D01*
X13025200Y-13295000D02*
X12925200Y-13395000D01*
D11*
X13390739Y-13436484D02*
X13276453Y-13436484D01*
X13333596Y-13436484D02*
X13333596Y-13236484D01*
X13333596Y-13236484D02*
X13314548Y-13265055D01*
X13314548Y-13265055D02*
X13295501Y-13284103D01*
X13295501Y-13284103D02*
X13276453Y-13293627D01*
X13476453Y-13417436D02*
X13485977Y-13426960D01*
X13485977Y-13426960D02*
X13476453Y-13436484D01*
X13476453Y-13436484D02*
X13466929Y-13426960D01*
X13466929Y-13426960D02*
X13476453Y-13417436D01*
X13476453Y-13417436D02*
X13476453Y-13436484D01*
X13609786Y-13236484D02*
X13628834Y-13236484D01*
X13628834Y-13236484D02*
X13647882Y-13246008D01*
X13647882Y-13246008D02*
X13657405Y-13255531D01*
X13657405Y-13255531D02*
X13666929Y-13274579D01*
X13666929Y-13274579D02*
X13676453Y-13312674D01*
X13676453Y-13312674D02*
X13676453Y-13360293D01*
X13676453Y-13360293D02*
X13666929Y-13398388D01*
X13666929Y-13398388D02*
X13657405Y-13417436D01*
X13657405Y-13417436D02*
X13647882Y-13426960D01*
X13647882Y-13426960D02*
X13628834Y-13436484D01*
X13628834Y-13436484D02*
X13609786Y-13436484D01*
X13609786Y-13436484D02*
X13590739Y-13426960D01*
X13590739Y-13426960D02*
X13581215Y-13417436D01*
X13581215Y-13417436D02*
X13571691Y-13398388D01*
X13571691Y-13398388D02*
X13562167Y-13360293D01*
X13562167Y-13360293D02*
X13562167Y-13312674D01*
X13562167Y-13312674D02*
X13571691Y-13274579D01*
X13571691Y-13274579D02*
X13581215Y-13255531D01*
X13581215Y-13255531D02*
X13590739Y-13246008D01*
X13590739Y-13246008D02*
X13609786Y-13236484D01*
X13800262Y-13236484D02*
X13819310Y-13236484D01*
X13819310Y-13236484D02*
X13838358Y-13246008D01*
X13838358Y-13246008D02*
X13847882Y-13255531D01*
X13847882Y-13255531D02*
X13857405Y-13274579D01*
X13857405Y-13274579D02*
X13866929Y-13312674D01*
X13866929Y-13312674D02*
X13866929Y-13360293D01*
X13866929Y-13360293D02*
X13857405Y-13398388D01*
X13857405Y-13398388D02*
X13847882Y-13417436D01*
X13847882Y-13417436D02*
X13838358Y-13426960D01*
X13838358Y-13426960D02*
X13819310Y-13436484D01*
X13819310Y-13436484D02*
X13800262Y-13436484D01*
X13800262Y-13436484D02*
X13781215Y-13426960D01*
X13781215Y-13426960D02*
X13771691Y-13417436D01*
X13771691Y-13417436D02*
X13762167Y-13398388D01*
X13762167Y-13398388D02*
X13752643Y-13360293D01*
X13752643Y-13360293D02*
X13752643Y-13312674D01*
X13752643Y-13312674D02*
X13762167Y-13274579D01*
X13762167Y-13274579D02*
X13771691Y-13255531D01*
X13771691Y-13255531D02*
X13781215Y-13246008D01*
X13781215Y-13246008D02*
X13800262Y-13236484D01*
X13990739Y-13236484D02*
X14009786Y-13236484D01*
X14009786Y-13236484D02*
X14028834Y-13246008D01*
X14028834Y-13246008D02*
X14038358Y-13255531D01*
X14038358Y-13255531D02*
X14047882Y-13274579D01*
X14047882Y-13274579D02*
X14057405Y-13312674D01*
X14057405Y-13312674D02*
X14057405Y-13360293D01*
X14057405Y-13360293D02*
X14047882Y-13398388D01*
X14047882Y-13398388D02*
X14038358Y-13417436D01*
X14038358Y-13417436D02*
X14028834Y-13426960D01*
X14028834Y-13426960D02*
X14009786Y-13436484D01*
X14009786Y-13436484D02*
X13990739Y-13436484D01*
X13990739Y-13436484D02*
X13971691Y-13426960D01*
X13971691Y-13426960D02*
X13962167Y-13417436D01*
X13962167Y-13417436D02*
X13952643Y-13398388D01*
X13952643Y-13398388D02*
X13943120Y-13360293D01*
X13943120Y-13360293D02*
X13943120Y-13312674D01*
X13943120Y-13312674D02*
X13952643Y-13274579D01*
X13952643Y-13274579D02*
X13962167Y-13255531D01*
X13962167Y-13255531D02*
X13971691Y-13246008D01*
X13971691Y-13246008D02*
X13990739Y-13236484D01*
X14143120Y-13436484D02*
X14143120Y-13303150D01*
X14143120Y-13322198D02*
X14152643Y-13312674D01*
X14152643Y-13312674D02*
X14171691Y-13303150D01*
X14171691Y-13303150D02*
X14200263Y-13303150D01*
X14200263Y-13303150D02*
X14219310Y-13312674D01*
X14219310Y-13312674D02*
X14228834Y-13331722D01*
X14228834Y-13331722D02*
X14228834Y-13436484D01*
X14228834Y-13331722D02*
X14238358Y-13312674D01*
X14238358Y-13312674D02*
X14257405Y-13303150D01*
X14257405Y-13303150D02*
X14285977Y-13303150D01*
X14285977Y-13303150D02*
X14305024Y-13312674D01*
X14305024Y-13312674D02*
X14314548Y-13331722D01*
X14314548Y-13331722D02*
X14314548Y-13436484D01*
X14409786Y-13436484D02*
X14409786Y-13303150D01*
X14409786Y-13322198D02*
X14419310Y-13312674D01*
X14419310Y-13312674D02*
X14438358Y-13303150D01*
X14438358Y-13303150D02*
X14466929Y-13303150D01*
X14466929Y-13303150D02*
X14485977Y-13312674D01*
X14485977Y-13312674D02*
X14495501Y-13331722D01*
X14495501Y-13331722D02*
X14495501Y-13436484D01*
X14495501Y-13331722D02*
X14505024Y-13312674D01*
X14505024Y-13312674D02*
X14524072Y-13303150D01*
X14524072Y-13303150D02*
X14552643Y-13303150D01*
X14552643Y-13303150D02*
X14571691Y-13312674D01*
X14571691Y-13312674D02*
X14581215Y-13331722D01*
X14581215Y-13331722D02*
X14581215Y-13436484D01*
X14971691Y-13226960D02*
X14800263Y-13484103D01*
X15228834Y-13236484D02*
X15247882Y-13236484D01*
X15247882Y-13236484D02*
X15266929Y-13246008D01*
X15266929Y-13246008D02*
X15276453Y-13255531D01*
X15276453Y-13255531D02*
X15285977Y-13274579D01*
X15285977Y-13274579D02*
X15295501Y-13312674D01*
X15295501Y-13312674D02*
X15295501Y-13360293D01*
X15295501Y-13360293D02*
X15285977Y-13398388D01*
X15285977Y-13398388D02*
X15276453Y-13417436D01*
X15276453Y-13417436D02*
X15266929Y-13426960D01*
X15266929Y-13426960D02*
X15247882Y-13436484D01*
X15247882Y-13436484D02*
X15228834Y-13436484D01*
X15228834Y-13436484D02*
X15209786Y-13426960D01*
X15209786Y-13426960D02*
X15200263Y-13417436D01*
X15200263Y-13417436D02*
X15190739Y-13398388D01*
X15190739Y-13398388D02*
X15181215Y-13360293D01*
X15181215Y-13360293D02*
X15181215Y-13312674D01*
X15181215Y-13312674D02*
X15190739Y-13274579D01*
X15190739Y-13274579D02*
X15200263Y-13255531D01*
X15200263Y-13255531D02*
X15209786Y-13246008D01*
X15209786Y-13246008D02*
X15228834Y-13236484D01*
X15381215Y-13417436D02*
X15390739Y-13426960D01*
X15390739Y-13426960D02*
X15381215Y-13436484D01*
X15381215Y-13436484D02*
X15371691Y-13426960D01*
X15371691Y-13426960D02*
X15381215Y-13417436D01*
X15381215Y-13417436D02*
X15381215Y-13436484D01*
X15514548Y-13236484D02*
X15533596Y-13236484D01*
X15533596Y-13236484D02*
X15552644Y-13246008D01*
X15552644Y-13246008D02*
X15562167Y-13255531D01*
X15562167Y-13255531D02*
X15571691Y-13274579D01*
X15571691Y-13274579D02*
X15581215Y-13312674D01*
X15581215Y-13312674D02*
X15581215Y-13360293D01*
X15581215Y-13360293D02*
X15571691Y-13398388D01*
X15571691Y-13398388D02*
X15562167Y-13417436D01*
X15562167Y-13417436D02*
X15552644Y-13426960D01*
X15552644Y-13426960D02*
X15533596Y-13436484D01*
X15533596Y-13436484D02*
X15514548Y-13436484D01*
X15514548Y-13436484D02*
X15495501Y-13426960D01*
X15495501Y-13426960D02*
X15485977Y-13417436D01*
X15485977Y-13417436D02*
X15476453Y-13398388D01*
X15476453Y-13398388D02*
X15466929Y-13360293D01*
X15466929Y-13360293D02*
X15466929Y-13312674D01*
X15466929Y-13312674D02*
X15476453Y-13274579D01*
X15476453Y-13274579D02*
X15485977Y-13255531D01*
X15485977Y-13255531D02*
X15495501Y-13246008D01*
X15495501Y-13246008D02*
X15514548Y-13236484D01*
X15647882Y-13236484D02*
X15771691Y-13236484D01*
X15771691Y-13236484D02*
X15705025Y-13312674D01*
X15705025Y-13312674D02*
X15733596Y-13312674D01*
X15733596Y-13312674D02*
X15752644Y-13322198D01*
X15752644Y-13322198D02*
X15762167Y-13331722D01*
X15762167Y-13331722D02*
X15771691Y-13350769D01*
X15771691Y-13350769D02*
X15771691Y-13398388D01*
X15771691Y-13398388D02*
X15762167Y-13417436D01*
X15762167Y-13417436D02*
X15752644Y-13426960D01*
X15752644Y-13426960D02*
X15733596Y-13436484D01*
X15733596Y-13436484D02*
X15676453Y-13436484D01*
X15676453Y-13436484D02*
X15657406Y-13426960D01*
X15657406Y-13426960D02*
X15647882Y-13417436D01*
X15866929Y-13436484D02*
X15905025Y-13436484D01*
X15905025Y-13436484D02*
X15924072Y-13426960D01*
X15924072Y-13426960D02*
X15933596Y-13417436D01*
X15933596Y-13417436D02*
X15952644Y-13388865D01*
X15952644Y-13388865D02*
X15962167Y-13350769D01*
X15962167Y-13350769D02*
X15962167Y-13274579D01*
X15962167Y-13274579D02*
X15952644Y-13255531D01*
X15952644Y-13255531D02*
X15943120Y-13246008D01*
X15943120Y-13246008D02*
X15924072Y-13236484D01*
X15924072Y-13236484D02*
X15885977Y-13236484D01*
X15885977Y-13236484D02*
X15866929Y-13246008D01*
X15866929Y-13246008D02*
X15857406Y-13255531D01*
X15857406Y-13255531D02*
X15847882Y-13274579D01*
X15847882Y-13274579D02*
X15847882Y-13322198D01*
X15847882Y-13322198D02*
X15857406Y-13341246D01*
X15857406Y-13341246D02*
X15866929Y-13350769D01*
X15866929Y-13350769D02*
X15885977Y-13360293D01*
X15885977Y-13360293D02*
X15924072Y-13360293D01*
X15924072Y-13360293D02*
X15943120Y-13350769D01*
X15943120Y-13350769D02*
X15952644Y-13341246D01*
X15952644Y-13341246D02*
X15962167Y-13322198D01*
X16133596Y-13303150D02*
X16133596Y-13436484D01*
X16085977Y-13226960D02*
X16038358Y-13369817D01*
X16038358Y-13369817D02*
X16162167Y-13369817D01*
X16228834Y-13236484D02*
X16228834Y-13274579D01*
X16305025Y-13236484D02*
X16305025Y-13274579D01*
X16600263Y-13512674D02*
X16590739Y-13503150D01*
X16590739Y-13503150D02*
X16571691Y-13474579D01*
X16571691Y-13474579D02*
X16562168Y-13455531D01*
X16562168Y-13455531D02*
X16552644Y-13426960D01*
X16552644Y-13426960D02*
X16543120Y-13379341D01*
X16543120Y-13379341D02*
X16543120Y-13341246D01*
X16543120Y-13341246D02*
X16552644Y-13293627D01*
X16552644Y-13293627D02*
X16562168Y-13265055D01*
X16562168Y-13265055D02*
X16571691Y-13246008D01*
X16571691Y-13246008D02*
X16590739Y-13217436D01*
X16590739Y-13217436D02*
X16600263Y-13207912D01*
X16666929Y-13255531D02*
X16676453Y-13246008D01*
X16676453Y-13246008D02*
X16695501Y-13236484D01*
X16695501Y-13236484D02*
X16743120Y-13236484D01*
X16743120Y-13236484D02*
X16762168Y-13246008D01*
X16762168Y-13246008D02*
X16771691Y-13255531D01*
X16771691Y-13255531D02*
X16781215Y-13274579D01*
X16781215Y-13274579D02*
X16781215Y-13293627D01*
X16781215Y-13293627D02*
X16771691Y-13322198D01*
X16771691Y-13322198D02*
X16657406Y-13436484D01*
X16657406Y-13436484D02*
X16781215Y-13436484D01*
X17019311Y-13436484D02*
X17019311Y-13236484D01*
X17105025Y-13436484D02*
X17105025Y-13331722D01*
X17105025Y-13331722D02*
X17095501Y-13312674D01*
X17095501Y-13312674D02*
X17076453Y-13303150D01*
X17076453Y-13303150D02*
X17047882Y-13303150D01*
X17047882Y-13303150D02*
X17028834Y-13312674D01*
X17028834Y-13312674D02*
X17019311Y-13322198D01*
X17228834Y-13436484D02*
X17209787Y-13426960D01*
X17209787Y-13426960D02*
X17200263Y-13417436D01*
X17200263Y-13417436D02*
X17190739Y-13398388D01*
X17190739Y-13398388D02*
X17190739Y-13341246D01*
X17190739Y-13341246D02*
X17200263Y-13322198D01*
X17200263Y-13322198D02*
X17209787Y-13312674D01*
X17209787Y-13312674D02*
X17228834Y-13303150D01*
X17228834Y-13303150D02*
X17257406Y-13303150D01*
X17257406Y-13303150D02*
X17276453Y-13312674D01*
X17276453Y-13312674D02*
X17285977Y-13322198D01*
X17285977Y-13322198D02*
X17295501Y-13341246D01*
X17295501Y-13341246D02*
X17295501Y-13398388D01*
X17295501Y-13398388D02*
X17285977Y-13417436D01*
X17285977Y-13417436D02*
X17276453Y-13426960D01*
X17276453Y-13426960D02*
X17257406Y-13436484D01*
X17257406Y-13436484D02*
X17228834Y-13436484D01*
X17409787Y-13436484D02*
X17390739Y-13426960D01*
X17390739Y-13426960D02*
X17381215Y-13407912D01*
X17381215Y-13407912D02*
X17381215Y-13236484D01*
X17562168Y-13426960D02*
X17543120Y-13436484D01*
X17543120Y-13436484D02*
X17505025Y-13436484D01*
X17505025Y-13436484D02*
X17485977Y-13426960D01*
X17485977Y-13426960D02*
X17476453Y-13407912D01*
X17476453Y-13407912D02*
X17476453Y-13331722D01*
X17476453Y-13331722D02*
X17485977Y-13312674D01*
X17485977Y-13312674D02*
X17505025Y-13303150D01*
X17505025Y-13303150D02*
X17543120Y-13303150D01*
X17543120Y-13303150D02*
X17562168Y-13312674D01*
X17562168Y-13312674D02*
X17571692Y-13331722D01*
X17571692Y-13331722D02*
X17571692Y-13350769D01*
X17571692Y-13350769D02*
X17476453Y-13369817D01*
X17647882Y-13426960D02*
X17666930Y-13436484D01*
X17666930Y-13436484D02*
X17705025Y-13436484D01*
X17705025Y-13436484D02*
X17724073Y-13426960D01*
X17724073Y-13426960D02*
X17733596Y-13407912D01*
X17733596Y-13407912D02*
X17733596Y-13398388D01*
X17733596Y-13398388D02*
X17724073Y-13379341D01*
X17724073Y-13379341D02*
X17705025Y-13369817D01*
X17705025Y-13369817D02*
X17676453Y-13369817D01*
X17676453Y-13369817D02*
X17657406Y-13360293D01*
X17657406Y-13360293D02*
X17647882Y-13341246D01*
X17647882Y-13341246D02*
X17647882Y-13331722D01*
X17647882Y-13331722D02*
X17657406Y-13312674D01*
X17657406Y-13312674D02*
X17676453Y-13303150D01*
X17676453Y-13303150D02*
X17705025Y-13303150D01*
X17705025Y-13303150D02*
X17724073Y-13312674D01*
X17800263Y-13512674D02*
X17809787Y-13503150D01*
X17809787Y-13503150D02*
X17828834Y-13474579D01*
X17828834Y-13474579D02*
X17838358Y-13455531D01*
X17838358Y-13455531D02*
X17847882Y-13426960D01*
X17847882Y-13426960D02*
X17857406Y-13379341D01*
X17857406Y-13379341D02*
X17857406Y-13341246D01*
X17857406Y-13341246D02*
X17847882Y-13293627D01*
X17847882Y-13293627D02*
X17838358Y-13265055D01*
X17838358Y-13265055D02*
X17828834Y-13246008D01*
X17828834Y-13246008D02*
X17809787Y-13217436D01*
X17809787Y-13217436D02*
X17800263Y-13207912D01*
D12*
X13025200Y-13609000D02*
G75*
G02*
X12915200Y-13609000I-55000J0D01*
G01*
X12915200Y-13609000D02*
G75*
G02*
X13025200Y-13609000I55000J0D01*
G01*
D11*
X13390739Y-13700484D02*
X13276453Y-13700484D01*
X13333596Y-13700484D02*
X13333596Y-13500484D01*
X13333596Y-13500484D02*
X13314548Y-13529055D01*
X13314548Y-13529055D02*
X13295501Y-13548103D01*
X13295501Y-13548103D02*
X13276453Y-13557627D01*
X13476453Y-13681436D02*
X13485977Y-13690960D01*
X13485977Y-13690960D02*
X13476453Y-13700484D01*
X13476453Y-13700484D02*
X13466929Y-13690960D01*
X13466929Y-13690960D02*
X13476453Y-13681436D01*
X13476453Y-13681436D02*
X13476453Y-13700484D01*
X13676453Y-13700484D02*
X13562167Y-13700484D01*
X13619310Y-13700484D02*
X13619310Y-13500484D01*
X13619310Y-13500484D02*
X13600262Y-13529055D01*
X13600262Y-13529055D02*
X13581215Y-13548103D01*
X13581215Y-13548103D02*
X13562167Y-13557627D01*
X13800262Y-13500484D02*
X13819310Y-13500484D01*
X13819310Y-13500484D02*
X13838358Y-13510008D01*
X13838358Y-13510008D02*
X13847882Y-13519531D01*
X13847882Y-13519531D02*
X13857405Y-13538579D01*
X13857405Y-13538579D02*
X13866929Y-13576674D01*
X13866929Y-13576674D02*
X13866929Y-13624293D01*
X13866929Y-13624293D02*
X13857405Y-13662388D01*
X13857405Y-13662388D02*
X13847882Y-13681436D01*
X13847882Y-13681436D02*
X13838358Y-13690960D01*
X13838358Y-13690960D02*
X13819310Y-13700484D01*
X13819310Y-13700484D02*
X13800262Y-13700484D01*
X13800262Y-13700484D02*
X13781215Y-13690960D01*
X13781215Y-13690960D02*
X13771691Y-13681436D01*
X13771691Y-13681436D02*
X13762167Y-13662388D01*
X13762167Y-13662388D02*
X13752643Y-13624293D01*
X13752643Y-13624293D02*
X13752643Y-13576674D01*
X13752643Y-13576674D02*
X13762167Y-13538579D01*
X13762167Y-13538579D02*
X13771691Y-13519531D01*
X13771691Y-13519531D02*
X13781215Y-13510008D01*
X13781215Y-13510008D02*
X13800262Y-13500484D01*
X13990739Y-13500484D02*
X14009786Y-13500484D01*
X14009786Y-13500484D02*
X14028834Y-13510008D01*
X14028834Y-13510008D02*
X14038358Y-13519531D01*
X14038358Y-13519531D02*
X14047882Y-13538579D01*
X14047882Y-13538579D02*
X14057405Y-13576674D01*
X14057405Y-13576674D02*
X14057405Y-13624293D01*
X14057405Y-13624293D02*
X14047882Y-13662388D01*
X14047882Y-13662388D02*
X14038358Y-13681436D01*
X14038358Y-13681436D02*
X14028834Y-13690960D01*
X14028834Y-13690960D02*
X14009786Y-13700484D01*
X14009786Y-13700484D02*
X13990739Y-13700484D01*
X13990739Y-13700484D02*
X13971691Y-13690960D01*
X13971691Y-13690960D02*
X13962167Y-13681436D01*
X13962167Y-13681436D02*
X13952643Y-13662388D01*
X13952643Y-13662388D02*
X13943120Y-13624293D01*
X13943120Y-13624293D02*
X13943120Y-13576674D01*
X13943120Y-13576674D02*
X13952643Y-13538579D01*
X13952643Y-13538579D02*
X13962167Y-13519531D01*
X13962167Y-13519531D02*
X13971691Y-13510008D01*
X13971691Y-13510008D02*
X13990739Y-13500484D01*
X14143120Y-13700484D02*
X14143120Y-13567150D01*
X14143120Y-13586198D02*
X14152643Y-13576674D01*
X14152643Y-13576674D02*
X14171691Y-13567150D01*
X14171691Y-13567150D02*
X14200263Y-13567150D01*
X14200263Y-13567150D02*
X14219310Y-13576674D01*
X14219310Y-13576674D02*
X14228834Y-13595722D01*
X14228834Y-13595722D02*
X14228834Y-13700484D01*
X14228834Y-13595722D02*
X14238358Y-13576674D01*
X14238358Y-13576674D02*
X14257405Y-13567150D01*
X14257405Y-13567150D02*
X14285977Y-13567150D01*
X14285977Y-13567150D02*
X14305024Y-13576674D01*
X14305024Y-13576674D02*
X14314548Y-13595722D01*
X14314548Y-13595722D02*
X14314548Y-13700484D01*
X14409786Y-13700484D02*
X14409786Y-13567150D01*
X14409786Y-13586198D02*
X14419310Y-13576674D01*
X14419310Y-13576674D02*
X14438358Y-13567150D01*
X14438358Y-13567150D02*
X14466929Y-13567150D01*
X14466929Y-13567150D02*
X14485977Y-13576674D01*
X14485977Y-13576674D02*
X14495501Y-13595722D01*
X14495501Y-13595722D02*
X14495501Y-13700484D01*
X14495501Y-13595722D02*
X14505024Y-13576674D01*
X14505024Y-13576674D02*
X14524072Y-13567150D01*
X14524072Y-13567150D02*
X14552643Y-13567150D01*
X14552643Y-13567150D02*
X14571691Y-13576674D01*
X14571691Y-13576674D02*
X14581215Y-13595722D01*
X14581215Y-13595722D02*
X14581215Y-13700484D01*
X14971691Y-13490960D02*
X14800263Y-13748103D01*
X15228834Y-13500484D02*
X15247882Y-13500484D01*
X15247882Y-13500484D02*
X15266929Y-13510008D01*
X15266929Y-13510008D02*
X15276453Y-13519531D01*
X15276453Y-13519531D02*
X15285977Y-13538579D01*
X15285977Y-13538579D02*
X15295501Y-13576674D01*
X15295501Y-13576674D02*
X15295501Y-13624293D01*
X15295501Y-13624293D02*
X15285977Y-13662388D01*
X15285977Y-13662388D02*
X15276453Y-13681436D01*
X15276453Y-13681436D02*
X15266929Y-13690960D01*
X15266929Y-13690960D02*
X15247882Y-13700484D01*
X15247882Y-13700484D02*
X15228834Y-13700484D01*
X15228834Y-13700484D02*
X15209786Y-13690960D01*
X15209786Y-13690960D02*
X15200263Y-13681436D01*
X15200263Y-13681436D02*
X15190739Y-13662388D01*
X15190739Y-13662388D02*
X15181215Y-13624293D01*
X15181215Y-13624293D02*
X15181215Y-13576674D01*
X15181215Y-13576674D02*
X15190739Y-13538579D01*
X15190739Y-13538579D02*
X15200263Y-13519531D01*
X15200263Y-13519531D02*
X15209786Y-13510008D01*
X15209786Y-13510008D02*
X15228834Y-13500484D01*
X15381215Y-13681436D02*
X15390739Y-13690960D01*
X15390739Y-13690960D02*
X15381215Y-13700484D01*
X15381215Y-13700484D02*
X15371691Y-13690960D01*
X15371691Y-13690960D02*
X15381215Y-13681436D01*
X15381215Y-13681436D02*
X15381215Y-13700484D01*
X15514548Y-13500484D02*
X15533596Y-13500484D01*
X15533596Y-13500484D02*
X15552644Y-13510008D01*
X15552644Y-13510008D02*
X15562167Y-13519531D01*
X15562167Y-13519531D02*
X15571691Y-13538579D01*
X15571691Y-13538579D02*
X15581215Y-13576674D01*
X15581215Y-13576674D02*
X15581215Y-13624293D01*
X15581215Y-13624293D02*
X15571691Y-13662388D01*
X15571691Y-13662388D02*
X15562167Y-13681436D01*
X15562167Y-13681436D02*
X15552644Y-13690960D01*
X15552644Y-13690960D02*
X15533596Y-13700484D01*
X15533596Y-13700484D02*
X15514548Y-13700484D01*
X15514548Y-13700484D02*
X15495501Y-13690960D01*
X15495501Y-13690960D02*
X15485977Y-13681436D01*
X15485977Y-13681436D02*
X15476453Y-13662388D01*
X15476453Y-13662388D02*
X15466929Y-13624293D01*
X15466929Y-13624293D02*
X15466929Y-13576674D01*
X15466929Y-13576674D02*
X15476453Y-13538579D01*
X15476453Y-13538579D02*
X15485977Y-13519531D01*
X15485977Y-13519531D02*
X15495501Y-13510008D01*
X15495501Y-13510008D02*
X15514548Y-13500484D01*
X15752644Y-13567150D02*
X15752644Y-13700484D01*
X15705025Y-13490960D02*
X15657406Y-13633817D01*
X15657406Y-13633817D02*
X15781215Y-13633817D01*
X15838358Y-13500484D02*
X15962167Y-13500484D01*
X15962167Y-13500484D02*
X15895501Y-13576674D01*
X15895501Y-13576674D02*
X15924072Y-13576674D01*
X15924072Y-13576674D02*
X15943120Y-13586198D01*
X15943120Y-13586198D02*
X15952644Y-13595722D01*
X15952644Y-13595722D02*
X15962167Y-13614769D01*
X15962167Y-13614769D02*
X15962167Y-13662388D01*
X15962167Y-13662388D02*
X15952644Y-13681436D01*
X15952644Y-13681436D02*
X15943120Y-13690960D01*
X15943120Y-13690960D02*
X15924072Y-13700484D01*
X15924072Y-13700484D02*
X15866929Y-13700484D01*
X15866929Y-13700484D02*
X15847882Y-13690960D01*
X15847882Y-13690960D02*
X15838358Y-13681436D01*
X16028834Y-13500484D02*
X16152644Y-13500484D01*
X16152644Y-13500484D02*
X16085977Y-13576674D01*
X16085977Y-13576674D02*
X16114548Y-13576674D01*
X16114548Y-13576674D02*
X16133596Y-13586198D01*
X16133596Y-13586198D02*
X16143120Y-13595722D01*
X16143120Y-13595722D02*
X16152644Y-13614769D01*
X16152644Y-13614769D02*
X16152644Y-13662388D01*
X16152644Y-13662388D02*
X16143120Y-13681436D01*
X16143120Y-13681436D02*
X16133596Y-13690960D01*
X16133596Y-13690960D02*
X16114548Y-13700484D01*
X16114548Y-13700484D02*
X16057406Y-13700484D01*
X16057406Y-13700484D02*
X16038358Y-13690960D01*
X16038358Y-13690960D02*
X16028834Y-13681436D01*
X16228834Y-13500484D02*
X16228834Y-13538579D01*
X16305025Y-13500484D02*
X16305025Y-13538579D01*
X16600263Y-13776674D02*
X16590739Y-13767150D01*
X16590739Y-13767150D02*
X16571691Y-13738579D01*
X16571691Y-13738579D02*
X16562168Y-13719531D01*
X16562168Y-13719531D02*
X16552644Y-13690960D01*
X16552644Y-13690960D02*
X16543120Y-13643341D01*
X16543120Y-13643341D02*
X16543120Y-13605246D01*
X16543120Y-13605246D02*
X16552644Y-13557627D01*
X16552644Y-13557627D02*
X16562168Y-13529055D01*
X16562168Y-13529055D02*
X16571691Y-13510008D01*
X16571691Y-13510008D02*
X16590739Y-13481436D01*
X16590739Y-13481436D02*
X16600263Y-13471912D01*
X16762168Y-13567150D02*
X16762168Y-13700484D01*
X16714548Y-13490960D02*
X16666929Y-13633817D01*
X16666929Y-13633817D02*
X16790739Y-13633817D01*
X17019311Y-13700484D02*
X17019311Y-13500484D01*
X17105025Y-13700484D02*
X17105025Y-13595722D01*
X17105025Y-13595722D02*
X17095501Y-13576674D01*
X17095501Y-13576674D02*
X17076453Y-13567150D01*
X17076453Y-13567150D02*
X17047882Y-13567150D01*
X17047882Y-13567150D02*
X17028834Y-13576674D01*
X17028834Y-13576674D02*
X17019311Y-13586198D01*
X17228834Y-13700484D02*
X17209787Y-13690960D01*
X17209787Y-13690960D02*
X17200263Y-13681436D01*
X17200263Y-13681436D02*
X17190739Y-13662388D01*
X17190739Y-13662388D02*
X17190739Y-13605246D01*
X17190739Y-13605246D02*
X17200263Y-13586198D01*
X17200263Y-13586198D02*
X17209787Y-13576674D01*
X17209787Y-13576674D02*
X17228834Y-13567150D01*
X17228834Y-13567150D02*
X17257406Y-13567150D01*
X17257406Y-13567150D02*
X17276453Y-13576674D01*
X17276453Y-13576674D02*
X17285977Y-13586198D01*
X17285977Y-13586198D02*
X17295501Y-13605246D01*
X17295501Y-13605246D02*
X17295501Y-13662388D01*
X17295501Y-13662388D02*
X17285977Y-13681436D01*
X17285977Y-13681436D02*
X17276453Y-13690960D01*
X17276453Y-13690960D02*
X17257406Y-13700484D01*
X17257406Y-13700484D02*
X17228834Y-13700484D01*
X17409787Y-13700484D02*
X17390739Y-13690960D01*
X17390739Y-13690960D02*
X17381215Y-13671912D01*
X17381215Y-13671912D02*
X17381215Y-13500484D01*
X17562168Y-13690960D02*
X17543120Y-13700484D01*
X17543120Y-13700484D02*
X17505025Y-13700484D01*
X17505025Y-13700484D02*
X17485977Y-13690960D01*
X17485977Y-13690960D02*
X17476453Y-13671912D01*
X17476453Y-13671912D02*
X17476453Y-13595722D01*
X17476453Y-13595722D02*
X17485977Y-13576674D01*
X17485977Y-13576674D02*
X17505025Y-13567150D01*
X17505025Y-13567150D02*
X17543120Y-13567150D01*
X17543120Y-13567150D02*
X17562168Y-13576674D01*
X17562168Y-13576674D02*
X17571692Y-13595722D01*
X17571692Y-13595722D02*
X17571692Y-13614769D01*
X17571692Y-13614769D02*
X17476453Y-13633817D01*
X17647882Y-13690960D02*
X17666930Y-13700484D01*
X17666930Y-13700484D02*
X17705025Y-13700484D01*
X17705025Y-13700484D02*
X17724073Y-13690960D01*
X17724073Y-13690960D02*
X17733596Y-13671912D01*
X17733596Y-13671912D02*
X17733596Y-13662388D01*
X17733596Y-13662388D02*
X17724073Y-13643341D01*
X17724073Y-13643341D02*
X17705025Y-13633817D01*
X17705025Y-13633817D02*
X17676453Y-13633817D01*
X17676453Y-13633817D02*
X17657406Y-13624293D01*
X17657406Y-13624293D02*
X17647882Y-13605246D01*
X17647882Y-13605246D02*
X17647882Y-13595722D01*
X17647882Y-13595722D02*
X17657406Y-13576674D01*
X17657406Y-13576674D02*
X17676453Y-13567150D01*
X17676453Y-13567150D02*
X17705025Y-13567150D01*
X17705025Y-13567150D02*
X17724073Y-13576674D01*
X17800263Y-13776674D02*
X17809787Y-13767150D01*
X17809787Y-13767150D02*
X17828834Y-13738579D01*
X17828834Y-13738579D02*
X17838358Y-13719531D01*
X17838358Y-13719531D02*
X17847882Y-13690960D01*
X17847882Y-13690960D02*
X17857406Y-13643341D01*
X17857406Y-13643341D02*
X17857406Y-13605246D01*
X17857406Y-13605246D02*
X17847882Y-13557627D01*
X17847882Y-13557627D02*
X17838358Y-13529055D01*
X17838358Y-13529055D02*
X17828834Y-13510008D01*
X17828834Y-13510008D02*
X17809787Y-13481436D01*
X17809787Y-13481436D02*
X17800263Y-13471912D01*
M02*
