%TF.GenerationSoftware,KiCad,Pcbnew,8.0.7+dfsg-2*%
%TF.CreationDate,2024-12-30T00:21:24+01:00*%
%TF.ProjectId,strobe-torch,7374726f-6265-42d7-946f-7263682e6b69,1.1*%
%TF.SameCoordinates,Original*%
%TF.FileFunction,Copper,L1,Top*%
%TF.FilePolarity,Positive*%
%FSLAX46Y46*%
G04 Gerber Fmt 4.6, Leading zero omitted, Abs format (unit mm)*
G04 Created by KiCad (PCBNEW 8.0.7+dfsg-2) date 2024-12-30 00:21:24*
%MOMM*%
%LPD*%
G01*
G04 APERTURE LIST*
%ADD10C,0.300000*%
%TA.AperFunction,NonConductor*%
%ADD11C,0.300000*%
%TD*%
%TA.AperFunction,SMDPad,CuDef*%
%ADD12R,1.300000X2.300000*%
%TD*%
%TA.AperFunction,SMDPad,CuDef*%
%ADD13R,1.000000X0.720000*%
%TD*%
%TA.AperFunction,ComponentPad*%
%ADD14R,1.800000X1.800000*%
%TD*%
%TA.AperFunction,ComponentPad*%
%ADD15O,1.800000X1.800000*%
%TD*%
%TA.AperFunction,SMDPad,CuDef*%
%ADD16R,0.550000X1.750000*%
%TD*%
%TA.AperFunction,SMDPad,CuDef*%
%ADD17C,1.500000*%
%TD*%
%TA.AperFunction,SMDPad,CuDef*%
%ADD18R,0.800000X0.900000*%
%TD*%
%TA.AperFunction,SMDPad,CuDef*%
%ADD19R,4.500000X2.000000*%
%TD*%
%TA.AperFunction,SMDPad,CuDef*%
%ADD20R,0.800000X0.750000*%
%TD*%
%TA.AperFunction,SMDPad,CuDef*%
%ADD21R,0.800000X0.800000*%
%TD*%
%TA.AperFunction,SMDPad,CuDef*%
%ADD22R,0.500000X0.900000*%
%TD*%
%TA.AperFunction,SMDPad,CuDef*%
%ADD23R,0.900000X0.500000*%
%TD*%
%TA.AperFunction,SMDPad,CuDef*%
%ADD24R,1.250000X1.000000*%
%TD*%
%TA.AperFunction,ViaPad*%
%ADD25C,1.400000*%
%TD*%
%TA.AperFunction,Conductor*%
%ADD26C,0.800000*%
%TD*%
%TA.AperFunction,Conductor*%
%ADD27C,0.500000*%
%TD*%
%TA.AperFunction,Conductor*%
%ADD28C,0.270000*%
%TD*%
G04 APERTURE END LIST*
D10*
D11*
X135445571Y-123677900D02*
X136588429Y-123677900D01*
X136017000Y-124249328D02*
X136017000Y-123106471D01*
D10*
D11*
X157543571Y-123677900D02*
X158686429Y-123677900D01*
D10*
D11*
X137478714Y-122353400D02*
X137764428Y-122448638D01*
X137764428Y-122448638D02*
X138240619Y-122448638D01*
X138240619Y-122448638D02*
X138431095Y-122353400D01*
X138431095Y-122353400D02*
X138526333Y-122258161D01*
X138526333Y-122258161D02*
X138621571Y-122067685D01*
X138621571Y-122067685D02*
X138621571Y-121877209D01*
X138621571Y-121877209D02*
X138526333Y-121686733D01*
X138526333Y-121686733D02*
X138431095Y-121591495D01*
X138431095Y-121591495D02*
X138240619Y-121496257D01*
X138240619Y-121496257D02*
X137859666Y-121401019D01*
X137859666Y-121401019D02*
X137669190Y-121305780D01*
X137669190Y-121305780D02*
X137573952Y-121210542D01*
X137573952Y-121210542D02*
X137478714Y-121020066D01*
X137478714Y-121020066D02*
X137478714Y-120829590D01*
X137478714Y-120829590D02*
X137573952Y-120639114D01*
X137573952Y-120639114D02*
X137669190Y-120543876D01*
X137669190Y-120543876D02*
X137859666Y-120448638D01*
X137859666Y-120448638D02*
X138335857Y-120448638D01*
X138335857Y-120448638D02*
X138621571Y-120543876D01*
X139193000Y-121115304D02*
X139954904Y-121115304D01*
X139478714Y-120448638D02*
X139478714Y-122162923D01*
X139478714Y-122162923D02*
X139573952Y-122353400D01*
X139573952Y-122353400D02*
X139764428Y-122448638D01*
X139764428Y-122448638D02*
X139954904Y-122448638D01*
X140621571Y-122448638D02*
X140621571Y-121115304D01*
X140621571Y-121496257D02*
X140716809Y-121305780D01*
X140716809Y-121305780D02*
X140812047Y-121210542D01*
X140812047Y-121210542D02*
X141002523Y-121115304D01*
X141002523Y-121115304D02*
X141193000Y-121115304D01*
X142145380Y-122448638D02*
X141954904Y-122353400D01*
X141954904Y-122353400D02*
X141859666Y-122258161D01*
X141859666Y-122258161D02*
X141764428Y-122067685D01*
X141764428Y-122067685D02*
X141764428Y-121496257D01*
X141764428Y-121496257D02*
X141859666Y-121305780D01*
X141859666Y-121305780D02*
X141954904Y-121210542D01*
X141954904Y-121210542D02*
X142145380Y-121115304D01*
X142145380Y-121115304D02*
X142431095Y-121115304D01*
X142431095Y-121115304D02*
X142621571Y-121210542D01*
X142621571Y-121210542D02*
X142716809Y-121305780D01*
X142716809Y-121305780D02*
X142812047Y-121496257D01*
X142812047Y-121496257D02*
X142812047Y-122067685D01*
X142812047Y-122067685D02*
X142716809Y-122258161D01*
X142716809Y-122258161D02*
X142621571Y-122353400D01*
X142621571Y-122353400D02*
X142431095Y-122448638D01*
X142431095Y-122448638D02*
X142145380Y-122448638D01*
X143669190Y-122448638D02*
X143669190Y-120448638D01*
X143669190Y-121210542D02*
X143859666Y-121115304D01*
X143859666Y-121115304D02*
X144240619Y-121115304D01*
X144240619Y-121115304D02*
X144431095Y-121210542D01*
X144431095Y-121210542D02*
X144526333Y-121305780D01*
X144526333Y-121305780D02*
X144621571Y-121496257D01*
X144621571Y-121496257D02*
X144621571Y-122067685D01*
X144621571Y-122067685D02*
X144526333Y-122258161D01*
X144526333Y-122258161D02*
X144431095Y-122353400D01*
X144431095Y-122353400D02*
X144240619Y-122448638D01*
X144240619Y-122448638D02*
X143859666Y-122448638D01*
X143859666Y-122448638D02*
X143669190Y-122353400D01*
X146240619Y-122353400D02*
X146050143Y-122448638D01*
X146050143Y-122448638D02*
X145669190Y-122448638D01*
X145669190Y-122448638D02*
X145478714Y-122353400D01*
X145478714Y-122353400D02*
X145383476Y-122162923D01*
X145383476Y-122162923D02*
X145383476Y-121401019D01*
X145383476Y-121401019D02*
X145478714Y-121210542D01*
X145478714Y-121210542D02*
X145669190Y-121115304D01*
X145669190Y-121115304D02*
X146050143Y-121115304D01*
X146050143Y-121115304D02*
X146240619Y-121210542D01*
X146240619Y-121210542D02*
X146335857Y-121401019D01*
X146335857Y-121401019D02*
X146335857Y-121591495D01*
X146335857Y-121591495D02*
X145383476Y-121781971D01*
X147193000Y-121686733D02*
X148716810Y-121686733D01*
X149383476Y-120448638D02*
X150526333Y-120448638D01*
X149954904Y-122448638D02*
X149954904Y-120448638D01*
X151478714Y-122448638D02*
X151288238Y-122353400D01*
X151288238Y-122353400D02*
X151193000Y-122258161D01*
X151193000Y-122258161D02*
X151097762Y-122067685D01*
X151097762Y-122067685D02*
X151097762Y-121496257D01*
X151097762Y-121496257D02*
X151193000Y-121305780D01*
X151193000Y-121305780D02*
X151288238Y-121210542D01*
X151288238Y-121210542D02*
X151478714Y-121115304D01*
X151478714Y-121115304D02*
X151764429Y-121115304D01*
X151764429Y-121115304D02*
X151954905Y-121210542D01*
X151954905Y-121210542D02*
X152050143Y-121305780D01*
X152050143Y-121305780D02*
X152145381Y-121496257D01*
X152145381Y-121496257D02*
X152145381Y-122067685D01*
X152145381Y-122067685D02*
X152050143Y-122258161D01*
X152050143Y-122258161D02*
X151954905Y-122353400D01*
X151954905Y-122353400D02*
X151764429Y-122448638D01*
X151764429Y-122448638D02*
X151478714Y-122448638D01*
X153002524Y-122448638D02*
X153002524Y-121115304D01*
X153002524Y-121496257D02*
X153097762Y-121305780D01*
X153097762Y-121305780D02*
X153193000Y-121210542D01*
X153193000Y-121210542D02*
X153383476Y-121115304D01*
X153383476Y-121115304D02*
X153573953Y-121115304D01*
X155097762Y-122353400D02*
X154907286Y-122448638D01*
X154907286Y-122448638D02*
X154526333Y-122448638D01*
X154526333Y-122448638D02*
X154335857Y-122353400D01*
X154335857Y-122353400D02*
X154240619Y-122258161D01*
X154240619Y-122258161D02*
X154145381Y-122067685D01*
X154145381Y-122067685D02*
X154145381Y-121496257D01*
X154145381Y-121496257D02*
X154240619Y-121305780D01*
X154240619Y-121305780D02*
X154335857Y-121210542D01*
X154335857Y-121210542D02*
X154526333Y-121115304D01*
X154526333Y-121115304D02*
X154907286Y-121115304D01*
X154907286Y-121115304D02*
X155097762Y-121210542D01*
X155954905Y-122448638D02*
X155954905Y-120448638D01*
X156812048Y-122448638D02*
X156812048Y-121401019D01*
X156812048Y-121401019D02*
X156716810Y-121210542D01*
X156716810Y-121210542D02*
X156526334Y-121115304D01*
X156526334Y-121115304D02*
X156240619Y-121115304D01*
X156240619Y-121115304D02*
X156050143Y-121210542D01*
X156050143Y-121210542D02*
X155954905Y-121305780D01*
D12*
%TO.P,SW3,1,1*%
%TO.N,Net-(BT1--)*%
X147483000Y-101228000D03*
X147483000Y-92828000D03*
%TO.P,SW3,2,2*%
%TO.N,Net-(U1-PB5(~{RESET}{slash}dW{slash}ADC0{slash}PCINT5))*%
X151983000Y-101228000D03*
X151983000Y-92828000D03*
%TD*%
%TO.P,SW2,1,1*%
%TO.N,Net-(BT1--)*%
X134529000Y-101228000D03*
X134529000Y-92828000D03*
%TO.P,SW2,2,2*%
%TO.N,Net-(U1-PB2(SCK{slash}USCK{slash}SCL{slash}T0{slash}INT0{slash}ADC1{slash}PCINT2))*%
X139029000Y-101228000D03*
X139029000Y-92828000D03*
%TD*%
%TO.P,SW1,1,1*%
%TO.N,Net-(BT1--)*%
X134529000Y-89798000D03*
X134529000Y-81398000D03*
%TO.P,SW1,2,2*%
%TO.N,Net-(U1-PB1(MISO{slash}DO{slash}AIN1{slash}OC0B{slash}OC1A{slash}PCINT1))*%
X139029000Y-89798000D03*
X139029000Y-81398000D03*
%TD*%
D13*
%TO.P,D2,1,K*%
%TO.N,Net-(D2-K)*%
X149382000Y-68580000D03*
%TO.P,D2,2,A*%
%TO.N,Net-(D1-K)*%
X146782000Y-68580000D03*
%TD*%
%TO.P,D1,1,K*%
%TO.N,Net-(D1-K)*%
X146715000Y-70231000D03*
%TO.P,D1,2,A*%
%TO.N,+12V*%
X144115000Y-70231000D03*
%TD*%
D14*
%TO.P,BT1,1,+*%
%TO.N,+12V*%
X132969000Y-122047000D03*
X132969000Y-124587000D03*
D15*
%TO.P,BT1,2,-*%
%TO.N,Net-(BT1--)*%
X160909000Y-122047000D03*
X160909000Y-124587000D03*
%TD*%
D16*
%TO.P,U1,1,PB5(~{RESET}/dW/ADC0/PCINT5)*%
%TO.N,Net-(U1-PB5(~{RESET}{slash}dW{slash}ADC0{slash}PCINT5))*%
X155448000Y-99221000D03*
%TO.P,U1,2,PB3(XTAL1/CLKI/~{OC1B}/ADC3/PCINT3)*%
%TO.N,Net-(U1-PB3(XTAL1{slash}CLKI{slash}~{OC1B}{slash}ADC3{slash}PCINT3))*%
X156718000Y-99221000D03*
%TO.P,U1,3,PB4(XTAL2/CLKO/OC1B/ADC2/PCINT4)*%
%TO.N,Net-(U1-PB4(XTAL2{slash}CLKO{slash}OC1B{slash}ADC2{slash}PCINT4))*%
X157988000Y-99221000D03*
%TO.P,U1,4,GND*%
%TO.N,GND*%
X159258000Y-99221000D03*
%TO.P,U1,5,PB0(MOSI/DI/SDA/AIN0/OC0A/~{OC1A}/AREF/PCINT0)*%
%TO.N,Net-(Q1-G)*%
X159258000Y-91821000D03*
%TO.P,U1,6,PB1(MISO/DO/AIN1/OC0B/OC1A/PCINT1)*%
%TO.N,Net-(U1-PB1(MISO{slash}DO{slash}AIN1{slash}OC0B{slash}OC1A{slash}PCINT1))*%
X157988000Y-91821000D03*
%TO.P,U1,7,PB2(SCK/USCK/SCL/T0/INT0/ADC1/PCINT2)*%
%TO.N,Net-(U1-PB2(SCK{slash}USCK{slash}SCL{slash}T0{slash}INT0{slash}ADC1{slash}PCINT2))*%
X156718000Y-91821000D03*
%TO.P,U1,8,VCC*%
%TO.N,VCC*%
X155448000Y-91821000D03*
%TD*%
D17*
%TO.P,TP13,1*%
%TO.N,Net-(Q1-G)*%
X159258000Y-84963000D03*
%TD*%
D18*
%TO.P,D5,1*%
%TO.N,unconnected-(D5-Pad1)*%
X150053000Y-90408000D03*
%TO.P,D5,2*%
%TO.N,Net-(U1-PB5(~{RESET}{slash}dW{slash}ADC0{slash}PCINT5))*%
X151953000Y-90408000D03*
%TO.P,D5,3*%
%TO.N,GND*%
X151003000Y-88408000D03*
%TD*%
%TO.P,D4,1*%
%TO.N,Net-(U1-PB2(SCK{slash}USCK{slash}SCL{slash}T0{slash}INT0{slash}ADC1{slash}PCINT2))*%
X151953000Y-84344000D03*
%TO.P,D4,2*%
%TO.N,Net-(U1-PB1(MISO{slash}DO{slash}AIN1{slash}OC0B{slash}OC1A{slash}PCINT1))*%
X150053000Y-84344000D03*
%TO.P,D4,3*%
%TO.N,GND*%
X151003000Y-86344000D03*
%TD*%
D19*
%TO.P,Y1,1,1*%
%TO.N,Net-(U1-PB3(XTAL1{slash}CLKI{slash}~{OC1B}{slash}ADC3{slash}PCINT3))*%
X149547000Y-109220000D03*
%TO.P,Y1,2,2*%
%TO.N,Net-(U1-PB4(XTAL2{slash}CLKO{slash}OC1B{slash}ADC2{slash}PCINT4))*%
X158047000Y-109220000D03*
%TD*%
D20*
%TO.P,C3,2*%
%TO.N,GND*%
X156476000Y-105029000D03*
%TO.P,C3,1*%
%TO.N,Net-(U1-PB4(XTAL2{slash}CLKO{slash}OC1B{slash}ADC2{slash}PCINT4))*%
X157976000Y-105029000D03*
%TD*%
D21*
%TO.P,D3,2,A*%
%TO.N,VCC*%
X161798000Y-74638000D03*
%TO.P,D3,1,K*%
%TO.N,GND*%
X161798000Y-76238000D03*
%TD*%
D22*
%TO.P,R1,1*%
%TO.N,VCC*%
X146927000Y-74676000D03*
%TO.P,R1,2*%
%TO.N,+12V*%
X145427000Y-74676000D03*
%TD*%
D23*
%TO.P,R2,1*%
%TO.N,Net-(D2-K)*%
X149225000Y-73926000D03*
%TO.P,R2,2*%
%TO.N,Net-(Q1-D)*%
X149225000Y-75426000D03*
%TD*%
D17*
%TO.P,TP1,1*%
%TO.N,+12V*%
X142875000Y-74676000D03*
%TD*%
%TO.P,TP3,1*%
%TO.N,Net-(U1-PB1(MISO{slash}DO{slash}AIN1{slash}OC0B{slash}OC1A{slash}PCINT1))*%
X142621000Y-84328000D03*
%TD*%
%TO.P,TP4,1*%
%TO.N,Net-(U1-PB2(SCK{slash}USCK{slash}SCL{slash}T0{slash}INT0{slash}ADC1{slash}PCINT2))*%
X142400000Y-91000000D03*
%TD*%
%TO.P,TP5,1*%
%TO.N,Net-(U1-PB5(~{RESET}{slash}dW{slash}ADC0{slash}PCINT5))*%
X150622000Y-103251000D03*
%TD*%
%TO.P,TP6,1*%
%TO.N,VCC*%
X158242000Y-74676000D03*
%TD*%
%TO.P,TP7,1*%
%TO.N,GND*%
X147066000Y-90170000D03*
%TD*%
%TO.P,TP8,1*%
%TO.N,Net-(U1-PB3(XTAL1{slash}CLKI{slash}~{OC1B}{slash}ADC3{slash}PCINT3))*%
X155194000Y-102362000D03*
%TD*%
%TO.P,TP9,1*%
%TO.N,Net-(U1-PB4(XTAL2{slash}CLKO{slash}OC1B{slash}ADC2{slash}PCINT4))*%
X157988000Y-102362000D03*
%TD*%
%TO.P,TP10,1*%
%TO.N,Net-(Q1-D)*%
X152146000Y-76581000D03*
%TD*%
%TO.P,TP11,1*%
%TO.N,Net-(D2-K)*%
X149225000Y-71374000D03*
%TD*%
%TO.P,TP12,1*%
%TO.N,Net-(D1-K)*%
X146685000Y-72263000D03*
%TD*%
D24*
%TO.P,C1,1*%
%TO.N,VCC*%
X161544000Y-95266000D03*
%TO.P,C1,2*%
%TO.N,GND*%
X161544000Y-97266000D03*
%TD*%
D18*
%TO.P,Q1,1,G*%
%TO.N,Net-(Q1-G)*%
X155133000Y-79359000D03*
%TO.P,Q1,2,S*%
%TO.N,GND*%
X157033000Y-79359000D03*
%TO.P,Q1,3,D*%
%TO.N,Net-(Q1-D)*%
X156083000Y-77359000D03*
%TD*%
D17*
%TO.P,TP2,1*%
%TO.N,Net-(BT1--)*%
X137541000Y-106172000D03*
%TD*%
D20*
%TO.P,C2,2*%
%TO.N,Net-(U1-PB3(XTAL1{slash}CLKI{slash}~{OC1B}{slash}ADC3{slash}PCINT3))*%
X152412000Y-105029000D03*
%TO.P,C2,1*%
%TO.N,GND*%
X153912000Y-105029000D03*
%TD*%
D25*
%TO.N,*%
X140335000Y-86614000D03*
X157099000Y-115062000D03*
%TD*%
D26*
%TO.N,Net-(BT1--)*%
X147483000Y-101133000D02*
X147483000Y-103167000D01*
X147483000Y-103167000D02*
X146304000Y-104346000D01*
X146304000Y-104346000D02*
X146304000Y-106198000D01*
X146304000Y-111506000D02*
X146304000Y-106198000D01*
X146304000Y-106198000D02*
X146278000Y-106172000D01*
X137541000Y-106172000D02*
X146278000Y-106172000D01*
X146278000Y-106172000D02*
X146300000Y-106150000D01*
D27*
%TO.N,Net-(U1-PB5(~{RESET}{slash}dW{slash}ADC0{slash}PCINT5))*%
X150622000Y-103251000D02*
X150622000Y-101678000D01*
X150622000Y-101678000D02*
X151072000Y-101228000D01*
X151072000Y-101228000D02*
X151983000Y-101228000D01*
X151983000Y-101228000D02*
X151983000Y-99817000D01*
X151983000Y-99817000D02*
X151983000Y-99187000D01*
%TO.N,Net-(U1-PB2(SCK{slash}USCK{slash}SCL{slash}T0{slash}INT0{slash}ADC1{slash}PCINT2))*%
X139029000Y-93048000D02*
X140352000Y-93048000D01*
X140352000Y-93048000D02*
X147802000Y-85598000D01*
X147802000Y-85598000D02*
X149987000Y-85598000D01*
X149987000Y-85598000D02*
X150241000Y-85344000D01*
X150749000Y-85344000D02*
X151749000Y-84344000D01*
X150241000Y-85344000D02*
X150749000Y-85344000D01*
X151749000Y-84344000D02*
X151953000Y-84344000D01*
D26*
%TO.N,GND*%
X147066000Y-90170000D02*
X143256000Y-93980000D01*
X136779000Y-102379000D02*
X136779000Y-80264000D01*
X143256000Y-93980000D02*
X143256000Y-100744000D01*
X143256000Y-100744000D02*
X140500000Y-103500000D01*
X140500000Y-103500000D02*
X137900000Y-103500000D01*
X138176000Y-78867000D02*
X153543000Y-78867000D01*
X137900000Y-103500000D02*
X136779000Y-102379000D01*
X154001000Y-78409000D02*
X154152998Y-78409000D01*
X136779000Y-80264000D02*
X138176000Y-78867000D01*
X153543000Y-78867000D02*
X154001000Y-78409000D01*
%TO.N,VCC*%
X161544000Y-95266000D02*
X161433000Y-95377000D01*
X161433000Y-95377000D02*
X157607000Y-95377000D01*
X157607000Y-95377000D02*
X155448000Y-93218000D01*
X155448000Y-93218000D02*
X155448000Y-91821000D01*
D27*
X148082000Y-74676000D02*
X150255002Y-74676000D01*
D26*
X147054000Y-74676000D02*
X148082000Y-74676000D01*
X150255002Y-74676000D02*
X151638000Y-74676000D01*
X151638000Y-74676000D02*
X158242000Y-74676000D01*
X161544000Y-95266000D02*
X161544000Y-78740000D01*
X162268000Y-74638000D02*
X161798000Y-74638000D01*
X161544000Y-78740000D02*
X162941000Y-77343000D01*
X162941000Y-77343000D02*
X162941000Y-75311000D01*
X162941000Y-75311000D02*
X162268000Y-74638000D01*
X158242000Y-74676000D02*
X161760000Y-74676000D01*
X161760000Y-74676000D02*
X161798000Y-74638000D01*
%TO.N,GND*%
X159258000Y-97266000D02*
X156829000Y-97266000D01*
X156829000Y-97266000D02*
X153924000Y-94361000D01*
X153924000Y-94361000D02*
X153924000Y-89694000D01*
X153924000Y-89694000D02*
X152638000Y-88408000D01*
X152638000Y-88408000D02*
X151003000Y-88408000D01*
X159258000Y-99220000D02*
X159258000Y-97266000D01*
X159258000Y-99220000D02*
X159258000Y-100795000D01*
X156476000Y-105029000D02*
X154940000Y-105029000D01*
D27*
X154609000Y-78409000D02*
X154152998Y-78409000D01*
X154152998Y-78409000D02*
X156133000Y-78409000D01*
X156133000Y-78409000D02*
X157033000Y-79309000D01*
X157033000Y-79309000D02*
X157033000Y-79359000D01*
D26*
X161798000Y-76238000D02*
X158677000Y-79359000D01*
X158677000Y-79359000D02*
X157033000Y-79359000D01*
X148828000Y-88408000D02*
X147066000Y-90170000D01*
X151003000Y-88408000D02*
X148828000Y-88408000D01*
X151003000Y-88408000D02*
X151003000Y-86344000D01*
X161544000Y-97266000D02*
X159258000Y-97266000D01*
X159258000Y-100795000D02*
X160020000Y-101557000D01*
X160020000Y-101557000D02*
X160020000Y-106426000D01*
X154940000Y-105029000D02*
X154559000Y-105029000D01*
X154559000Y-105029000D02*
X154686000Y-105156000D01*
X161417000Y-107823000D02*
X160020000Y-106426000D01*
X154686000Y-105156000D02*
X154686000Y-110617000D01*
X154686000Y-110617000D02*
X155575000Y-111506000D01*
X155575000Y-111506000D02*
X160655000Y-111506000D01*
X160655000Y-111506000D02*
X161417000Y-110744000D01*
X161417000Y-110744000D02*
X161417000Y-107823000D01*
X154940000Y-105029000D02*
X154154000Y-105029000D01*
%TO.N,Net-(D1-K)*%
X146685000Y-72263000D02*
X146685000Y-70134000D01*
X146685000Y-70134000D02*
X146715000Y-70104000D01*
X146782000Y-68580000D02*
X146782000Y-70037000D01*
X146782000Y-70037000D02*
X146715000Y-70104000D01*
%TO.N,+12V*%
X132969000Y-122047000D02*
X132969000Y-124587000D01*
X132207000Y-104775000D02*
X132969000Y-105537000D01*
X132969000Y-105537000D02*
X132969000Y-122047000D01*
X142862000Y-72009000D02*
X142862000Y-71514000D01*
X142862000Y-71514000D02*
X144115000Y-70261000D01*
X144115000Y-70261000D02*
X144115000Y-70231000D01*
X142875000Y-71996000D02*
X142862000Y-72009000D01*
X142862000Y-72009000D02*
X142862000Y-74676000D01*
X142862000Y-74676000D02*
X137287000Y-74676000D01*
X137287000Y-74676000D02*
X132207000Y-79756000D01*
X132207000Y-79756000D02*
X132207000Y-104775000D01*
X142862000Y-74409000D02*
X143129000Y-74676000D01*
X143129000Y-74676000D02*
X145427000Y-74676000D01*
X142862000Y-72009000D02*
X142862000Y-74409000D01*
%TO.N,Net-(BT1--)*%
X160909000Y-122047000D02*
X160909000Y-115951000D01*
X160909000Y-115951000D02*
X158115000Y-113157000D01*
X158115000Y-113157000D02*
X147955000Y-113157000D01*
X147955000Y-113157000D02*
X146304000Y-111506000D01*
X160909000Y-124587000D02*
X160909000Y-122047000D01*
X134529000Y-101128000D02*
X134529000Y-103160000D01*
X134529000Y-103160000D02*
X137541000Y-106172000D01*
X147483000Y-101008000D02*
X147483000Y-93048000D01*
D27*
X134529000Y-101008000D02*
X134529000Y-101128000D01*
X147483000Y-101008000D02*
X147483000Y-101133000D01*
D26*
X134529000Y-93048000D02*
X134529000Y-94323000D01*
X134529000Y-94323000D02*
X134529000Y-101008000D01*
X134529000Y-89578000D02*
X134529000Y-93048000D01*
X134529000Y-81618000D02*
X134529000Y-89578000D01*
D27*
%TO.N,Net-(U1-PB3(XTAL1{slash}CLKI{slash}~{OC1B}{slash}ADC3{slash}PCINT3))*%
X152400000Y-104095340D02*
X152412000Y-104107340D01*
X152412000Y-104107340D02*
X152412000Y-105029000D01*
X155194000Y-102362000D02*
X154133340Y-102362000D01*
X154133340Y-102362000D02*
X152400000Y-104095340D01*
X156718000Y-99220000D02*
X156718000Y-100838000D01*
X156718000Y-100838000D02*
X155194000Y-102362000D01*
X152412000Y-105029000D02*
X152412000Y-107605000D01*
X152412000Y-107605000D02*
X152400000Y-107617000D01*
X152400000Y-107617000D02*
X150797000Y-109220000D01*
D28*
X150797000Y-109220000D02*
X149547000Y-109220000D01*
D27*
%TO.N,Net-(U1-PB4(XTAL2{slash}CLKO{slash}OC1B{slash}ADC2{slash}PCINT4))*%
X157988000Y-99220000D02*
X157988000Y-100608000D01*
X157988000Y-102362000D02*
X157988000Y-105017000D01*
X157988000Y-105017000D02*
X157976000Y-105029000D01*
X157988000Y-102362000D02*
X157988000Y-100608000D01*
X157988000Y-100608000D02*
X157976000Y-100596000D01*
X158047000Y-109220000D02*
X158047000Y-105100000D01*
X158047000Y-105100000D02*
X157976000Y-105029000D01*
%TO.N,Net-(D2-K)*%
X149225000Y-73926000D02*
X149225000Y-73291000D01*
X149225000Y-71374000D02*
X149225000Y-73291000D01*
X149255000Y-68580000D02*
X149255000Y-71344000D01*
X149255000Y-71344000D02*
X149225000Y-71374000D01*
%TO.N,Net-(U1-PB2(SCK{slash}USCK{slash}SCL{slash}T0{slash}INT0{slash}ADC1{slash}PCINT2))*%
X156718000Y-89154000D02*
X156718000Y-91821000D01*
X156718000Y-89154000D02*
X151953000Y-84389000D01*
X151953000Y-84389000D02*
X151953000Y-84344000D01*
X139029000Y-93000000D02*
X139029000Y-93048000D01*
X139029000Y-93048000D02*
X139029000Y-101008000D01*
%TO.N,Net-(U1-PB1(MISO{slash}DO{slash}AIN1{slash}OC0B{slash}OC1A{slash}PCINT1))*%
X157988000Y-91821000D02*
X157988000Y-87376000D01*
X157988000Y-87376000D02*
X153543000Y-82931000D01*
X153543000Y-82931000D02*
X151130000Y-82931000D01*
X151130000Y-82931000D02*
X150053000Y-84008000D01*
X150053000Y-84008000D02*
X150053000Y-84344000D01*
X139029000Y-81618000D02*
X139029000Y-84455000D01*
X139029000Y-84455000D02*
X139029000Y-89578000D01*
X142621000Y-84328000D02*
X139156000Y-84328000D01*
X139156000Y-84328000D02*
X139029000Y-84455000D01*
X142621000Y-84328000D02*
X150037000Y-84328000D01*
X150037000Y-84328000D02*
X150053000Y-84344000D01*
X139029000Y-84344000D02*
X139029000Y-81618000D01*
%TO.N,Net-(U1-PB5(~{RESET}{slash}dW{slash}ADC0{slash}PCINT5))*%
X151953000Y-90408000D02*
X151953000Y-93018000D01*
X151953000Y-93018000D02*
X151983000Y-93048000D01*
X151983000Y-93048000D02*
X151983000Y-99187000D01*
X155448000Y-99220000D02*
X152016000Y-99220000D01*
X152016000Y-99220000D02*
X151983000Y-99187000D01*
%TO.N,Net-(Q1-G)*%
X159258000Y-86360000D02*
X159258000Y-91821000D01*
X159258000Y-84963000D02*
X155133000Y-80838000D01*
X155133000Y-80838000D02*
X155133000Y-79359000D01*
X159258000Y-86360000D02*
X159258000Y-84963000D01*
%TO.N,Net-(Q1-D)*%
X152146000Y-76581000D02*
X155305000Y-76581000D01*
X155305000Y-76581000D02*
X156083000Y-77359000D01*
X149225000Y-75426000D02*
X150380000Y-76581000D01*
X150380000Y-76581000D02*
X152146000Y-76581000D01*
%TD*%
M02*
