%TF.GenerationSoftware,KiCad,Pcbnew,8.0.7+dfsg-2*%
%TF.CreationDate,2024-12-30T00:21:24+01:00*%
%TF.ProjectId,strobe-torch,7374726f-6265-42d7-946f-7263682e6b69,1.1*%
%TF.SameCoordinates,Original*%
%TF.FileFunction,Legend,Top*%
%TF.FilePolarity,Positive*%
%FSLAX46Y46*%
G04 Gerber Fmt 4.6, Leading zero omitted, Abs format (unit mm)*
G04 Created by KiCad (PCBNEW 8.0.7+dfsg-2) date 2024-12-30 00:21:24*
%MOMM*%
%LPD*%
G01*
G04 APERTURE LIST*
%ADD10C,0.150000*%
%ADD11C,0.120000*%
G04 APERTURE END LIST*
D10*
X146090200Y-98361332D02*
X146137819Y-98218475D01*
X146137819Y-98218475D02*
X146137819Y-97980380D01*
X146137819Y-97980380D02*
X146090200Y-97885142D01*
X146090200Y-97885142D02*
X146042580Y-97837523D01*
X146042580Y-97837523D02*
X145947342Y-97789904D01*
X145947342Y-97789904D02*
X145852104Y-97789904D01*
X145852104Y-97789904D02*
X145756866Y-97837523D01*
X145756866Y-97837523D02*
X145709247Y-97885142D01*
X145709247Y-97885142D02*
X145661628Y-97980380D01*
X145661628Y-97980380D02*
X145614009Y-98170856D01*
X145614009Y-98170856D02*
X145566390Y-98266094D01*
X145566390Y-98266094D02*
X145518771Y-98313713D01*
X145518771Y-98313713D02*
X145423533Y-98361332D01*
X145423533Y-98361332D02*
X145328295Y-98361332D01*
X145328295Y-98361332D02*
X145233057Y-98313713D01*
X145233057Y-98313713D02*
X145185438Y-98266094D01*
X145185438Y-98266094D02*
X145137819Y-98170856D01*
X145137819Y-98170856D02*
X145137819Y-97932761D01*
X145137819Y-97932761D02*
X145185438Y-97789904D01*
X145137819Y-97456570D02*
X146137819Y-97218475D01*
X146137819Y-97218475D02*
X145423533Y-97027999D01*
X145423533Y-97027999D02*
X146137819Y-96837523D01*
X146137819Y-96837523D02*
X145137819Y-96599428D01*
X145137819Y-96313713D02*
X145137819Y-95694666D01*
X145137819Y-95694666D02*
X145518771Y-96027999D01*
X145518771Y-96027999D02*
X145518771Y-95885142D01*
X145518771Y-95885142D02*
X145566390Y-95789904D01*
X145566390Y-95789904D02*
X145614009Y-95742285D01*
X145614009Y-95742285D02*
X145709247Y-95694666D01*
X145709247Y-95694666D02*
X145947342Y-95694666D01*
X145947342Y-95694666D02*
X146042580Y-95742285D01*
X146042580Y-95742285D02*
X146090200Y-95789904D01*
X146090200Y-95789904D02*
X146137819Y-95885142D01*
X146137819Y-95885142D02*
X146137819Y-96170856D01*
X146137819Y-96170856D02*
X146090200Y-96266094D01*
X146090200Y-96266094D02*
X146042580Y-96313713D01*
X133136200Y-98361332D02*
X133183819Y-98218475D01*
X133183819Y-98218475D02*
X133183819Y-97980380D01*
X133183819Y-97980380D02*
X133136200Y-97885142D01*
X133136200Y-97885142D02*
X133088580Y-97837523D01*
X133088580Y-97837523D02*
X132993342Y-97789904D01*
X132993342Y-97789904D02*
X132898104Y-97789904D01*
X132898104Y-97789904D02*
X132802866Y-97837523D01*
X132802866Y-97837523D02*
X132755247Y-97885142D01*
X132755247Y-97885142D02*
X132707628Y-97980380D01*
X132707628Y-97980380D02*
X132660009Y-98170856D01*
X132660009Y-98170856D02*
X132612390Y-98266094D01*
X132612390Y-98266094D02*
X132564771Y-98313713D01*
X132564771Y-98313713D02*
X132469533Y-98361332D01*
X132469533Y-98361332D02*
X132374295Y-98361332D01*
X132374295Y-98361332D02*
X132279057Y-98313713D01*
X132279057Y-98313713D02*
X132231438Y-98266094D01*
X132231438Y-98266094D02*
X132183819Y-98170856D01*
X132183819Y-98170856D02*
X132183819Y-97932761D01*
X132183819Y-97932761D02*
X132231438Y-97789904D01*
X132183819Y-97456570D02*
X133183819Y-97218475D01*
X133183819Y-97218475D02*
X132469533Y-97027999D01*
X132469533Y-97027999D02*
X133183819Y-96837523D01*
X133183819Y-96837523D02*
X132183819Y-96599428D01*
X132279057Y-96266094D02*
X132231438Y-96218475D01*
X132231438Y-96218475D02*
X132183819Y-96123237D01*
X132183819Y-96123237D02*
X132183819Y-95885142D01*
X132183819Y-95885142D02*
X132231438Y-95789904D01*
X132231438Y-95789904D02*
X132279057Y-95742285D01*
X132279057Y-95742285D02*
X132374295Y-95694666D01*
X132374295Y-95694666D02*
X132469533Y-95694666D01*
X132469533Y-95694666D02*
X132612390Y-95742285D01*
X132612390Y-95742285D02*
X133183819Y-96313713D01*
X133183819Y-96313713D02*
X133183819Y-95694666D01*
X133136200Y-86931332D02*
X133183819Y-86788475D01*
X133183819Y-86788475D02*
X133183819Y-86550380D01*
X133183819Y-86550380D02*
X133136200Y-86455142D01*
X133136200Y-86455142D02*
X133088580Y-86407523D01*
X133088580Y-86407523D02*
X132993342Y-86359904D01*
X132993342Y-86359904D02*
X132898104Y-86359904D01*
X132898104Y-86359904D02*
X132802866Y-86407523D01*
X132802866Y-86407523D02*
X132755247Y-86455142D01*
X132755247Y-86455142D02*
X132707628Y-86550380D01*
X132707628Y-86550380D02*
X132660009Y-86740856D01*
X132660009Y-86740856D02*
X132612390Y-86836094D01*
X132612390Y-86836094D02*
X132564771Y-86883713D01*
X132564771Y-86883713D02*
X132469533Y-86931332D01*
X132469533Y-86931332D02*
X132374295Y-86931332D01*
X132374295Y-86931332D02*
X132279057Y-86883713D01*
X132279057Y-86883713D02*
X132231438Y-86836094D01*
X132231438Y-86836094D02*
X132183819Y-86740856D01*
X132183819Y-86740856D02*
X132183819Y-86502761D01*
X132183819Y-86502761D02*
X132231438Y-86359904D01*
X132183819Y-86026570D02*
X133183819Y-85788475D01*
X133183819Y-85788475D02*
X132469533Y-85597999D01*
X132469533Y-85597999D02*
X133183819Y-85407523D01*
X133183819Y-85407523D02*
X132183819Y-85169428D01*
X133183819Y-84264666D02*
X133183819Y-84836094D01*
X133183819Y-84550380D02*
X132183819Y-84550380D01*
X132183819Y-84550380D02*
X132326676Y-84645618D01*
X132326676Y-84645618D02*
X132421914Y-84740856D01*
X132421914Y-84740856D02*
X132469533Y-84836094D01*
X144422905Y-69161819D02*
X144422905Y-68161819D01*
X144422905Y-68161819D02*
X144661000Y-68161819D01*
X144661000Y-68161819D02*
X144803857Y-68209438D01*
X144803857Y-68209438D02*
X144899095Y-68304676D01*
X144899095Y-68304676D02*
X144946714Y-68399914D01*
X144946714Y-68399914D02*
X144994333Y-68590390D01*
X144994333Y-68590390D02*
X144994333Y-68733247D01*
X144994333Y-68733247D02*
X144946714Y-68923723D01*
X144946714Y-68923723D02*
X144899095Y-69018961D01*
X144899095Y-69018961D02*
X144803857Y-69114200D01*
X144803857Y-69114200D02*
X144661000Y-69161819D01*
X144661000Y-69161819D02*
X144422905Y-69161819D01*
X145375286Y-68257057D02*
X145422905Y-68209438D01*
X145422905Y-68209438D02*
X145518143Y-68161819D01*
X145518143Y-68161819D02*
X145756238Y-68161819D01*
X145756238Y-68161819D02*
X145851476Y-68209438D01*
X145851476Y-68209438D02*
X145899095Y-68257057D01*
X145899095Y-68257057D02*
X145946714Y-68352295D01*
X145946714Y-68352295D02*
X145946714Y-68447533D01*
X145946714Y-68447533D02*
X145899095Y-68590390D01*
X145899095Y-68590390D02*
X145327667Y-69161819D01*
X145327667Y-69161819D02*
X145946714Y-69161819D01*
X143152905Y-72082819D02*
X143152905Y-71082819D01*
X143152905Y-71082819D02*
X143391000Y-71082819D01*
X143391000Y-71082819D02*
X143533857Y-71130438D01*
X143533857Y-71130438D02*
X143629095Y-71225676D01*
X143629095Y-71225676D02*
X143676714Y-71320914D01*
X143676714Y-71320914D02*
X143724333Y-71511390D01*
X143724333Y-71511390D02*
X143724333Y-71654247D01*
X143724333Y-71654247D02*
X143676714Y-71844723D01*
X143676714Y-71844723D02*
X143629095Y-71939961D01*
X143629095Y-71939961D02*
X143533857Y-72035200D01*
X143533857Y-72035200D02*
X143391000Y-72082819D01*
X143391000Y-72082819D02*
X143152905Y-72082819D01*
X144676714Y-72082819D02*
X144105286Y-72082819D01*
X144391000Y-72082819D02*
X144391000Y-71082819D01*
X144391000Y-71082819D02*
X144295762Y-71225676D01*
X144295762Y-71225676D02*
X144200524Y-71320914D01*
X144200524Y-71320914D02*
X144105286Y-71368533D01*
X136501285Y-122740009D02*
X136644142Y-122787628D01*
X136644142Y-122787628D02*
X136691761Y-122835247D01*
X136691761Y-122835247D02*
X136739380Y-122930485D01*
X136739380Y-122930485D02*
X136739380Y-123073342D01*
X136739380Y-123073342D02*
X136691761Y-123168580D01*
X136691761Y-123168580D02*
X136644142Y-123216200D01*
X136644142Y-123216200D02*
X136548904Y-123263819D01*
X136548904Y-123263819D02*
X136167952Y-123263819D01*
X136167952Y-123263819D02*
X136167952Y-122263819D01*
X136167952Y-122263819D02*
X136501285Y-122263819D01*
X136501285Y-122263819D02*
X136596523Y-122311438D01*
X136596523Y-122311438D02*
X136644142Y-122359057D01*
X136644142Y-122359057D02*
X136691761Y-122454295D01*
X136691761Y-122454295D02*
X136691761Y-122549533D01*
X136691761Y-122549533D02*
X136644142Y-122644771D01*
X136644142Y-122644771D02*
X136596523Y-122692390D01*
X136596523Y-122692390D02*
X136501285Y-122740009D01*
X136501285Y-122740009D02*
X136167952Y-122740009D01*
X137025095Y-122263819D02*
X137596523Y-122263819D01*
X137310809Y-123263819D02*
X137310809Y-122263819D01*
X138453666Y-123263819D02*
X137882238Y-123263819D01*
X138167952Y-123263819D02*
X138167952Y-122263819D01*
X138167952Y-122263819D02*
X138072714Y-122406676D01*
X138072714Y-122406676D02*
X137977476Y-122501914D01*
X137977476Y-122501914D02*
X137882238Y-122549533D01*
X160401095Y-91148819D02*
X160401095Y-91958342D01*
X160401095Y-91958342D02*
X160448714Y-92053580D01*
X160448714Y-92053580D02*
X160496333Y-92101200D01*
X160496333Y-92101200D02*
X160591571Y-92148819D01*
X160591571Y-92148819D02*
X160782047Y-92148819D01*
X160782047Y-92148819D02*
X160877285Y-92101200D01*
X160877285Y-92101200D02*
X160924904Y-92053580D01*
X160924904Y-92053580D02*
X160972523Y-91958342D01*
X160972523Y-91958342D02*
X160972523Y-91148819D01*
X161972523Y-92148819D02*
X161401095Y-92148819D01*
X161686809Y-92148819D02*
X161686809Y-91148819D01*
X161686809Y-91148819D02*
X161591571Y-91291676D01*
X161591571Y-91291676D02*
X161496333Y-91386914D01*
X161496333Y-91386914D02*
X161401095Y-91434533D01*
X157519905Y-86195819D02*
X158091333Y-86195819D01*
X157805619Y-87195819D02*
X157805619Y-86195819D01*
X158424667Y-87195819D02*
X158424667Y-86195819D01*
X158424667Y-86195819D02*
X158805619Y-86195819D01*
X158805619Y-86195819D02*
X158900857Y-86243438D01*
X158900857Y-86243438D02*
X158948476Y-86291057D01*
X158948476Y-86291057D02*
X158996095Y-86386295D01*
X158996095Y-86386295D02*
X158996095Y-86529152D01*
X158996095Y-86529152D02*
X158948476Y-86624390D01*
X158948476Y-86624390D02*
X158900857Y-86672009D01*
X158900857Y-86672009D02*
X158805619Y-86719628D01*
X158805619Y-86719628D02*
X158424667Y-86719628D01*
X159948476Y-87195819D02*
X159377048Y-87195819D01*
X159662762Y-87195819D02*
X159662762Y-86195819D01*
X159662762Y-86195819D02*
X159567524Y-86338676D01*
X159567524Y-86338676D02*
X159472286Y-86433914D01*
X159472286Y-86433914D02*
X159377048Y-86481533D01*
X160281810Y-86195819D02*
X160900857Y-86195819D01*
X160900857Y-86195819D02*
X160567524Y-86576771D01*
X160567524Y-86576771D02*
X160710381Y-86576771D01*
X160710381Y-86576771D02*
X160805619Y-86624390D01*
X160805619Y-86624390D02*
X160853238Y-86672009D01*
X160853238Y-86672009D02*
X160900857Y-86767247D01*
X160900857Y-86767247D02*
X160900857Y-87005342D01*
X160900857Y-87005342D02*
X160853238Y-87100580D01*
X160853238Y-87100580D02*
X160805619Y-87148200D01*
X160805619Y-87148200D02*
X160710381Y-87195819D01*
X160710381Y-87195819D02*
X160424667Y-87195819D01*
X160424667Y-87195819D02*
X160329429Y-87148200D01*
X160329429Y-87148200D02*
X160281810Y-87100580D01*
X153185905Y-89989819D02*
X153185905Y-88989819D01*
X153185905Y-88989819D02*
X153424000Y-88989819D01*
X153424000Y-88989819D02*
X153566857Y-89037438D01*
X153566857Y-89037438D02*
X153662095Y-89132676D01*
X153662095Y-89132676D02*
X153709714Y-89227914D01*
X153709714Y-89227914D02*
X153757333Y-89418390D01*
X153757333Y-89418390D02*
X153757333Y-89561247D01*
X153757333Y-89561247D02*
X153709714Y-89751723D01*
X153709714Y-89751723D02*
X153662095Y-89846961D01*
X153662095Y-89846961D02*
X153566857Y-89942200D01*
X153566857Y-89942200D02*
X153424000Y-89989819D01*
X153424000Y-89989819D02*
X153185905Y-89989819D01*
X154662095Y-88989819D02*
X154185905Y-88989819D01*
X154185905Y-88989819D02*
X154138286Y-89466009D01*
X154138286Y-89466009D02*
X154185905Y-89418390D01*
X154185905Y-89418390D02*
X154281143Y-89370771D01*
X154281143Y-89370771D02*
X154519238Y-89370771D01*
X154519238Y-89370771D02*
X154614476Y-89418390D01*
X154614476Y-89418390D02*
X154662095Y-89466009D01*
X154662095Y-89466009D02*
X154709714Y-89561247D01*
X154709714Y-89561247D02*
X154709714Y-89799342D01*
X154709714Y-89799342D02*
X154662095Y-89894580D01*
X154662095Y-89894580D02*
X154614476Y-89942200D01*
X154614476Y-89942200D02*
X154519238Y-89989819D01*
X154519238Y-89989819D02*
X154281143Y-89989819D01*
X154281143Y-89989819D02*
X154185905Y-89942200D01*
X154185905Y-89942200D02*
X154138286Y-89894580D01*
X153185905Y-85544819D02*
X153185905Y-84544819D01*
X153185905Y-84544819D02*
X153424000Y-84544819D01*
X153424000Y-84544819D02*
X153566857Y-84592438D01*
X153566857Y-84592438D02*
X153662095Y-84687676D01*
X153662095Y-84687676D02*
X153709714Y-84782914D01*
X153709714Y-84782914D02*
X153757333Y-84973390D01*
X153757333Y-84973390D02*
X153757333Y-85116247D01*
X153757333Y-85116247D02*
X153709714Y-85306723D01*
X153709714Y-85306723D02*
X153662095Y-85401961D01*
X153662095Y-85401961D02*
X153566857Y-85497200D01*
X153566857Y-85497200D02*
X153424000Y-85544819D01*
X153424000Y-85544819D02*
X153185905Y-85544819D01*
X154614476Y-84878152D02*
X154614476Y-85544819D01*
X154376381Y-84497200D02*
X154138286Y-85211485D01*
X154138286Y-85211485D02*
X154757333Y-85211485D01*
X161067809Y-111357628D02*
X161067809Y-111833819D01*
X160734476Y-110833819D02*
X161067809Y-111357628D01*
X161067809Y-111357628D02*
X161401142Y-110833819D01*
X162258285Y-111833819D02*
X161686857Y-111833819D01*
X161972571Y-111833819D02*
X161972571Y-110833819D01*
X161972571Y-110833819D02*
X161877333Y-110976676D01*
X161877333Y-110976676D02*
X161782095Y-111071914D01*
X161782095Y-111071914D02*
X161686857Y-111119533D01*
X159599333Y-105388580D02*
X159551714Y-105436200D01*
X159551714Y-105436200D02*
X159408857Y-105483819D01*
X159408857Y-105483819D02*
X159313619Y-105483819D01*
X159313619Y-105483819D02*
X159170762Y-105436200D01*
X159170762Y-105436200D02*
X159075524Y-105340961D01*
X159075524Y-105340961D02*
X159027905Y-105245723D01*
X159027905Y-105245723D02*
X158980286Y-105055247D01*
X158980286Y-105055247D02*
X158980286Y-104912390D01*
X158980286Y-104912390D02*
X159027905Y-104721914D01*
X159027905Y-104721914D02*
X159075524Y-104626676D01*
X159075524Y-104626676D02*
X159170762Y-104531438D01*
X159170762Y-104531438D02*
X159313619Y-104483819D01*
X159313619Y-104483819D02*
X159408857Y-104483819D01*
X159408857Y-104483819D02*
X159551714Y-104531438D01*
X159551714Y-104531438D02*
X159599333Y-104579057D01*
X159932667Y-104483819D02*
X160551714Y-104483819D01*
X160551714Y-104483819D02*
X160218381Y-104864771D01*
X160218381Y-104864771D02*
X160361238Y-104864771D01*
X160361238Y-104864771D02*
X160456476Y-104912390D01*
X160456476Y-104912390D02*
X160504095Y-104960009D01*
X160504095Y-104960009D02*
X160551714Y-105055247D01*
X160551714Y-105055247D02*
X160551714Y-105293342D01*
X160551714Y-105293342D02*
X160504095Y-105388580D01*
X160504095Y-105388580D02*
X160456476Y-105436200D01*
X160456476Y-105436200D02*
X160361238Y-105483819D01*
X160361238Y-105483819D02*
X160075524Y-105483819D01*
X160075524Y-105483819D02*
X159980286Y-105436200D01*
X159980286Y-105436200D02*
X159932667Y-105388580D01*
X160932905Y-78305819D02*
X160932905Y-77305819D01*
X160932905Y-77305819D02*
X161171000Y-77305819D01*
X161171000Y-77305819D02*
X161313857Y-77353438D01*
X161313857Y-77353438D02*
X161409095Y-77448676D01*
X161409095Y-77448676D02*
X161456714Y-77543914D01*
X161456714Y-77543914D02*
X161504333Y-77734390D01*
X161504333Y-77734390D02*
X161504333Y-77877247D01*
X161504333Y-77877247D02*
X161456714Y-78067723D01*
X161456714Y-78067723D02*
X161409095Y-78162961D01*
X161409095Y-78162961D02*
X161313857Y-78258200D01*
X161313857Y-78258200D02*
X161171000Y-78305819D01*
X161171000Y-78305819D02*
X160932905Y-78305819D01*
X161837667Y-77305819D02*
X162456714Y-77305819D01*
X162456714Y-77305819D02*
X162123381Y-77686771D01*
X162123381Y-77686771D02*
X162266238Y-77686771D01*
X162266238Y-77686771D02*
X162361476Y-77734390D01*
X162361476Y-77734390D02*
X162409095Y-77782009D01*
X162409095Y-77782009D02*
X162456714Y-77877247D01*
X162456714Y-77877247D02*
X162456714Y-78115342D01*
X162456714Y-78115342D02*
X162409095Y-78210580D01*
X162409095Y-78210580D02*
X162361476Y-78258200D01*
X162361476Y-78258200D02*
X162266238Y-78305819D01*
X162266238Y-78305819D02*
X161980524Y-78305819D01*
X161980524Y-78305819D02*
X161885286Y-78258200D01*
X161885286Y-78258200D02*
X161837667Y-78210580D01*
X146010333Y-76580819D02*
X145677000Y-76104628D01*
X145438905Y-76580819D02*
X145438905Y-75580819D01*
X145438905Y-75580819D02*
X145819857Y-75580819D01*
X145819857Y-75580819D02*
X145915095Y-75628438D01*
X145915095Y-75628438D02*
X145962714Y-75676057D01*
X145962714Y-75676057D02*
X146010333Y-75771295D01*
X146010333Y-75771295D02*
X146010333Y-75914152D01*
X146010333Y-75914152D02*
X145962714Y-76009390D01*
X145962714Y-76009390D02*
X145915095Y-76057009D01*
X145915095Y-76057009D02*
X145819857Y-76104628D01*
X145819857Y-76104628D02*
X145438905Y-76104628D01*
X146962714Y-76580819D02*
X146391286Y-76580819D01*
X146677000Y-76580819D02*
X146677000Y-75580819D01*
X146677000Y-75580819D02*
X146581762Y-75723676D01*
X146581762Y-75723676D02*
X146486524Y-75818914D01*
X146486524Y-75818914D02*
X146391286Y-75866533D01*
X150963333Y-75130819D02*
X150630000Y-74654628D01*
X150391905Y-75130819D02*
X150391905Y-74130819D01*
X150391905Y-74130819D02*
X150772857Y-74130819D01*
X150772857Y-74130819D02*
X150868095Y-74178438D01*
X150868095Y-74178438D02*
X150915714Y-74226057D01*
X150915714Y-74226057D02*
X150963333Y-74321295D01*
X150963333Y-74321295D02*
X150963333Y-74464152D01*
X150963333Y-74464152D02*
X150915714Y-74559390D01*
X150915714Y-74559390D02*
X150868095Y-74607009D01*
X150868095Y-74607009D02*
X150772857Y-74654628D01*
X150772857Y-74654628D02*
X150391905Y-74654628D01*
X151344286Y-74226057D02*
X151391905Y-74178438D01*
X151391905Y-74178438D02*
X151487143Y-74130819D01*
X151487143Y-74130819D02*
X151725238Y-74130819D01*
X151725238Y-74130819D02*
X151820476Y-74178438D01*
X151820476Y-74178438D02*
X151868095Y-74226057D01*
X151868095Y-74226057D02*
X151915714Y-74321295D01*
X151915714Y-74321295D02*
X151915714Y-74416533D01*
X151915714Y-74416533D02*
X151868095Y-74559390D01*
X151868095Y-74559390D02*
X151296667Y-75130819D01*
X151296667Y-75130819D02*
X151915714Y-75130819D01*
X141486095Y-76035819D02*
X142057523Y-76035819D01*
X141771809Y-77035819D02*
X141771809Y-76035819D01*
X142390857Y-77035819D02*
X142390857Y-76035819D01*
X142390857Y-76035819D02*
X142771809Y-76035819D01*
X142771809Y-76035819D02*
X142867047Y-76083438D01*
X142867047Y-76083438D02*
X142914666Y-76131057D01*
X142914666Y-76131057D02*
X142962285Y-76226295D01*
X142962285Y-76226295D02*
X142962285Y-76369152D01*
X142962285Y-76369152D02*
X142914666Y-76464390D01*
X142914666Y-76464390D02*
X142867047Y-76512009D01*
X142867047Y-76512009D02*
X142771809Y-76559628D01*
X142771809Y-76559628D02*
X142390857Y-76559628D01*
X143914666Y-77035819D02*
X143343238Y-77035819D01*
X143628952Y-77035819D02*
X143628952Y-76035819D01*
X143628952Y-76035819D02*
X143533714Y-76178676D01*
X143533714Y-76178676D02*
X143438476Y-76273914D01*
X143438476Y-76273914D02*
X143343238Y-76321533D01*
X141359095Y-85687819D02*
X141930523Y-85687819D01*
X141644809Y-86687819D02*
X141644809Y-85687819D01*
X142263857Y-86687819D02*
X142263857Y-85687819D01*
X142263857Y-85687819D02*
X142644809Y-85687819D01*
X142644809Y-85687819D02*
X142740047Y-85735438D01*
X142740047Y-85735438D02*
X142787666Y-85783057D01*
X142787666Y-85783057D02*
X142835285Y-85878295D01*
X142835285Y-85878295D02*
X142835285Y-86021152D01*
X142835285Y-86021152D02*
X142787666Y-86116390D01*
X142787666Y-86116390D02*
X142740047Y-86164009D01*
X142740047Y-86164009D02*
X142644809Y-86211628D01*
X142644809Y-86211628D02*
X142263857Y-86211628D01*
X143168619Y-85687819D02*
X143787666Y-85687819D01*
X143787666Y-85687819D02*
X143454333Y-86068771D01*
X143454333Y-86068771D02*
X143597190Y-86068771D01*
X143597190Y-86068771D02*
X143692428Y-86116390D01*
X143692428Y-86116390D02*
X143740047Y-86164009D01*
X143740047Y-86164009D02*
X143787666Y-86259247D01*
X143787666Y-86259247D02*
X143787666Y-86497342D01*
X143787666Y-86497342D02*
X143740047Y-86592580D01*
X143740047Y-86592580D02*
X143692428Y-86640200D01*
X143692428Y-86640200D02*
X143597190Y-86687819D01*
X143597190Y-86687819D02*
X143311476Y-86687819D01*
X143311476Y-86687819D02*
X143216238Y-86640200D01*
X143216238Y-86640200D02*
X143168619Y-86592580D01*
X141138095Y-92232819D02*
X141709523Y-92232819D01*
X141423809Y-93232819D02*
X141423809Y-92232819D01*
X142042857Y-93232819D02*
X142042857Y-92232819D01*
X142042857Y-92232819D02*
X142423809Y-92232819D01*
X142423809Y-92232819D02*
X142519047Y-92280438D01*
X142519047Y-92280438D02*
X142566666Y-92328057D01*
X142566666Y-92328057D02*
X142614285Y-92423295D01*
X142614285Y-92423295D02*
X142614285Y-92566152D01*
X142614285Y-92566152D02*
X142566666Y-92661390D01*
X142566666Y-92661390D02*
X142519047Y-92709009D01*
X142519047Y-92709009D02*
X142423809Y-92756628D01*
X142423809Y-92756628D02*
X142042857Y-92756628D01*
X143471428Y-92566152D02*
X143471428Y-93232819D01*
X143233333Y-92185200D02*
X142995238Y-92899485D01*
X142995238Y-92899485D02*
X143614285Y-92899485D01*
X147074095Y-103086819D02*
X147645523Y-103086819D01*
X147359809Y-104086819D02*
X147359809Y-103086819D01*
X147978857Y-104086819D02*
X147978857Y-103086819D01*
X147978857Y-103086819D02*
X148359809Y-103086819D01*
X148359809Y-103086819D02*
X148455047Y-103134438D01*
X148455047Y-103134438D02*
X148502666Y-103182057D01*
X148502666Y-103182057D02*
X148550285Y-103277295D01*
X148550285Y-103277295D02*
X148550285Y-103420152D01*
X148550285Y-103420152D02*
X148502666Y-103515390D01*
X148502666Y-103515390D02*
X148455047Y-103563009D01*
X148455047Y-103563009D02*
X148359809Y-103610628D01*
X148359809Y-103610628D02*
X147978857Y-103610628D01*
X149455047Y-103086819D02*
X148978857Y-103086819D01*
X148978857Y-103086819D02*
X148931238Y-103563009D01*
X148931238Y-103563009D02*
X148978857Y-103515390D01*
X148978857Y-103515390D02*
X149074095Y-103467771D01*
X149074095Y-103467771D02*
X149312190Y-103467771D01*
X149312190Y-103467771D02*
X149407428Y-103515390D01*
X149407428Y-103515390D02*
X149455047Y-103563009D01*
X149455047Y-103563009D02*
X149502666Y-103658247D01*
X149502666Y-103658247D02*
X149502666Y-103896342D01*
X149502666Y-103896342D02*
X149455047Y-103991580D01*
X149455047Y-103991580D02*
X149407428Y-104039200D01*
X149407428Y-104039200D02*
X149312190Y-104086819D01*
X149312190Y-104086819D02*
X149074095Y-104086819D01*
X149074095Y-104086819D02*
X148978857Y-104039200D01*
X148978857Y-104039200D02*
X148931238Y-103991580D01*
X156980095Y-72130819D02*
X157551523Y-72130819D01*
X157265809Y-73130819D02*
X157265809Y-72130819D01*
X157884857Y-73130819D02*
X157884857Y-72130819D01*
X157884857Y-72130819D02*
X158265809Y-72130819D01*
X158265809Y-72130819D02*
X158361047Y-72178438D01*
X158361047Y-72178438D02*
X158408666Y-72226057D01*
X158408666Y-72226057D02*
X158456285Y-72321295D01*
X158456285Y-72321295D02*
X158456285Y-72464152D01*
X158456285Y-72464152D02*
X158408666Y-72559390D01*
X158408666Y-72559390D02*
X158361047Y-72607009D01*
X158361047Y-72607009D02*
X158265809Y-72654628D01*
X158265809Y-72654628D02*
X157884857Y-72654628D01*
X159313428Y-72130819D02*
X159122952Y-72130819D01*
X159122952Y-72130819D02*
X159027714Y-72178438D01*
X159027714Y-72178438D02*
X158980095Y-72226057D01*
X158980095Y-72226057D02*
X158884857Y-72368914D01*
X158884857Y-72368914D02*
X158837238Y-72559390D01*
X158837238Y-72559390D02*
X158837238Y-72940342D01*
X158837238Y-72940342D02*
X158884857Y-73035580D01*
X158884857Y-73035580D02*
X158932476Y-73083200D01*
X158932476Y-73083200D02*
X159027714Y-73130819D01*
X159027714Y-73130819D02*
X159218190Y-73130819D01*
X159218190Y-73130819D02*
X159313428Y-73083200D01*
X159313428Y-73083200D02*
X159361047Y-73035580D01*
X159361047Y-73035580D02*
X159408666Y-72940342D01*
X159408666Y-72940342D02*
X159408666Y-72702247D01*
X159408666Y-72702247D02*
X159361047Y-72607009D01*
X159361047Y-72607009D02*
X159313428Y-72559390D01*
X159313428Y-72559390D02*
X159218190Y-72511771D01*
X159218190Y-72511771D02*
X159027714Y-72511771D01*
X159027714Y-72511771D02*
X158932476Y-72559390D01*
X158932476Y-72559390D02*
X158884857Y-72607009D01*
X158884857Y-72607009D02*
X158837238Y-72702247D01*
X145804095Y-87624819D02*
X146375523Y-87624819D01*
X146089809Y-88624819D02*
X146089809Y-87624819D01*
X146708857Y-88624819D02*
X146708857Y-87624819D01*
X146708857Y-87624819D02*
X147089809Y-87624819D01*
X147089809Y-87624819D02*
X147185047Y-87672438D01*
X147185047Y-87672438D02*
X147232666Y-87720057D01*
X147232666Y-87720057D02*
X147280285Y-87815295D01*
X147280285Y-87815295D02*
X147280285Y-87958152D01*
X147280285Y-87958152D02*
X147232666Y-88053390D01*
X147232666Y-88053390D02*
X147185047Y-88101009D01*
X147185047Y-88101009D02*
X147089809Y-88148628D01*
X147089809Y-88148628D02*
X146708857Y-88148628D01*
X147613619Y-87624819D02*
X148280285Y-87624819D01*
X148280285Y-87624819D02*
X147851714Y-88624819D01*
X151900095Y-102832819D02*
X152471523Y-102832819D01*
X152185809Y-103832819D02*
X152185809Y-102832819D01*
X152804857Y-103832819D02*
X152804857Y-102832819D01*
X152804857Y-102832819D02*
X153185809Y-102832819D01*
X153185809Y-102832819D02*
X153281047Y-102880438D01*
X153281047Y-102880438D02*
X153328666Y-102928057D01*
X153328666Y-102928057D02*
X153376285Y-103023295D01*
X153376285Y-103023295D02*
X153376285Y-103166152D01*
X153376285Y-103166152D02*
X153328666Y-103261390D01*
X153328666Y-103261390D02*
X153281047Y-103309009D01*
X153281047Y-103309009D02*
X153185809Y-103356628D01*
X153185809Y-103356628D02*
X152804857Y-103356628D01*
X153947714Y-103261390D02*
X153852476Y-103213771D01*
X153852476Y-103213771D02*
X153804857Y-103166152D01*
X153804857Y-103166152D02*
X153757238Y-103070914D01*
X153757238Y-103070914D02*
X153757238Y-103023295D01*
X153757238Y-103023295D02*
X153804857Y-102928057D01*
X153804857Y-102928057D02*
X153852476Y-102880438D01*
X153852476Y-102880438D02*
X153947714Y-102832819D01*
X153947714Y-102832819D02*
X154138190Y-102832819D01*
X154138190Y-102832819D02*
X154233428Y-102880438D01*
X154233428Y-102880438D02*
X154281047Y-102928057D01*
X154281047Y-102928057D02*
X154328666Y-103023295D01*
X154328666Y-103023295D02*
X154328666Y-103070914D01*
X154328666Y-103070914D02*
X154281047Y-103166152D01*
X154281047Y-103166152D02*
X154233428Y-103213771D01*
X154233428Y-103213771D02*
X154138190Y-103261390D01*
X154138190Y-103261390D02*
X153947714Y-103261390D01*
X153947714Y-103261390D02*
X153852476Y-103309009D01*
X153852476Y-103309009D02*
X153804857Y-103356628D01*
X153804857Y-103356628D02*
X153757238Y-103451866D01*
X153757238Y-103451866D02*
X153757238Y-103642342D01*
X153757238Y-103642342D02*
X153804857Y-103737580D01*
X153804857Y-103737580D02*
X153852476Y-103785200D01*
X153852476Y-103785200D02*
X153947714Y-103832819D01*
X153947714Y-103832819D02*
X154138190Y-103832819D01*
X154138190Y-103832819D02*
X154233428Y-103785200D01*
X154233428Y-103785200D02*
X154281047Y-103737580D01*
X154281047Y-103737580D02*
X154328666Y-103642342D01*
X154328666Y-103642342D02*
X154328666Y-103451866D01*
X154328666Y-103451866D02*
X154281047Y-103356628D01*
X154281047Y-103356628D02*
X154233428Y-103309009D01*
X154233428Y-103309009D02*
X154138190Y-103261390D01*
X159520095Y-101943819D02*
X160091523Y-101943819D01*
X159805809Y-102943819D02*
X159805809Y-101943819D01*
X160424857Y-102943819D02*
X160424857Y-101943819D01*
X160424857Y-101943819D02*
X160805809Y-101943819D01*
X160805809Y-101943819D02*
X160901047Y-101991438D01*
X160901047Y-101991438D02*
X160948666Y-102039057D01*
X160948666Y-102039057D02*
X160996285Y-102134295D01*
X160996285Y-102134295D02*
X160996285Y-102277152D01*
X160996285Y-102277152D02*
X160948666Y-102372390D01*
X160948666Y-102372390D02*
X160901047Y-102420009D01*
X160901047Y-102420009D02*
X160805809Y-102467628D01*
X160805809Y-102467628D02*
X160424857Y-102467628D01*
X161472476Y-102943819D02*
X161662952Y-102943819D01*
X161662952Y-102943819D02*
X161758190Y-102896200D01*
X161758190Y-102896200D02*
X161805809Y-102848580D01*
X161805809Y-102848580D02*
X161901047Y-102705723D01*
X161901047Y-102705723D02*
X161948666Y-102515247D01*
X161948666Y-102515247D02*
X161948666Y-102134295D01*
X161948666Y-102134295D02*
X161901047Y-102039057D01*
X161901047Y-102039057D02*
X161853428Y-101991438D01*
X161853428Y-101991438D02*
X161758190Y-101943819D01*
X161758190Y-101943819D02*
X161567714Y-101943819D01*
X161567714Y-101943819D02*
X161472476Y-101991438D01*
X161472476Y-101991438D02*
X161424857Y-102039057D01*
X161424857Y-102039057D02*
X161377238Y-102134295D01*
X161377238Y-102134295D02*
X161377238Y-102372390D01*
X161377238Y-102372390D02*
X161424857Y-102467628D01*
X161424857Y-102467628D02*
X161472476Y-102515247D01*
X161472476Y-102515247D02*
X161567714Y-102562866D01*
X161567714Y-102562866D02*
X161758190Y-102562866D01*
X161758190Y-102562866D02*
X161853428Y-102515247D01*
X161853428Y-102515247D02*
X161901047Y-102467628D01*
X161901047Y-102467628D02*
X161948666Y-102372390D01*
X149264905Y-77686819D02*
X149836333Y-77686819D01*
X149550619Y-78686819D02*
X149550619Y-77686819D01*
X150169667Y-78686819D02*
X150169667Y-77686819D01*
X150169667Y-77686819D02*
X150550619Y-77686819D01*
X150550619Y-77686819D02*
X150645857Y-77734438D01*
X150645857Y-77734438D02*
X150693476Y-77782057D01*
X150693476Y-77782057D02*
X150741095Y-77877295D01*
X150741095Y-77877295D02*
X150741095Y-78020152D01*
X150741095Y-78020152D02*
X150693476Y-78115390D01*
X150693476Y-78115390D02*
X150645857Y-78163009D01*
X150645857Y-78163009D02*
X150550619Y-78210628D01*
X150550619Y-78210628D02*
X150169667Y-78210628D01*
X151693476Y-78686819D02*
X151122048Y-78686819D01*
X151407762Y-78686819D02*
X151407762Y-77686819D01*
X151407762Y-77686819D02*
X151312524Y-77829676D01*
X151312524Y-77829676D02*
X151217286Y-77924914D01*
X151217286Y-77924914D02*
X151122048Y-77972533D01*
X152312524Y-77686819D02*
X152407762Y-77686819D01*
X152407762Y-77686819D02*
X152503000Y-77734438D01*
X152503000Y-77734438D02*
X152550619Y-77782057D01*
X152550619Y-77782057D02*
X152598238Y-77877295D01*
X152598238Y-77877295D02*
X152645857Y-78067771D01*
X152645857Y-78067771D02*
X152645857Y-78305866D01*
X152645857Y-78305866D02*
X152598238Y-78496342D01*
X152598238Y-78496342D02*
X152550619Y-78591580D01*
X152550619Y-78591580D02*
X152503000Y-78639200D01*
X152503000Y-78639200D02*
X152407762Y-78686819D01*
X152407762Y-78686819D02*
X152312524Y-78686819D01*
X152312524Y-78686819D02*
X152217286Y-78639200D01*
X152217286Y-78639200D02*
X152169667Y-78591580D01*
X152169667Y-78591580D02*
X152122048Y-78496342D01*
X152122048Y-78496342D02*
X152074429Y-78305866D01*
X152074429Y-78305866D02*
X152074429Y-78067771D01*
X152074429Y-78067771D02*
X152122048Y-77877295D01*
X152122048Y-77877295D02*
X152169667Y-77782057D01*
X152169667Y-77782057D02*
X152217286Y-77734438D01*
X152217286Y-77734438D02*
X152312524Y-77686819D01*
X150153905Y-71971819D02*
X150725333Y-71971819D01*
X150439619Y-72971819D02*
X150439619Y-71971819D01*
X151058667Y-72971819D02*
X151058667Y-71971819D01*
X151058667Y-71971819D02*
X151439619Y-71971819D01*
X151439619Y-71971819D02*
X151534857Y-72019438D01*
X151534857Y-72019438D02*
X151582476Y-72067057D01*
X151582476Y-72067057D02*
X151630095Y-72162295D01*
X151630095Y-72162295D02*
X151630095Y-72305152D01*
X151630095Y-72305152D02*
X151582476Y-72400390D01*
X151582476Y-72400390D02*
X151534857Y-72448009D01*
X151534857Y-72448009D02*
X151439619Y-72495628D01*
X151439619Y-72495628D02*
X151058667Y-72495628D01*
X152582476Y-72971819D02*
X152011048Y-72971819D01*
X152296762Y-72971819D02*
X152296762Y-71971819D01*
X152296762Y-71971819D02*
X152201524Y-72114676D01*
X152201524Y-72114676D02*
X152106286Y-72209914D01*
X152106286Y-72209914D02*
X152011048Y-72257533D01*
X153534857Y-72971819D02*
X152963429Y-72971819D01*
X153249143Y-72971819D02*
X153249143Y-71971819D01*
X153249143Y-71971819D02*
X153153905Y-72114676D01*
X153153905Y-72114676D02*
X153058667Y-72209914D01*
X153058667Y-72209914D02*
X152963429Y-72257533D01*
X142279905Y-72606819D02*
X142851333Y-72606819D01*
X142565619Y-73606819D02*
X142565619Y-72606819D01*
X143184667Y-73606819D02*
X143184667Y-72606819D01*
X143184667Y-72606819D02*
X143565619Y-72606819D01*
X143565619Y-72606819D02*
X143660857Y-72654438D01*
X143660857Y-72654438D02*
X143708476Y-72702057D01*
X143708476Y-72702057D02*
X143756095Y-72797295D01*
X143756095Y-72797295D02*
X143756095Y-72940152D01*
X143756095Y-72940152D02*
X143708476Y-73035390D01*
X143708476Y-73035390D02*
X143660857Y-73083009D01*
X143660857Y-73083009D02*
X143565619Y-73130628D01*
X143565619Y-73130628D02*
X143184667Y-73130628D01*
X144708476Y-73606819D02*
X144137048Y-73606819D01*
X144422762Y-73606819D02*
X144422762Y-72606819D01*
X144422762Y-72606819D02*
X144327524Y-72749676D01*
X144327524Y-72749676D02*
X144232286Y-72844914D01*
X144232286Y-72844914D02*
X144137048Y-72892533D01*
X145089429Y-72702057D02*
X145137048Y-72654438D01*
X145137048Y-72654438D02*
X145232286Y-72606819D01*
X145232286Y-72606819D02*
X145470381Y-72606819D01*
X145470381Y-72606819D02*
X145565619Y-72654438D01*
X145565619Y-72654438D02*
X145613238Y-72702057D01*
X145613238Y-72702057D02*
X145660857Y-72797295D01*
X145660857Y-72797295D02*
X145660857Y-72892533D01*
X145660857Y-72892533D02*
X145613238Y-73035390D01*
X145613238Y-73035390D02*
X145041810Y-73606819D01*
X145041810Y-73606819D02*
X145660857Y-73606819D01*
X161885333Y-99165580D02*
X161837714Y-99213200D01*
X161837714Y-99213200D02*
X161694857Y-99260819D01*
X161694857Y-99260819D02*
X161599619Y-99260819D01*
X161599619Y-99260819D02*
X161456762Y-99213200D01*
X161456762Y-99213200D02*
X161361524Y-99117961D01*
X161361524Y-99117961D02*
X161313905Y-99022723D01*
X161313905Y-99022723D02*
X161266286Y-98832247D01*
X161266286Y-98832247D02*
X161266286Y-98689390D01*
X161266286Y-98689390D02*
X161313905Y-98498914D01*
X161313905Y-98498914D02*
X161361524Y-98403676D01*
X161361524Y-98403676D02*
X161456762Y-98308438D01*
X161456762Y-98308438D02*
X161599619Y-98260819D01*
X161599619Y-98260819D02*
X161694857Y-98260819D01*
X161694857Y-98260819D02*
X161837714Y-98308438D01*
X161837714Y-98308438D02*
X161885333Y-98356057D01*
X162837714Y-99260819D02*
X162266286Y-99260819D01*
X162552000Y-99260819D02*
X162552000Y-98260819D01*
X162552000Y-98260819D02*
X162456762Y-98403676D01*
X162456762Y-98403676D02*
X162361524Y-98498914D01*
X162361524Y-98498914D02*
X162266286Y-98546533D01*
X156114761Y-81195057D02*
X156019523Y-81147438D01*
X156019523Y-81147438D02*
X155924285Y-81052200D01*
X155924285Y-81052200D02*
X155781428Y-80909342D01*
X155781428Y-80909342D02*
X155686190Y-80861723D01*
X155686190Y-80861723D02*
X155590952Y-80861723D01*
X155638571Y-81099819D02*
X155543333Y-81052200D01*
X155543333Y-81052200D02*
X155448095Y-80956961D01*
X155448095Y-80956961D02*
X155400476Y-80766485D01*
X155400476Y-80766485D02*
X155400476Y-80433152D01*
X155400476Y-80433152D02*
X155448095Y-80242676D01*
X155448095Y-80242676D02*
X155543333Y-80147438D01*
X155543333Y-80147438D02*
X155638571Y-80099819D01*
X155638571Y-80099819D02*
X155829047Y-80099819D01*
X155829047Y-80099819D02*
X155924285Y-80147438D01*
X155924285Y-80147438D02*
X156019523Y-80242676D01*
X156019523Y-80242676D02*
X156067142Y-80433152D01*
X156067142Y-80433152D02*
X156067142Y-80766485D01*
X156067142Y-80766485D02*
X156019523Y-80956961D01*
X156019523Y-80956961D02*
X155924285Y-81052200D01*
X155924285Y-81052200D02*
X155829047Y-81099819D01*
X155829047Y-81099819D02*
X155638571Y-81099819D01*
X157019523Y-81099819D02*
X156448095Y-81099819D01*
X156733809Y-81099819D02*
X156733809Y-80099819D01*
X156733809Y-80099819D02*
X156638571Y-80242676D01*
X156638571Y-80242676D02*
X156543333Y-80337914D01*
X156543333Y-80337914D02*
X156448095Y-80385533D01*
X136152095Y-107277819D02*
X136723523Y-107277819D01*
X136437809Y-108277819D02*
X136437809Y-107277819D01*
X137056857Y-108277819D02*
X137056857Y-107277819D01*
X137056857Y-107277819D02*
X137437809Y-107277819D01*
X137437809Y-107277819D02*
X137533047Y-107325438D01*
X137533047Y-107325438D02*
X137580666Y-107373057D01*
X137580666Y-107373057D02*
X137628285Y-107468295D01*
X137628285Y-107468295D02*
X137628285Y-107611152D01*
X137628285Y-107611152D02*
X137580666Y-107706390D01*
X137580666Y-107706390D02*
X137533047Y-107754009D01*
X137533047Y-107754009D02*
X137437809Y-107801628D01*
X137437809Y-107801628D02*
X137056857Y-107801628D01*
X138009238Y-107373057D02*
X138056857Y-107325438D01*
X138056857Y-107325438D02*
X138152095Y-107277819D01*
X138152095Y-107277819D02*
X138390190Y-107277819D01*
X138390190Y-107277819D02*
X138485428Y-107325438D01*
X138485428Y-107325438D02*
X138533047Y-107373057D01*
X138533047Y-107373057D02*
X138580666Y-107468295D01*
X138580666Y-107468295D02*
X138580666Y-107563533D01*
X138580666Y-107563533D02*
X138533047Y-107706390D01*
X138533047Y-107706390D02*
X137961619Y-108277819D01*
X137961619Y-108277819D02*
X138580666Y-108277819D01*
X150582333Y-105388580D02*
X150534714Y-105436200D01*
X150534714Y-105436200D02*
X150391857Y-105483819D01*
X150391857Y-105483819D02*
X150296619Y-105483819D01*
X150296619Y-105483819D02*
X150153762Y-105436200D01*
X150153762Y-105436200D02*
X150058524Y-105340961D01*
X150058524Y-105340961D02*
X150010905Y-105245723D01*
X150010905Y-105245723D02*
X149963286Y-105055247D01*
X149963286Y-105055247D02*
X149963286Y-104912390D01*
X149963286Y-104912390D02*
X150010905Y-104721914D01*
X150010905Y-104721914D02*
X150058524Y-104626676D01*
X150058524Y-104626676D02*
X150153762Y-104531438D01*
X150153762Y-104531438D02*
X150296619Y-104483819D01*
X150296619Y-104483819D02*
X150391857Y-104483819D01*
X150391857Y-104483819D02*
X150534714Y-104531438D01*
X150534714Y-104531438D02*
X150582333Y-104579057D01*
X150963286Y-104579057D02*
X151010905Y-104531438D01*
X151010905Y-104531438D02*
X151106143Y-104483819D01*
X151106143Y-104483819D02*
X151344238Y-104483819D01*
X151344238Y-104483819D02*
X151439476Y-104531438D01*
X151439476Y-104531438D02*
X151487095Y-104579057D01*
X151487095Y-104579057D02*
X151534714Y-104674295D01*
X151534714Y-104674295D02*
X151534714Y-104769533D01*
X151534714Y-104769533D02*
X151487095Y-104912390D01*
X151487095Y-104912390D02*
X150915667Y-105483819D01*
X150915667Y-105483819D02*
X151534714Y-105483819D01*
D11*
%TO.C,SW3*%
X146503000Y-100258000D02*
X146503000Y-93798000D01*
X146533000Y-100258000D02*
X146503000Y-100258000D01*
X148433000Y-100258000D02*
X151033000Y-100258000D01*
X152963000Y-100258000D02*
X152933000Y-100258000D01*
X152963000Y-100258000D02*
X152963000Y-93798000D01*
X146503000Y-93798000D02*
X146533000Y-93798000D01*
X148433000Y-93798000D02*
X151033000Y-93798000D01*
X152963000Y-93798000D02*
X152933000Y-93798000D01*
%TO.C,SW2*%
X133549000Y-100258000D02*
X133549000Y-93798000D01*
X133579000Y-100258000D02*
X133549000Y-100258000D01*
X135479000Y-100258000D02*
X138079000Y-100258000D01*
X140009000Y-100258000D02*
X139979000Y-100258000D01*
X140009000Y-100258000D02*
X140009000Y-93798000D01*
X133549000Y-93798000D02*
X133579000Y-93798000D01*
X135479000Y-93798000D02*
X138079000Y-93798000D01*
X140009000Y-93798000D02*
X139979000Y-93798000D01*
%TO.C,SW1*%
X133549000Y-88828000D02*
X133549000Y-82368000D01*
X133579000Y-88828000D02*
X133549000Y-88828000D01*
X135479000Y-88828000D02*
X138079000Y-88828000D01*
X140009000Y-88828000D02*
X139979000Y-88828000D01*
X140009000Y-88828000D02*
X140009000Y-82368000D01*
X133549000Y-82368000D02*
X133579000Y-82368000D01*
X135479000Y-82368000D02*
X138079000Y-82368000D01*
X140009000Y-82368000D02*
X139979000Y-82368000D01*
%TO.C,D2*%
X149352000Y-68072000D02*
X149352000Y-69342000D01*
X148844000Y-69342000D02*
X149352000Y-69342000D01*
X146812000Y-68072000D02*
X149352000Y-68072000D01*
X147574000Y-69088000D02*
X148590000Y-69088000D01*
X148590000Y-69088000D02*
X148844000Y-69342000D01*
%TO.C,D1*%
X146685000Y-69723000D02*
X146685000Y-70993000D01*
X146177000Y-70993000D02*
X146685000Y-70993000D01*
X144145000Y-69723000D02*
X146685000Y-69723000D01*
X144907000Y-70739000D02*
X145923000Y-70739000D01*
X145923000Y-70739000D02*
X146177000Y-70993000D01*
%TO.C,BT1*%
X131699000Y-120777000D02*
X131699000Y-126111000D01*
X134239000Y-120777000D02*
X134239000Y-126111000D01*
X131699000Y-120777000D02*
X134239000Y-120777000D01*
X159639000Y-120777000D02*
X159639000Y-126111000D01*
X162179000Y-120777000D02*
X159639000Y-120777000D01*
X162179000Y-120777000D02*
X162179000Y-126111000D01*
D10*
%TO.C,U1*%
X154148000Y-98271000D02*
X154803000Y-98271000D01*
X154148000Y-92771000D02*
X154898000Y-92771000D01*
X160558000Y-92771000D02*
X159808000Y-92771000D01*
X160558000Y-98271000D02*
X159808000Y-98271000D01*
X154148000Y-98271000D02*
X154148000Y-92771000D01*
X160558000Y-98271000D02*
X160558000Y-92771000D01*
X154803000Y-98271000D02*
X154803000Y-100021000D01*
D11*
%TO.C,D5*%
X152583000Y-88648000D02*
X151653000Y-88648000D01*
X149423000Y-88648000D02*
X150353000Y-88648000D01*
X149423000Y-88648000D02*
X149423000Y-90808000D01*
X152583000Y-88648000D02*
X152583000Y-90108000D01*
%TO.C,D4*%
X149423000Y-86104000D02*
X150353000Y-86104000D01*
X152583000Y-86104000D02*
X151653000Y-86104000D01*
X152583000Y-86104000D02*
X152583000Y-83944000D01*
X149423000Y-86104000D02*
X149423000Y-84644000D01*
%TO.C,Y1*%
X159697000Y-106670000D02*
X147097000Y-106670000D01*
X147097000Y-106670000D02*
X147097000Y-111770000D01*
X147097000Y-111770000D02*
X159697000Y-111770000D01*
%TO.C,C3*%
X156876000Y-104429000D02*
X157576000Y-104429000D01*
X157576000Y-105629000D02*
X156876000Y-105629000D01*
%TO.C,D3*%
X161298000Y-76738000D02*
X162298000Y-76738000D01*
X162298000Y-76738000D02*
X162298000Y-74638000D01*
X161298000Y-76738000D02*
X161298000Y-74638000D01*
%TO.C,R1*%
X145677000Y-73996000D02*
X146677000Y-73996000D01*
X146677000Y-75356000D02*
X145677000Y-75356000D01*
%TO.C,R2*%
X148545000Y-75176000D02*
X148545000Y-74176000D01*
X149905000Y-74176000D02*
X149905000Y-75176000D01*
%TO.C,C1*%
X162394000Y-96766000D02*
X162394000Y-95766000D01*
X160694000Y-95766000D02*
X160694000Y-96766000D01*
%TO.C,Q1*%
X157663000Y-77599000D02*
X156733000Y-77599000D01*
X154503000Y-77599000D02*
X155433000Y-77599000D01*
X154503000Y-77599000D02*
X154503000Y-79759000D01*
X157663000Y-77599000D02*
X157663000Y-79059000D01*
%TO.C,C2*%
X152812000Y-104429000D02*
X153512000Y-104429000D01*
X153512000Y-105629000D02*
X152812000Y-105629000D01*
%TD*%
M02*
