%TF.GenerationSoftware,KiCad,Pcbnew,8.0.7+dfsg-2*%
%TF.CreationDate,2024-12-30T10:24:02+01:00*%
%TF.ProjectId,strobe-torch,7374726f-6265-42d7-946f-7263682e6b69,1.1*%
%TF.SameCoordinates,Original*%
%TF.FileFunction,Soldermask,Top*%
%TF.FilePolarity,Negative*%
%FSLAX46Y46*%
G04 Gerber Fmt 4.6, Leading zero omitted, Abs format (unit mm)*
G04 Created by KiCad (PCBNEW 8.0.7+dfsg-2) date 2024-12-30 10:24:02*
%MOMM*%
%LPD*%
G01*
G04 APERTURE LIST*
%ADD10R,1.250000X1.000000*%
%ADD11R,0.800000X0.750000*%
%ADD12R,0.800000X0.800000*%
%ADD13R,0.500000X0.900000*%
%ADD14R,0.900000X0.500000*%
%ADD15C,1.500000*%
%ADD16R,4.500000X2.000000*%
%ADD17R,1.800000X1.800000*%
%ADD18O,1.800000X1.800000*%
%ADD19R,1.000000X0.720000*%
%ADD20R,0.800000X0.900000*%
%ADD21R,1.300000X2.300000*%
%ADD22R,0.550000X1.750000*%
G04 APERTURE END LIST*
D10*
%TO.C,C1*%
X161544000Y-95266000D03*
X161544000Y-97266000D03*
%TD*%
D11*
%TO.C,C2*%
X153912000Y-105029000D03*
X152412000Y-105029000D03*
%TD*%
%TO.C,C3*%
X157976000Y-105029000D03*
X156476000Y-105029000D03*
%TD*%
D12*
%TO.C,D3*%
X161798000Y-76238000D03*
X161798000Y-74638000D03*
%TD*%
D13*
%TO.C,R1*%
X146927000Y-74676000D03*
X145427000Y-74676000D03*
%TD*%
D14*
%TO.C,R2*%
X149225000Y-73926000D03*
X149225000Y-75426000D03*
%TD*%
D15*
%TO.C,TP1*%
X142875000Y-74676000D03*
%TD*%
%TO.C,TP2*%
X137541000Y-106172000D03*
%TD*%
%TO.C,TP3*%
X142621000Y-84328000D03*
%TD*%
%TO.C,TP4*%
X142400000Y-91000000D03*
%TD*%
%TO.C,TP5*%
X150622000Y-103251000D03*
%TD*%
%TO.C,TP6*%
X158242000Y-74676000D03*
%TD*%
%TO.C,TP7*%
X147066000Y-90170000D03*
%TD*%
%TO.C,TP8*%
X155194000Y-102362000D03*
%TD*%
%TO.C,TP9*%
X157988000Y-102362000D03*
%TD*%
%TO.C,TP10*%
X152146000Y-76581000D03*
%TD*%
%TO.C,TP11*%
X149225000Y-71374000D03*
%TD*%
%TO.C,TP12*%
X146685000Y-72263000D03*
%TD*%
D16*
%TO.C,Y1*%
X149547000Y-109220000D03*
X158047000Y-109220000D03*
%TD*%
D17*
%TO.C,BT1*%
X132969000Y-122047000D03*
X132969000Y-124587000D03*
D18*
X160909000Y-122047000D03*
X160909000Y-124587000D03*
%TD*%
D19*
%TO.C,D1*%
X146715000Y-70231000D03*
X144115000Y-70231000D03*
%TD*%
%TO.C,D2*%
X149382000Y-68580000D03*
X146782000Y-68580000D03*
%TD*%
D20*
%TO.C,D4*%
X151953000Y-84344000D03*
X150053000Y-84344000D03*
X151003000Y-86344000D03*
%TD*%
%TO.C,D5*%
X150053000Y-90408000D03*
X151953000Y-90408000D03*
X151003000Y-88408000D03*
%TD*%
%TO.C,Q1*%
X155133000Y-79359000D03*
X157033000Y-79359000D03*
X156083000Y-77359000D03*
%TD*%
D15*
%TO.C,TP13*%
X159258000Y-84963000D03*
%TD*%
D21*
%TO.C,SW1*%
X134529000Y-89798000D03*
X134529000Y-81398000D03*
X139029000Y-89798000D03*
X139029000Y-81398000D03*
%TD*%
%TO.C,SW2*%
X134529000Y-101228000D03*
X134529000Y-92828000D03*
X139029000Y-101228000D03*
X139029000Y-92828000D03*
%TD*%
%TO.C,SW3*%
X147483000Y-101228000D03*
X147483000Y-92828000D03*
X151983000Y-101228000D03*
X151983000Y-92828000D03*
%TD*%
D22*
%TO.C,U1*%
X155448000Y-99221000D03*
X156718000Y-99221000D03*
X157988000Y-99221000D03*
X159258000Y-99221000D03*
X159258000Y-91821000D03*
X157988000Y-91821000D03*
X156718000Y-91821000D03*
X155448000Y-91821000D03*
%TD*%
M02*
